<?xml version="1.0" encoding="UTF-8" standalone="no"?>
<svg
   xmlns:dc="http://purl.org/dc/elements/1.1/"
   xmlns:cc="http://creativecommons.org/ns#"
   xmlns:rdf="http://www.w3.org/1999/02/22-rdf-syntax-ns#"
   xmlns:svg="http://www.w3.org/2000/svg"
   xmlns="http://www.w3.org/2000/svg"
   xmlns:sodipodi="http://sodipodi.sourceforge.net/DTD/sodipodi-0.dtd"
   xmlns:inkscape="http://www.inkscape.org/namespaces/inkscape"
   width="224.41mm"
   height="270.53mm"
   version="1.1"
   viewBox="0 0 224.41 270.53"
   id="svg900"
   sodipodi:docname="thumbnail.svg"
   inkscape:version="1.0.2 (e86c8708, 2021-01-15)">
  <defs
     id="defs904" />
  <sodipodi:namedview
     pagecolor="#ffffff"
     bordercolor="#666666"
     borderopacity="1"
     objecttolerance="10"
     gridtolerance="10"
     guidetolerance="10"
     inkscape:pageopacity="0"
     inkscape:pageshadow="2"
     inkscape:window-width="1460"
     inkscape:window-height="1332"
     id="namedview902"
     showgrid="false"
     inkscape:zoom="0.98584261"
     inkscape:cx="424.0819"
     inkscape:cy="308.36565"
     inkscape:window-x="0"
     inkscape:window-y="25"
     inkscape:window-maximized="0"
     inkscape:current-layer="g898"
     inkscape:document-rotation="0" />
  <!-- Working space 10 10 410 287 -->
  <!-- Title block 220 227 410 287 -->
  <metadata
     id="metadata458">
    <rdf:RDF>
      <cc:Work
         rdf:about="">
        <dc:format>image/svg+xml</dc:format>
        <dc:type
           rdf:resource="http://purl.org/dc/dcmitype/StillImage" />
        <dc:title />
      </cc:Work>
    </rdf:RDF>
  </metadata>
  <g
     transform="matrix(0.90909835,0,0,1.0014133,419.92319,-236.18604)"
     id="g898">
    <g
       shape-rendering="auto"
       id="g466">
      <path
         d="m -298.63,325.99 c -0.0383,0.14385 -0.30142,0.0287 -0.43253,0.0656 h -85.74 c -0.0355,-0.14489 -0.29824,0.0116 -0.4284,-0.008 -0.0184,0.003 -0.0369,0.005 -0.0553,0.008 h -0.48162 c -0.0148,0.15119 -0.29396,0.0732 -0.4191,0.12868 -16.043,2.2915 -32.085,4.5824 -48.128,6.8745 -0.15323,-0.18019 -0.24053,-0.0964 -0.35191,0.0506 -0.24335,-0.0366 -0.17984,0.1281 -0.1819,0.28835 -6.745,9.3886 -11.836,19.962 -14.961,31.092 -3.2974,11.69 -4.4175,23.988 -3.297,36.082 1.1514,12.549 4.723,24.87 10.459,36.091 2.2761,4.4612 4.8933,8.7484 7.814,12.817 -0.0719,0.19206 -0.0199,0.2914 0.19327,0.27026 0.0836,0.23 0.19932,0.14677 0.35088,0.0506 16.174,2.3107 32.347,4.6206 48.521,6.9308 0.0149,0.14907 0.29683,0.0311 0.42323,0.0687 0.17871,0.006 0.35505,0.0476 0.53278,0.0677 0.0356,-0.14708 0.30111,-0.0305 0.43254,-0.0677 h 85.74 c 0.0381,0.14137 0.29849,-0.0122 0.4284,0.007 0.17762,-0.0161 0.35745,-0.003 0.53588,-0.007 0.0161,-0.14971 0.29412,-0.0712 0.4191,-0.12609 15.995,-2.2277 31.99,-4.4575 47.985,-6.6838 0.13708,0.15165 0.24955,0.1531 0.32918,-0.046 0.24177,0.0333 0.21836,-0.1093 0.20515,-0.28577 6.2379,-8.6371 11.073,-18.283 14.26,-28.449 3.2519,-10.357 4.7921,-21.247 4.5351,-32.1 -0.25274,-11.036 -2.3659,-22.024 -6.2172,-32.369 -3.1131,-8.3727 -7.361,-16.322 -12.593,-23.562 0.0876,-0.21826 -0.0253,-0.25785 -0.2067,-0.28835 -0.079,-0.23231 -0.19508,-0.0969 -0.33694,-0.0269 -16.127,-2.2443 -32.253,-4.4926 -48.379,-6.7386 -0.0162,-0.14748 -0.29706,-0.0302 -0.42323,-0.0677 -0.17835,-0.006 -0.35437,-0.0461 -0.53175,-0.0656 z m -142.42,36.401 8.0057,1.0273 2.7151,0.34985 -0.0222,0.17363 h 0.17467 v 54.971 h -0.17518 l 0.0227,0.17364 -2.7151,0.34985 -8.0057,1.0273 -0.0227,-0.17311 -0.15709,0.0775 c -0.33523,-0.67317 -0.65832,-1.352 -0.97049,-2.0371 -0.86737,-1.9039 -1.672,-3.9166 -2.3849,-6.012 -0.71292,-2.0954 -1.3352,-4.2742 -1.8516,-6.5567 -0.51741,-2.2844 -0.92346,-4.663 -1.1932,-7.0626 -0.27072,-2.4004 -0.40975,-4.8316 -0.40824,-7.3003 5e-4,-1.234 0.0347,-2.4771 0.10542,-3.7016 0.0702,-1.2235 0.1742,-2.4314 0.31057,-3.6246 0.27273,-2.387 0.67481,-4.7285 1.1932,-7.012 0.25921,-1.1412 0.54699,-2.2678 0.85783,-3.3631 0.31129,-1.0942 0.64493,-2.1607 0.99994,-3.2014 0.70991,-2.0832 1.5051,-4.0714 2.3709,-5.9728 0.31217,-0.6851 0.63526,-1.3639 0.97049,-2.0371 l 0.15709,0.0786 z m 198.66,0 0.0217,0.17363 0.15607,-0.078 c 0.33523,0.67317 0.65883,1.352 0.971,2.0371 0.86582,1.9013 1.661,3.8896 2.3709,5.9728 0.35502,1.0407 0.68865,2.1072 0.99994,3.2014 0.31085,1.0954 0.5981,2.2219 0.85731,3.3631 0.5184,2.2835 0.921,4.625 1.1937,7.012 0.13638,1.1932 0.24037,2.4011 0.31057,3.6246 0.0707,1.2245 0.10644,2.4676 0.10697,3.7016 0.001,2.4687 -0.13906,4.8999 -0.40979,7.3003 -0.26976,2.3997 -0.67632,4.7782 -1.1937,7.0626 -0.51639,2.2825 -1.1386,4.4613 -1.8516,6.5567 -0.71291,2.0954 -1.517,4.1082 -2.3844,6.012 -0.31217,0.68509 -0.63577,1.3639 -0.971,2.0371 l -0.15607,-0.0775 -0.0217,0.17311 -8.0057,-1.0273 -2.7166,-0.34985 0.0227,-0.17364 h -0.17518 v -54.971 h 0.17467 l -0.0222,-0.17363 2.7166,-0.34985 z"
         color="#000000"
         color-rendering="auto"
         dominant-baseline="auto"
         fill="#c8c8c8"
         image-rendering="auto"
         solid-color="#000000"
         stop-color="#000000"
         style="font-variant-ligatures:normal;font-variant-position:normal;font-variant-caps:normal;font-variant-numeric:normal;font-variant-alternates:normal;font-variant-east-asian:normal;font-feature-settings:normal;font-variation-settings:normal;text-indent:0;text-decoration:none;text-decoration-line:none;text-decoration-style:solid;text-decoration-color:#000000;text-transform:none;text-orientation:mixed;white-space:normal;shape-padding:0;shape-margin:0;inline-size:0;isolation:auto;mix-blend-mode:normal"
         id="path460" />
      <path
         d="m -298.46,325.99 c -0.0383,0.14385 -0.30142,0.0287 -0.43253,0.0656 h -85.74 c -0.0355,-0.14489 -0.29824,0.0116 -0.4284,-0.008 -0.0184,0.003 -0.0369,0.005 -0.0553,0.008 h -0.48162 c -0.0148,0.15119 -0.29396,0.0732 -0.4191,0.12868 -16.043,2.2915 -32.085,4.5824 -48.128,6.8745 -0.15323,-0.18019 -0.24053,-0.0964 -0.35191,0.0506 -0.24335,-0.0366 -0.17984,0.1281 -0.1819,0.28835 -6.745,9.3886 -11.836,19.962 -14.961,31.092 -3.2974,11.69 -4.4175,23.988 -3.297,36.082 1.1514,12.549 4.723,24.87 10.459,36.091 2.2761,4.4612 4.8933,8.7484 7.814,12.817 -0.0719,0.19206 -0.0199,0.2914 0.19327,0.27026 0.0836,0.23 0.19932,0.14677 0.35088,0.0506 16.174,2.3107 32.347,4.6206 48.521,6.9308 0.0149,0.14907 0.29683,0.0311 0.42323,0.0687 0.17871,0.006 0.35505,0.0476 0.53278,0.0677 0.0356,-0.14708 0.30111,-0.0305 0.43254,-0.0677 h 85.74 c 0.0381,0.14137 0.29849,-0.0122 0.4284,0.007 0.17762,-0.0161 0.35745,-0.003 0.53588,-0.007 0.0161,-0.14971 0.29412,-0.0712 0.4191,-0.12609 15.995,-2.2277 31.99,-4.4575 47.985,-6.6838 0.13708,0.15165 0.24955,0.1531 0.32918,-0.046 0.24177,0.0333 0.21836,-0.1093 0.20515,-0.28577 6.2379,-8.6371 11.073,-18.283 14.26,-28.449 3.2519,-10.357 4.7921,-21.247 4.5351,-32.1 -0.25274,-11.036 -2.3659,-22.024 -6.2172,-32.369 -3.1131,-8.3727 -7.361,-16.322 -12.593,-23.562 0.0876,-0.21826 -0.0253,-0.25785 -0.2067,-0.28835 -0.079,-0.23231 -0.19508,-0.0969 -0.33694,-0.0269 -16.127,-2.2443 -32.253,-4.4926 -48.379,-6.7386 -0.0162,-0.14748 -0.29706,-0.0302 -0.42323,-0.0677 -0.17835,-0.006 -0.35437,-0.0461 -0.53175,-0.0656 z m -142.42,36.401 8.0057,1.0273 2.7151,0.34985 -0.0222,0.17363 h 0.17467 v 54.971 h -0.17518 l 0.0227,0.17364 -2.7151,0.34985 -8.0057,1.0273 -0.0227,-0.17311 -0.15709,0.0775 c -0.33523,-0.67317 -0.65832,-1.352 -0.97049,-2.0371 -0.86737,-1.9039 -1.672,-3.9166 -2.3849,-6.012 -0.71292,-2.0954 -1.3352,-4.2742 -1.8516,-6.5567 -0.51741,-2.2844 -0.92346,-4.663 -1.1932,-7.0626 -0.27072,-2.4004 -0.40975,-4.8316 -0.40824,-7.3003 5e-4,-1.234 0.0347,-2.4771 0.10542,-3.7016 0.0702,-1.2235 0.1742,-2.4314 0.31057,-3.6246 0.27273,-2.387 0.67481,-4.7285 1.1932,-7.012 0.25921,-1.1412 0.54699,-2.2678 0.85783,-3.3631 0.31129,-1.0942 0.64493,-2.1607 0.99994,-3.2014 0.70991,-2.0832 1.5051,-4.0714 2.3709,-5.9728 0.31217,-0.6851 0.63526,-1.3639 0.97049,-2.0371 l 0.15709,0.0786 z m 198.66,0 0.0217,0.17363 0.15607,-0.078 c 0.33523,0.67317 0.65883,1.352 0.971,2.0371 0.86582,1.9013 1.661,3.8896 2.3709,5.9728 0.35502,1.0407 0.68865,2.1072 0.99994,3.2014 0.31085,1.0954 0.5981,2.2219 0.85731,3.3631 0.5184,2.2835 0.921,4.625 1.1937,7.012 0.13638,1.1932 0.24037,2.4011 0.31057,3.6246 0.0707,1.2245 0.10644,2.4676 0.10697,3.7016 0.001,2.4687 -0.13906,4.8999 -0.40979,7.3003 -0.26976,2.3997 -0.67632,4.7782 -1.1937,7.0626 -0.51639,2.2825 -1.1386,4.4613 -1.8516,6.5567 -0.71291,2.0954 -1.517,4.1082 -2.3844,6.012 -0.31217,0.68509 -0.63577,1.3639 -0.971,2.0371 l -0.15607,-0.0775 -0.0217,0.17311 -8.0057,-1.0273 -2.7166,-0.34985 0.0227,-0.17364 h -0.17518 v -54.971 h 0.17467 l -0.0222,-0.17363 2.7166,-0.34985 z"
         color="#000000"
         color-rendering="auto"
         dominant-baseline="auto"
         fill="none"
         image-rendering="auto"
         solid-color="#000000"
         stop-color="#000000"
         stroke="#000000"
         stroke-width="0.79375"
         style="font-variant-ligatures:normal;font-variant-position:normal;font-variant-caps:normal;font-variant-numeric:normal;font-variant-alternates:normal;font-variant-east-asian:normal;font-feature-settings:normal;font-variation-settings:normal;text-indent:0;text-decoration:none;text-decoration-line:none;text-decoration-style:solid;text-decoration-color:#000000;text-transform:none;text-orientation:mixed;white-space:normal;shape-padding:0;shape-margin:0;inline-size:0;isolation:auto;mix-blend-mode:normal"
         id="path462" />
      <path
         d="m -441.4,363.01 v 0.17363 h -0.17568 v 57.188 H -441.4 v 0.17568 h 199.7 v -0.17568 h 0.17363 v -57.188 H -241.7 V 363.01 h -199.67 z"
         color="#000000"
         color-rendering="auto"
         dominant-baseline="auto"
         fill="#c8c8c8"
         image-rendering="auto"
         solid-color="#000000"
         stop-color="#000000"
         style="font-variant-ligatures:normal;font-variant-position:normal;font-variant-caps:normal;font-variant-numeric:normal;font-variant-alternates:normal;font-variant-east-asian:normal;font-feature-settings:normal;font-variation-settings:normal;text-indent:0;text-decoration:none;text-decoration-line:none;text-decoration-style:solid;text-decoration-color:#000000;text-transform:none;text-orientation:mixed;white-space:normal;shape-padding:0;shape-margin:0;inline-size:0;isolation:auto;mix-blend-mode:normal"
         id="path464" />
    </g>
    <g
       transform="translate(-170.99,106.22)"
       fill="none"
       shape-rendering="auto"
       stroke="#000000"
       stroke-width="0.79375"
       id="g496">
      <path
         d="m -79.881,305.08 h 0.004 z"
         color="#000000"
         color-rendering="auto"
         dominant-baseline="auto"
         image-rendering="auto"
         solid-color="#000000"
         stop-color="#000000"
         style="font-variant-ligatures:normal;font-variant-position:normal;font-variant-caps:normal;font-variant-numeric:normal;font-variant-alternates:normal;font-variant-east-asian:normal;font-feature-settings:normal;font-variation-settings:normal;text-indent:0;text-decoration:none;text-decoration-line:none;text-decoration-style:solid;text-decoration-color:#000000;text-transform:none;text-orientation:mixed;white-space:normal;shape-padding:0;shape-margin:0;inline-size:0;isolation:auto;mix-blend-mode:normal"
         id="path468" />
      <path
         d="m -261.59,305.08 h 0.004 z"
         color="#000000"
         color-rendering="auto"
         dominant-baseline="auto"
         image-rendering="auto"
         solid-color="#000000"
         stop-color="#000000"
         style="font-variant-ligatures:normal;font-variant-position:normal;font-variant-caps:normal;font-variant-numeric:normal;font-variant-alternates:normal;font-variant-east-asian:normal;font-feature-settings:normal;font-variation-settings:normal;text-indent:0;text-decoration:none;text-decoration-line:none;text-decoration-style:solid;text-decoration-color:#000000;text-transform:none;text-orientation:mixed;white-space:normal;shape-padding:0;shape-margin:0;inline-size:0;isolation:auto;mix-blend-mode:normal"
         id="path470" />
      <path
         d="m -256.13,274.53 3.1642,1.3922 2.8944,1.5255 2.3751,1.5426 1.8474,1.557 1.3147,1.5601 0.78339,1.5549 0.25786,1.5467 -0.25786,1.5472 -0.78339,1.5544 -1.3147,1.5606 -1.8474,1.5565 -2.3751,1.5451 -2.8944,1.5234 -3.1642,1.3932 z"
         color="#000000"
         color-rendering="auto"
         dominant-baseline="auto"
         image-rendering="auto"
         solid-color="#000000"
         stop-color="#000000"
         style="font-variant-ligatures:normal;font-variant-position:normal;font-variant-caps:normal;font-variant-numeric:normal;font-variant-alternates:normal;font-variant-east-asian:normal;font-feature-settings:normal;font-variation-settings:normal;text-indent:0;text-decoration:none;text-decoration-line:none;text-decoration-style:solid;text-decoration-color:#000000;text-transform:none;text-orientation:mixed;white-space:normal;shape-padding:0;shape-margin:0;inline-size:0;isolation:auto;mix-blend-mode:normal"
         id="path472" />
      <path
         d="m -85.334,274.53 v 21.361 l -3.1657,-1.3942 -2.8949,-1.5234 -2.3745,-1.5451 -1.848,-1.5565 -1.3141,-1.5606 -0.78135,-1.5544 -0.25994,-1.5472 0.25994,-1.5467 0.78135,-1.5549 1.3141,-1.5601 1.848,-1.557 2.3745,-1.5426 2.8949,-1.5255 z"
         color="#000000"
         color-rendering="auto"
         dominant-baseline="auto"
         image-rendering="auto"
         solid-color="#000000"
         stop-color="#000000"
         style="font-variant-ligatures:normal;font-variant-position:normal;font-variant-caps:normal;font-variant-numeric:normal;font-variant-alternates:normal;font-variant-east-asian:normal;font-feature-settings:normal;font-variation-settings:normal;text-indent:0;text-decoration:none;text-decoration-line:none;text-decoration-style:solid;text-decoration-color:#000000;text-transform:none;text-orientation:mixed;white-space:normal;shape-padding:0;shape-margin:0;inline-size:0;isolation:auto;mix-blend-mode:normal"
         id="path474" />
      <path
         d="m -256.3,274.26 v 9.9e-4 h -0.003 z"
         color="#000000"
         color-rendering="auto"
         dominant-baseline="auto"
         image-rendering="auto"
         solid-color="#000000"
         stop-color="#000000"
         style="font-variant-ligatures:normal;font-variant-position:normal;font-variant-caps:normal;font-variant-numeric:normal;font-variant-alternates:normal;font-variant-east-asian:normal;font-feature-settings:normal;font-variation-settings:normal;text-indent:0;text-decoration:none;text-decoration-line:none;text-decoration-style:solid;text-decoration-color:#000000;text-transform:none;text-orientation:mixed;white-space:normal;shape-padding:0;shape-margin:0;inline-size:0;isolation:auto;mix-blend-mode:normal"
         id="path476" />
      <path
         d="m -85.161,274.26 0.004,0.002 h -0.004 z"
         color="#000000"
         color-rendering="auto"
         dominant-baseline="auto"
         image-rendering="auto"
         solid-color="#000000"
         stop-color="#000000"
         style="font-variant-ligatures:normal;font-variant-position:normal;font-variant-caps:normal;font-variant-numeric:normal;font-variant-alternates:normal;font-variant-east-asian:normal;font-feature-settings:normal;font-variation-settings:normal;text-indent:0;text-decoration:none;text-decoration-line:none;text-decoration-style:solid;text-decoration-color:#000000;text-transform:none;text-orientation:mixed;white-space:normal;shape-padding:0;shape-margin:0;inline-size:0;isolation:auto;mix-blend-mode:normal"
         id="path478" />
      <path
         d="m -261.41,265.82 0.16174,0.19275 0.4594,0.57464 0.44339,0.5855 0.42738,0.59996 0.41597,0.60926 0.39844,0.62116 0.385,0.63251 0.36896,0.64286 0.35345,0.65009 0.33798,0.66249 0.32039,0.67179 0.3049,0.67955 0.28887,0.68575 0.26147,0.66662 v 21.831 l -0.26147,0.66663 -0.28887,0.68729 -0.3049,0.68007 -0.32039,0.66973 -0.33798,0.66196 -0.35345,0.65268 -0.36896,0.64235 -0.385,0.63095 -0.39844,0.62117 -0.41597,0.61132 -0.42738,0.5974 -0.44339,0.58805 -0.4594,0.57207 -0.16174,0.19328 z"
         color="#000000"
         color-rendering="auto"
         dominant-baseline="auto"
         image-rendering="auto"
         solid-color="#000000"
         stop-color="#000000"
         style="font-variant-ligatures:normal;font-variant-position:normal;font-variant-caps:normal;font-variant-numeric:normal;font-variant-alternates:normal;font-variant-east-asian:normal;font-feature-settings:normal;font-variation-settings:normal;text-indent:0;text-decoration:none;text-decoration-line:none;text-decoration-style:solid;text-decoration-color:#000000;text-transform:none;text-orientation:mixed;white-space:normal;shape-padding:0;shape-margin:0;inline-size:0;isolation:auto;mix-blend-mode:normal"
         id="path480" />
      <path
         d="m -80.057,265.81 v 38.786 l -0.16433,-0.19637 -0.45682,-0.57206 -0.44338,-0.58806 -0.42995,-0.5974 -0.41393,-0.61132 -0.40049,-0.62117 -0.38447,-0.63095 -0.36742,-0.64235 -0.35347,-0.65268 -0.33796,-0.66196 -0.32195,-0.66973 -0.30489,-0.68006 -0.28887,-0.68729 -0.25993,-0.66663 v -21.831 l 0.25993,-0.66662 0.28887,-0.68575 0.30489,-0.67955 0.32195,-0.67179 0.33796,-0.66249 0.35347,-0.65009 0.36742,-0.64286 0.38447,-0.63251 0.40049,-0.62116 0.41393,-0.60926 0.42995,-0.59996 0.44338,-0.5855 0.45682,-0.57464 z"
         color="#000000"
         color-rendering="auto"
         dominant-baseline="auto"
         image-rendering="auto"
         solid-color="#000000"
         stop-color="#000000"
         style="font-variant-ligatures:normal;font-variant-position:normal;font-variant-caps:normal;font-variant-numeric:normal;font-variant-alternates:normal;font-variant-east-asian:normal;font-feature-settings:normal;font-variation-settings:normal;text-indent:0;text-decoration:none;text-decoration-line:none;text-decoration-style:solid;text-decoration-color:#000000;text-transform:none;text-orientation:mixed;white-space:normal;shape-padding:0;shape-margin:0;inline-size:0;isolation:auto;mix-blend-mode:normal"
         id="path482" />
      <path
         d="m -261.58,265.33 v 5.4e-4 h -0.004 z"
         color="#000000"
         color-rendering="auto"
         dominant-baseline="auto"
         image-rendering="auto"
         solid-color="#000000"
         stop-color="#000000"
         style="font-variant-ligatures:normal;font-variant-position:normal;font-variant-caps:normal;font-variant-numeric:normal;font-variant-alternates:normal;font-variant-east-asian:normal;font-feature-settings:normal;font-variation-settings:normal;text-indent:0;text-decoration:none;text-decoration-line:none;text-decoration-style:solid;text-decoration-color:#000000;text-transform:none;text-orientation:mixed;white-space:normal;shape-padding:0;shape-margin:0;inline-size:0;isolation:auto;mix-blend-mode:normal"
         id="path484" />
      <path
         d="m -77.829,256.79 h 6.7722 v 56.836 h -6.7722 c -0.32295,-0.66765 -0.65019,-1.7065 -0.96428,-3.1052 -0.16464,-0.7328 -0.32495,-1.5637 -0.47852,-2.4763 v -0.003 c -0.15281,-0.90701 -0.29847,-1.8963 -0.43563,-2.9678 v -39.732 c 0.13716,-1.0714 0.28282,-2.0602 0.43563,-2.9673 0.15357,-0.9126 0.31388,-1.7456 0.47852,-2.4784 0.31416,-1.399 0.64127,-2.4381 0.96428,-3.1058 z"
         color="#000000"
         color-rendering="auto"
         dominant-baseline="auto"
         image-rendering="auto"
         solid-color="#000000"
         stop-color="#000000"
         style="font-variant-ligatures:normal;font-variant-position:normal;font-variant-caps:normal;font-variant-numeric:normal;font-variant-alternates:normal;font-variant-east-asian:normal;font-feature-settings:normal;font-variation-settings:normal;text-indent:0;text-decoration:none;text-decoration-line:none;text-decoration-style:solid;text-decoration-color:#000000;text-transform:none;text-orientation:mixed;white-space:normal;shape-padding:0;shape-margin:0;inline-size:0;isolation:auto;mix-blend-mode:normal"
         id="path486" />
      <path
         d="m -99.09,256.79 h 20.874 c -0.31868,0.70819 -0.6216,1.7149 -0.91674,3.0293 -0.16636,0.74052 -0.32978,1.5788 -0.48421,2.4965 -0.15179,0.901 -0.29437,1.884 -0.43047,2.944 l -0.44441,0.5302 -0.46303,0.58033 -0.44907,0.59377 -0.43356,0.60512 -0.42012,0.61753 -0.40411,0.62891 -0.38862,0.63872 -0.37309,0.6501 -0.3576,0.66041 -0.34159,0.66973 -0.32452,0.67799 -0.30851,0.6873 -0.29302,0.69557 -0.24753,0.63406 -3.3559,1.4769 -2.9197,1.5374 -2.4066,1.5642 -1.8867,1.5901 -1.3591,1.6149 -0.82631,1.6387 -0.2775,1.6562 0.2775,1.6583 0.82631,1.6387 1.3591,1.6133 1.8867,1.5901 2.4066,1.5663 2.9197,1.5368 3.3569,1.4774 0.24649,0.63201 0.29301,0.69556 0.30851,0.6873 0.32452,0.67953 0.34159,0.66818 0.3576,0.65993 0.3731,0.6506 0.38861,0.6387 0.40411,0.62891 0.42013,0.61701 0.43356,0.60566 0.44907,0.59375 0.46302,0.58187 0.44442,0.52814 c 0.13617,1.0607 0.27858,2.0429 0.43046,2.9445 0.15443,0.91771 0.31786,1.7576 0.48422,2.498 0.29482,1.3129 0.59738,2.3191 0.9157,3.0272 h -20.873 v -55.185 z"
         color="#000000"
         color-rendering="auto"
         dominant-baseline="auto"
         image-rendering="auto"
         solid-color="#000000"
         stop-color="#000000"
         style="font-variant-ligatures:normal;font-variant-position:normal;font-variant-caps:normal;font-variant-numeric:normal;font-variant-alternates:normal;font-variant-east-asian:normal;font-feature-settings:normal;font-variation-settings:normal;text-indent:0;text-decoration:none;text-decoration-line:none;text-decoration-style:solid;text-decoration-color:#000000;text-transform:none;text-orientation:mixed;white-space:normal;shape-padding:0;shape-margin:0;inline-size:0;isolation:auto;mix-blend-mode:normal"
         id="path488" />
      <path
         d="m -242.02,256.79 h 142.58 v 56.836 h -142.58 v -55.185 z"
         color="#000000"
         color-rendering="auto"
         dominant-baseline="auto"
         image-rendering="auto"
         solid-color="#000000"
         stop-color="#000000"
         style="font-variant-ligatures:normal;font-variant-position:normal;font-variant-caps:normal;font-variant-numeric:normal;font-variant-alternates:normal;font-variant-east-asian:normal;font-feature-settings:normal;font-variation-settings:normal;text-indent:0;text-decoration:none;text-decoration-line:none;text-decoration-style:solid;text-decoration-color:#000000;text-transform:none;text-orientation:mixed;white-space:normal;shape-padding:0;shape-margin:0;inline-size:0;isolation:auto;mix-blend-mode:normal"
         id="path490" />
      <path
         d="m -263.25,256.79 h 20.875 v 56.836 h -20.874 c 0.1388,-0.3091 0.27445,-0.67527 0.40928,-1.1033 0.17394,-0.55271 0.34732,-1.2079 0.51366,-1.9492 0.16635,-0.74221 0.3256,-1.5683 0.47853,-2.4805 0.15092,-0.89564 0.29424,-1.876 0.43045,-2.9368 l 0.44288,-0.52814 0.4625,-0.58187 0.44958,-0.59375 0.43357,-0.60566 0.4196,-0.61701 0.40463,-0.62891 0.38862,-0.6387 0.37309,-0.6506 0.35917,-0.65993 0.34001,-0.66818 0.32608,-0.67953 0.30853,-0.6873 0.29093,-0.69556 0.24855,-0.63304 3.3554,-1.4764 2.9197,-1.5368 2.4061,-1.5663 1.8867,-1.5901 1.3617,-1.6133 0.82423,-1.6387 0.277,-1.6583 -0.277,-1.6562 -0.82423,-1.6386 -1.3617,-1.6149 -1.8867,-1.5901 -2.4061,-1.5643 -2.9197,-1.5374 -3.3543,-1.4759 -0.24958,-0.63511 -0.29093,-0.69556 -0.30853,-0.6873 -0.32608,-0.67799 -0.34001,-0.66973 -0.35917,-0.66042 -0.37309,-0.65009 -0.38862,-0.63872 -0.40463,-0.62891 -0.4196,-0.61753 -0.43357,-0.60513 -0.44958,-0.59376 -0.4625,-0.58033 -0.44288,-0.5302 c -0.1361,-1.06 -0.27964,-2.0397 -0.43045,-2.9347 -0.15293,-0.91217 -0.31218,-1.7398 -0.47853,-2.482 -0.16634,-0.74136 -0.33972,-1.395 -0.51366,-1.9477 -0.13515,-0.42904 -0.27117,-0.7958 -0.41032,-1.1054 z"
         color="#000000"
         color-rendering="auto"
         dominant-baseline="auto"
         image-rendering="auto"
         solid-color="#000000"
         stop-color="#000000"
         style="font-variant-ligatures:normal;font-variant-position:normal;font-variant-caps:normal;font-variant-numeric:normal;font-variant-alternates:normal;font-variant-east-asian:normal;font-feature-settings:normal;font-variation-settings:normal;text-indent:0;text-decoration:none;text-decoration-line:none;text-decoration-style:solid;text-decoration-color:#000000;text-transform:none;text-orientation:mixed;white-space:normal;shape-padding:0;shape-margin:0;inline-size:0;isolation:auto;mix-blend-mode:normal"
         id="path492" />
      <path
         d="m -270.41,256.79 h 6.7722 c 0.1541,0.31759 0.31131,0.7199 0.46612,1.2113 0.17002,0.54028 0.33917,1.1838 0.50384,1.9177 0.16465,0.73467 0.32232,1.5559 0.47438,2.4629 0.15181,0.90097 0.29641,1.8879 0.43357,2.9595 v 39.733 c -0.13716,1.0716 -0.28176,2.0591 -0.43357,2.96 -0.15206,0.90705 -0.30973,1.7282 -0.47438,2.4629 -0.16467,0.73396 -0.33382,1.3795 -0.50384,1.9198 -0.1547,0.4911 -0.3116,0.89149 -0.46562,1.2087 h -6.7727 z"
         color="#000000"
         color-rendering="auto"
         dominant-baseline="auto"
         image-rendering="auto"
         solid-color="#000000"
         stop-color="#000000"
         style="font-variant-ligatures:normal;font-variant-position:normal;font-variant-caps:normal;font-variant-numeric:normal;font-variant-alternates:normal;font-variant-east-asian:normal;font-feature-settings:normal;font-variation-settings:normal;text-indent:0;text-decoration:none;text-decoration-line:none;text-decoration-style:solid;text-decoration-color:#000000;text-transform:none;text-orientation:mixed;white-space:normal;shape-padding:0;shape-margin:0;inline-size:0;isolation:auto;mix-blend-mode:normal"
         id="path494" />
    </g>
    <g
       transform="matrix(0,-0.49928,0.49919,0,-342.03,598.36)"
       fill="#c8c8c8"
       id="g578">
      <g
         transform="scale(1,-1)"
         fill="#c8c8c8"
         shape-rendering="auto"
         stroke-width="0.7"
         id="g576">
        <path
           transform="matrix(0,-0.52917,-0.52917,0,292.94,265.9)"
           d="m 424.65,163.93 h 155.93 l 8.4258,0.45703 8.459,0.51367 8.4219,0.56055 8.3828,0.60547 8.3418,0.65234 8.2891,0.70117 8.2422,0.75 8.1914,0.79297 8.1309,0.83789 8.0723,0.88672 8.0117,0.93359 7.9434,0.97461 7.873,1.0215 4.0156,0.54687 -27.775,19.443 -1.4785,0.99024 -1.5176,0.92187 -1.5606,0.85742 -1.5957,0.78516 -1.6308,0.7168 -1.6582,0.64648 -1.6816,0.57031 -1.709,0.5 -1.7285,0.41992 -1.7461,0.34766 -1.7559,0.27149 -1.7676,0.19335 -1.7754,0.11719 -1.8125,0.0371 h -275.14 l -1.8086,-0.0371 -1.7754,-0.11719 -1.7676,-0.19335 -1.7598,-0.27149 -1.7461,-0.34766 -1.7285,-0.41992 -1.7051,-0.5 -1.6856,-0.57226 -1.6582,-0.64453 -1.627,-0.7168 -1.5977,-0.78516 -1.5586,-0.85742 -1.5195,-0.92187 -1.4805,-0.99024 -27.771,-19.443 4.0117,-0.54687 7.873,-1.0215 7.9473,-0.97461 8.0098,-0.93359 8.0723,-0.88672 8.1309,-0.83789 8.1895,-0.79297 8.2422,-0.75 8.293,-0.70117 8.3379,-0.65234 8.3828,-0.60547 8.4219,-0.56055 8.4609,-0.51367 z"
           color="#000000"
           color-rendering="auto"
           dominant-baseline="auto"
           image-rendering="auto"
           solid-color="#000000"
           stop-color="#000000"
           style="font-variant-ligatures:normal;font-variant-position:normal;font-variant-caps:normal;font-variant-numeric:normal;font-variant-alternates:normal;font-variant-east-asian:normal;font-feature-settings:normal;font-variation-settings:normal;text-indent:0;text-decoration:none;text-decoration-line:none;text-decoration-style:solid;text-decoration-color:#000000;text-transform:none;text-orientation:mixed;white-space:normal;shape-padding:0;shape-margin:0;inline-size:0;isolation:auto;mix-blend-mode:normal"
           id="path498" />
        <path
           transform="matrix(0,-0.52917,-0.52917,0,292.94,265.9)"
           d="m 502.62,148 c 25.201,0 50.399,0.5187 75.6,1.5449 0.25406,3.7758 0.50961,7.5727 0.76368,11.387 h -152.73 c 0.25399,-3.814 0.50758,-7.6109 0.76172,-11.387 25.2,-1.0262 50.401,-1.5449 75.602,-1.5449 z"
           color="#000000"
           color-rendering="auto"
           dominant-baseline="auto"
           image-rendering="auto"
           solid-color="#000000"
           stop-color="#000000"
           style="font-variant-ligatures:normal;font-variant-position:normal;font-variant-caps:normal;font-variant-numeric:normal;font-variant-alternates:normal;font-variant-east-asian:normal;font-feature-settings:normal;font-variation-settings:normal;text-indent:0;text-decoration:none;text-decoration-line:none;text-decoration-style:solid;text-decoration-color:#000000;text-transform:none;text-orientation:mixed;white-space:normal;shape-padding:0;shape-margin:0;inline-size:0;isolation:auto;mix-blend-mode:normal"
           id="path500" />
        <path
           transform="matrix(0,-0.52917,-0.52917,0,292.94,265.9)"
           d="m 562.26,145.96 h 117.69 l 2.7422,1.2852 c -15.348,-0.1398 -30.873,-0.26921 -46.855,-0.37304 -9.1577,-0.0586 -18.425,-0.11096 -27.805,-0.15821 -9.3624,-0.047 -18.847,-0.0871 -28.338,-0.12109 -5.8125,-0.24092 -11.625,-0.44641 -17.438,-0.63281 z"
           color="#000000"
           color-rendering="auto"
           dominant-baseline="auto"
           image-rendering="auto"
           solid-color="#000000"
           stop-color="#000000"
           style="font-variant-ligatures:normal;font-variant-position:normal;font-variant-caps:normal;font-variant-numeric:normal;font-variant-alternates:normal;font-variant-east-asian:normal;font-feature-settings:normal;font-variation-settings:normal;text-indent:0;text-decoration:none;text-decoration-line:none;text-decoration-style:solid;text-decoration-color:#000000;text-transform:none;text-orientation:mixed;white-space:normal;shape-padding:0;shape-margin:0;inline-size:0;isolation:auto;mix-blend-mode:normal"
           id="path502" />
        <path
           transform="matrix(0,-0.52917,-0.52917,0,292.94,265.9)"
           d="m 325.29,145.96 h 117.7 c -5.8125,0.1864 -11.625,0.39189 -17.438,0.63281 -35.708,0.12977 -69.959,0.3507 -103,0.65234 z"
           color="#000000"
           color-rendering="auto"
           dominant-baseline="auto"
           image-rendering="auto"
           solid-color="#000000"
           stop-color="#000000"
           style="font-variant-ligatures:normal;font-variant-position:normal;font-variant-caps:normal;font-variant-numeric:normal;font-variant-alternates:normal;font-variant-east-asian:normal;font-feature-settings:normal;font-variation-settings:normal;text-indent:0;text-decoration:none;text-decoration-line:none;text-decoration-style:solid;text-decoration-color:#000000;text-transform:none;text-orientation:mixed;white-space:normal;shape-padding:0;shape-margin:0;inline-size:0;isolation:auto;mix-blend-mode:normal"
           id="path504" />
        <path
           transform="matrix(0,-0.52917,-0.52917,0,292.94,265.9)"
           d="m 324.95,144.46 h 0.002 v 0.006 z"
           color="#000000"
           color-rendering="auto"
           dominant-baseline="auto"
           image-rendering="auto"
           solid-color="#000000"
           stop-color="#000000"
           style="font-variant-ligatures:normal;font-variant-position:normal;font-variant-caps:normal;font-variant-numeric:normal;font-variant-alternates:normal;font-variant-east-asian:normal;font-feature-settings:normal;font-variation-settings:normal;text-indent:0;text-decoration:none;text-decoration-line:none;text-decoration-style:solid;text-decoration-color:#000000;text-transform:none;text-orientation:mixed;white-space:normal;shape-padding:0;shape-margin:0;inline-size:0;isolation:auto;mix-blend-mode:normal"
           id="path506" />
        <path
           transform="matrix(0,-0.52917,-0.52917,0,292.94,265.9)"
           d="m 326.45,36.957 h 352.34 v 106 H 326.45 Z"
           color="#000000"
           color-rendering="auto"
           dominant-baseline="auto"
           image-rendering="auto"
           solid-color="#000000"
           stop-color="#000000"
           style="font-variant-ligatures:normal;font-variant-position:normal;font-variant-caps:normal;font-variant-numeric:normal;font-variant-alternates:normal;font-variant-east-asian:normal;font-feature-settings:normal;font-variation-settings:normal;text-indent:0;text-decoration:none;text-decoration-line:none;text-decoration-style:solid;text-decoration-color:#000000;text-transform:none;text-orientation:mixed;white-space:normal;shape-padding:0;shape-margin:0;inline-size:0;isolation:auto;mix-blend-mode:normal"
           id="path508" />
        <path
           transform="matrix(0,-0.52917,-0.52917,0,292.94,265.9)"
           d="m 688.05,34.996 v 111.45 l -6.2559,-2.9336 v -106.89 z"
           color="#000000"
           color-rendering="auto"
           dominant-baseline="auto"
           image-rendering="auto"
           solid-color="#000000"
           stop-color="#000000"
           style="font-variant-ligatures:normal;font-variant-position:normal;font-variant-caps:normal;font-variant-numeric:normal;font-variant-alternates:normal;font-variant-east-asian:normal;font-feature-settings:normal;font-variation-settings:normal;text-indent:0;text-decoration:none;text-decoration-line:none;text-decoration-style:solid;text-decoration-color:#000000;text-transform:none;text-orientation:mixed;white-space:normal;shape-padding:0;shape-margin:0;inline-size:0;isolation:auto;mix-blend-mode:normal"
           id="path510" />
        <path
           transform="matrix(0,-0.52917,-0.52917,0,292.94,265.9)"
           d="m 317.2,34.996 6.252,1.6211 v 106.89 l -6.252,2.9316 z"
           color="#000000"
           color-rendering="auto"
           dominant-baseline="auto"
           image-rendering="auto"
           solid-color="#000000"
           stop-color="#000000"
           style="font-variant-ligatures:normal;font-variant-position:normal;font-variant-caps:normal;font-variant-numeric:normal;font-variant-alternates:normal;font-variant-east-asian:normal;font-feature-settings:normal;font-variation-settings:normal;text-indent:0;text-decoration:none;text-decoration-line:none;text-decoration-style:solid;text-decoration-color:#000000;text-transform:none;text-orientation:mixed;white-space:normal;shape-padding:0;shape-margin:0;inline-size:0;isolation:auto;mix-blend-mode:normal"
           id="path512" />
        <path
           transform="matrix(0,-0.52917,-0.52917,0,292.94,265.9)"
           d="m 296.97,-106.42 h 411.31 c 0.51721,45.446 0.24275,90.877 -0.82617,136.29 -1.0748,45.669 -2.9496,91.332 -5.5762,136.94 -2.281,1.5982 -4.5723,3.2051 -6.873,4.8164 l -7.2383,-0.98828 -7.8945,-1.0215 -7.9648,-0.97851 -8.0293,-0.9375 -8.0938,-0.88672 -8.1484,-0.83984 -8.209,-0.79493 -8.2617,-0.74804 -8.3066,-0.70508 -8.3613,-0.6543 -8.4004,-0.60937 -8.4375,-0.56055 -8.4785,-0.51367 -7.1816,-0.39258 c -0.25434,-3.8192 -0.50932,-7.6175 -0.76367,-11.398 8.9695,0.0328 17.936,0.0687 26.785,0.11328 9.378,0.0472 18.642,0.10158 27.799,0.16016 18.322,0.11904 36.228,0.26144 53.715,0.42773 l 0.0137,-1.5 h 1.5 v -115.75 h -1.498 l -0.008,-1.498 c -29.234,0.15496 -59.54,0.27219 -90.875,0.35156 -7.8312,0.02079 -15.735,0.03566 -23.707,0.05078 -7.9744,0.01512 -16.024,0.02766 -24.064,0.03711 -16.079,0.02003 -32.123,0.0293 -48.137,0.0293 -16.018,0 -32.004,-0.0085 -47.957,-0.0293 -7.973,-0.0094 -15.947,-0.02388 -23.914,-0.03711 -7.9692,-0.01512 -15.94,-0.03188 -23.844,-0.05078 -31.622,-0.07937 -62.067,-0.1966 -91.336,-0.35156 l -0.008,1.4902 -0.002,0.0078 h -1.5 v 115.75 h 1.5 v 0.002 l 0.0137,1.498 c 34.61,-0.33028 70.73,-0.5619 108.3,-0.70117 -0.25442,3.781 -0.5094,7.5792 -0.76367,11.398 l -7.1777,0.39258 -8.4785,0.51367 -8.4414,0.56055 -8.4004,0.60937 -8.3574,0.6543 -8.3106,0.70508 -8.2617,0.74804 -8.207,0.79493 -8.1504,0.83984 -8.0898,0.88672 -8.0312,0.9375 -7.9629,0.97851 -7.8945,1.0215 -7.2383,0.98828 c -2.302,-1.6114 -4.5956,-3.2181 -6.877,-4.8164 -2.6247,-45.605 -4.4993,-91.268 -5.5723,-136.94 -1.0708,-45.418 -1.3434,-90.849 -0.82617,-136.29 z"
           color="#000000"
           color-rendering="auto"
           dominant-baseline="auto"
           image-rendering="auto"
           solid-color="#000000"
           stop-color="#000000"
           style="font-variant-ligatures:normal;font-variant-position:normal;font-variant-caps:normal;font-variant-numeric:normal;font-variant-alternates:normal;font-variant-east-asian:normal;font-feature-settings:normal;font-variation-settings:normal;text-indent:0;text-decoration:none;text-decoration-line:none;text-decoration-style:solid;text-decoration-color:#000000;text-transform:none;text-orientation:mixed;white-space:normal;shape-padding:0;shape-margin:0;inline-size:0;isolation:auto;mix-blend-mode:normal"
           id="path514" />
        <path
           transform="matrix(0,-0.52917,-0.52917,0,292.94,265.9)"
           d="m 766.55,-248.75 h 2.9121 v 38.574 H 766.55 v -30.871 z"
           color="#000000"
           color-rendering="auto"
           dominant-baseline="auto"
           image-rendering="auto"
           solid-color="#000000"
           stop-color="#000000"
           style="font-variant-ligatures:normal;font-variant-position:normal;font-variant-caps:normal;font-variant-numeric:normal;font-variant-alternates:normal;font-variant-east-asian:normal;font-feature-settings:normal;font-variation-settings:normal;text-indent:0;text-decoration:none;text-decoration-line:none;text-decoration-style:solid;text-decoration-color:#000000;text-transform:none;text-orientation:mixed;white-space:normal;shape-padding:0;shape-margin:0;inline-size:0;isolation:auto;mix-blend-mode:normal"
           id="path516" />
        <path
           transform="matrix(0,-0.52917,-0.52917,0,292.94,265.9)"
           d="m 235.77,-248.75 h 2.9121 v 38.574 H 235.77 v -38.018 z"
           color="#000000"
           color-rendering="auto"
           dominant-baseline="auto"
           image-rendering="auto"
           solid-color="#000000"
           stop-color="#000000"
           style="font-variant-ligatures:normal;font-variant-position:normal;font-variant-caps:normal;font-variant-numeric:normal;font-variant-alternates:normal;font-variant-east-asian:normal;font-feature-settings:normal;font-variation-settings:normal;text-indent:0;text-decoration:none;text-decoration-line:none;text-decoration-style:solid;text-decoration-color:#000000;text-transform:none;text-orientation:mixed;white-space:normal;shape-padding:0;shape-margin:0;inline-size:0;isolation:auto;mix-blend-mode:normal"
           id="path518" />
        <path
           transform="matrix(0,-0.52917,-0.52917,0,292.94,265.9)"
           d="m 752.85,-399.97 c 0.48142,7.7811 0.94295,15.564 1.3652,23.354 l 1.5,-0.082 -0.78321,1.2812 8.625,5.2734 v 455.34 c -6e-5,2.4843 -0.12288,4.9248 -0.36523,7.3262 v 0.0039 c -0.1204,1.2057 -0.26711,2.3868 -0.43945,3.5488 -0.17235,1.1545 -0.36728,2.2729 -0.58203,3.3633 v 0.0039 c -0.42966,2.1835 -0.94096,4.2669 -1.502,6.2109 h -0.004 c -0.55917,1.946 -1.1635,3.7523 -1.8047,5.4629 -1.2823,3.417 -2.6986,6.4382 -4.1719,9.168 -0.60372,1.1186 -1.2174,2.1745 -1.8379,3.1973 v -485.92 z"
           color="#000000"
           color-rendering="auto"
           dominant-baseline="auto"
           image-rendering="auto"
           solid-color="#000000"
           stop-color="#000000"
           style="font-variant-ligatures:normal;font-variant-position:normal;font-variant-caps:normal;font-variant-numeric:normal;font-variant-alternates:normal;font-variant-east-asian:normal;font-feature-settings:normal;font-variation-settings:normal;text-indent:0;text-decoration:none;text-decoration-line:none;text-decoration-style:solid;text-decoration-color:#000000;text-transform:none;text-orientation:mixed;white-space:normal;shape-padding:0;shape-margin:0;inline-size:0;isolation:auto;mix-blend-mode:normal"
           id="path520" />
        <path
           transform="matrix(0,-0.52917,-0.52917,0,292.94,265.9)"
           d="m 252.39,-399.97 v 523.44 c -0.61935,-1.0216 -1.2319,-2.0764 -1.834,-3.1934 -1.4736,-2.7302 -2.8918,-5.7519 -4.1719,-9.168 -0.64123,-1.7106 -1.2473,-3.5161 -1.8086,-5.4629 -0.55939,-1.9449 -1.0742,-4.0306 -1.5059,-6.2148 -0.21475,-1.0904 -0.40578,-2.2068 -0.57813,-3.3613 -0.17196,-1.1593 -0.3209,-2.3433 -0.44336,-3.5508 v -0.0039 c -0.24036,-2.4003 -0.36325,-4.8431 -0.36523,-7.3262 v -455.34 l 8.625,-5.2734 -0.78125,-1.2812 1.498,0.082 c 0.42228,-7.789 0.88382,-15.572 1.3652,-23.354 z"
           color="#000000"
           color-rendering="auto"
           dominant-baseline="auto"
           image-rendering="auto"
           solid-color="#000000"
           stop-color="#000000"
           style="font-variant-ligatures:normal;font-variant-position:normal;font-variant-caps:normal;font-variant-numeric:normal;font-variant-alternates:normal;font-variant-east-asian:normal;font-feature-settings:normal;font-variation-settings:normal;text-indent:0;text-decoration:none;text-decoration-line:none;text-decoration-style:solid;text-decoration-color:#000000;text-transform:none;text-orientation:mixed;white-space:normal;shape-padding:0;shape-margin:0;inline-size:0;isolation:auto;mix-blend-mode:normal"
           id="path522" />
        <path
           transform="matrix(0,-0.52917,-0.52917,0,292.94,265.9)"
           d="m 307.58,-533.47 h 390.08 c 1.3941,25.873 2.6529,51.76 3.7774,77.66 5.0061,115.29 7.3027,230.8 6.8262,346.39 h -411.29 c -0.47846,-115.59 1.8161,-231.1 6.8223,-346.39 1.1256,-25.9 2.3902,-51.787 3.7832,-77.66 z"
           color="#000000"
           color-rendering="auto"
           dominant-baseline="auto"
           image-rendering="auto"
           solid-color="#000000"
           stop-color="#000000"
           style="font-variant-ligatures:normal;font-variant-position:normal;font-variant-caps:normal;font-variant-numeric:normal;font-variant-alternates:normal;font-variant-east-asian:normal;font-feature-settings:normal;font-variation-settings:normal;text-indent:0;text-decoration:none;text-decoration-line:none;text-decoration-style:solid;text-decoration-color:#000000;text-transform:none;text-orientation:mixed;white-space:normal;shape-padding:0;shape-margin:0;inline-size:0;isolation:auto;mix-blend-mode:normal"
           id="path524" />
        <path
           transform="matrix(0,-0.52917,-0.52917,0,292.94,265.9)"
           d="m 306.16,-534.97 v 0.002 h -0.004 z"
           color="#000000"
           color-rendering="auto"
           dominant-baseline="auto"
           image-rendering="auto"
           solid-color="#000000"
           stop-color="#000000"
           style="font-variant-ligatures:normal;font-variant-position:normal;font-variant-caps:normal;font-variant-numeric:normal;font-variant-alternates:normal;font-variant-east-asian:normal;font-feature-settings:normal;font-variation-settings:normal;text-indent:0;text-decoration:none;text-decoration-line:none;text-decoration-style:solid;text-decoration-color:#000000;text-transform:none;text-orientation:mixed;white-space:normal;shape-padding:0;shape-margin:0;inline-size:0;isolation:auto;mix-blend-mode:normal"
           id="path526" />
        <path
           transform="matrix(0,-0.52917,-0.52917,0,292.94,265.9)"
           d="m 699.08,-534.97 0.008,0.004 -0.008,0.002 z"
           color="#000000"
           color-rendering="auto"
           dominant-baseline="auto"
           image-rendering="auto"
           solid-color="#000000"
           stop-color="#000000"
           style="font-variant-ligatures:normal;font-variant-position:normal;font-variant-caps:normal;font-variant-numeric:normal;font-variant-alternates:normal;font-variant-east-asian:normal;font-feature-settings:normal;font-variation-settings:normal;text-indent:0;text-decoration:none;text-decoration-line:none;text-decoration-style:solid;text-decoration-color:#000000;text-transform:none;text-orientation:mixed;white-space:normal;shape-padding:0;shape-margin:0;inline-size:0;isolation:auto;mix-blend-mode:normal"
           id="path528" />
        <path
           transform="matrix(0,-0.52917,-0.52917,0,292.94,265.9)"
           d="M 304.64,-539.86 H 700.6 c -0.77035,1.1289 -1.5428,2.2537 -2.3105,3.3945 h -391.34 c -0.7673,-1.1409 -1.5401,-2.2657 -2.3106,-3.3945 z"
           color="#000000"
           color-rendering="auto"
           dominant-baseline="auto"
           image-rendering="auto"
           solid-color="#000000"
           stop-color="#000000"
           style="font-variant-ligatures:normal;font-variant-position:normal;font-variant-caps:normal;font-variant-numeric:normal;font-variant-alternates:normal;font-variant-east-asian:normal;font-feature-settings:normal;font-variation-settings:normal;text-indent:0;text-decoration:none;text-decoration-line:none;text-decoration-style:solid;text-decoration-color:#000000;text-transform:none;text-orientation:mixed;white-space:normal;shape-padding:0;shape-margin:0;inline-size:0;isolation:auto;mix-blend-mode:normal"
           id="path530" />
        <path
           transform="matrix(0,-0.52917,-0.52917,0,292.94,265.9)"
           d="m 728.85,-637.69 c 9.0054,64.135 16.035,128.89 20.998,194.08 v 571.63 c -4.9068,6.8878 -10.929,12.854 -17.779,17.652 l -3.2188,2.25 v -748.45 z"
           color="#000000"
           color-rendering="auto"
           dominant-baseline="auto"
           image-rendering="auto"
           solid-color="#000000"
           stop-color="#000000"
           style="font-variant-ligatures:normal;font-variant-position:normal;font-variant-caps:normal;font-variant-numeric:normal;font-variant-alternates:normal;font-variant-east-asian:normal;font-feature-settings:normal;font-variation-settings:normal;text-indent:0;text-decoration:none;text-decoration-line:none;text-decoration-style:solid;text-decoration-color:#000000;text-transform:none;text-orientation:mixed;white-space:normal;shape-padding:0;shape-margin:0;inline-size:0;isolation:auto;mix-blend-mode:normal"
           id="path532" />
        <path
           transform="matrix(0,-0.52917,-0.52917,0,292.94,265.9)"
           d="m 276.4,-637.71 v 785.63 l -3.2188,-2.25 c -6.8506,-4.7987 -12.876,-10.765 -17.783,-17.652 v -571.63 c 2.639,-34.665 5.8661,-69.206 9.6582,-103.6 0.26559,-2.4085 0.53341,-4.8168 0.80469,-7.2246 0.2564,-2.276 0.514,-4.5516 0.77539,-6.8262 0.25669,-2.2334 0.51771,-4.4664 0.7793,-6.6992 0.27271,-2.3281 0.54628,-4.6558 0.82422,-6.9824 0.27267,-2.2822 0.55034,-4.5641 0.82812,-6.8457 0.28775,-2.3637 0.57601,-4.7277 0.86914,-7.0898 0.25173,-2.0283 0.5079,-4.0562 0.76368,-6.084 0.31909,-2.53 0.63762,-5.0597 0.96289,-7.5879 0.29828,-2.3183 0.60268,-4.6355 0.90625,-6.9531 0.2774,-2.118 0.55225,-4.2368 0.83398,-6.3535 0.38858,-2.9194 0.78662,-5.8376 1.1836,-8.7559 0.22441,-1.6497 0.44681,-3.3003 0.67383,-4.9492 0.35761,-2.5972 0.72364,-5.1927 1.0879,-7.7891 0.017,-0.12109 0.0338,-0.2422 0.0508,-0.36328 z"
           color="#000000"
           color-rendering="auto"
           dominant-baseline="auto"
           image-rendering="auto"
           solid-color="#000000"
           stop-color="#000000"
           style="font-variant-ligatures:normal;font-variant-position:normal;font-variant-caps:normal;font-variant-numeric:normal;font-variant-alternates:normal;font-variant-east-asian:normal;font-feature-settings:normal;font-variation-settings:normal;text-indent:0;text-decoration:none;text-decoration-line:none;text-decoration-style:solid;text-decoration-color:#000000;text-transform:none;text-orientation:mixed;white-space:normal;shape-padding:0;shape-margin:0;inline-size:0;isolation:auto;mix-blend-mode:normal"
           id="path534" />
        <path
           transform="matrix(0,-0.52917,-0.52917,0,292.94,265.9)"
           d="m 698.11,-655.68 h 27.74 v 805.71 c -6.9474,4.8648 -13.895,9.7293 -20.846,14.596 2.5574,-44.852 4.3882,-89.761 5.4453,-134.68 0.54068,-22.973 0.87994,-45.947 1.0156,-68.928 0.13559,-22.971 0.0708,-45.949 -0.19922,-68.928 v -0.002 c 3e-5,-0.007 -3e-5,-0.013 0,-0.0195 -2e-5,-0.002 2e-5,-0.004 0,-0.006 0.50233,-116.13 -1.7949,-232.18 -6.8242,-348 -1.1381,-26.214 -2.4158,-52.413 -3.8301,-78.6 1.3516,-2.0095 2.7062,-4.0026 4.0664,-5.9746 l -1.2344,-0.85352 1.4961,-0.0723 c -1.8641,-38.107 -4.1449,-76.185 -6.8301,-114.24 z"
           color="#000000"
           color-rendering="auto"
           dominant-baseline="auto"
           image-rendering="auto"
           solid-color="#000000"
           stop-color="#000000"
           style="font-variant-ligatures:normal;font-variant-position:normal;font-variant-caps:normal;font-variant-numeric:normal;font-variant-alternates:normal;font-variant-east-asian:normal;font-feature-settings:normal;font-variation-settings:normal;text-indent:0;text-decoration:none;text-decoration-line:none;text-decoration-style:solid;text-decoration-color:#000000;text-transform:none;text-orientation:mixed;white-space:normal;shape-padding:0;shape-margin:0;inline-size:0;isolation:auto;mix-blend-mode:normal"
           id="path536" />
        <path
           transform="matrix(0,-0.52917,-0.52917,0,292.94,265.9)"
           d="m 279.4,-655.68 h 27.734 c -2.6852,38.053 -4.966,76.131 -6.8301,114.24 l 1.498,0.0723 v 0.002 l -1.2324,0.85156 c 1.3603,1.9705 2.7133,3.9627 4.0625,5.9707 -1.4131,26.188 -2.6907,52.388 -3.8301,78.604 -5.0297,115.83 -7.325,231.9 -6.8203,348.03 -0.54025,45.966 -0.27054,91.918 0.8125,137.86 1.0553,44.916 2.8932,89.826 5.4492,134.68 -6.9507,-4.8661 -13.898,-9.7312 -20.844,-14.596 v -750.55 z"
           color="#000000"
           color-rendering="auto"
           dominant-baseline="auto"
           image-rendering="auto"
           solid-color="#000000"
           stop-color="#000000"
           style="font-variant-ligatures:normal;font-variant-position:normal;font-variant-caps:normal;font-variant-numeric:normal;font-variant-alternates:normal;font-variant-east-asian:normal;font-feature-settings:normal;font-variation-settings:normal;text-indent:0;text-decoration:none;text-decoration-line:none;text-decoration-style:solid;text-decoration-color:#000000;text-transform:none;text-orientation:mixed;white-space:normal;shape-padding:0;shape-margin:0;inline-size:0;isolation:auto;mix-blend-mode:normal"
           id="path538" />
        <path
           transform="matrix(0,-0.52917,-0.52917,0,292.94,265.9)"
           d="m 242.79,-676.69 h 38.207 l -2.5273,16.18 -1.9219,2.2305 1.1172,0.96289 v 0.0137 l -1.4512,-0.28906 -0.004,0.008 0.92774,0.18555 -0.92774,-0.16797 c -0.0117,0.0628 -0.0187,0.11458 -0.0273,0.17383 h -0.002 c -0.67978,4.6278 -1.3487,9.2601 -2.0078,13.895 -0.11866,0.83437 -0.23162,1.6694 -0.34961,2.5039 -0.52265,3.6966 -1.0432,7.393 -1.5527,11.094 -0.22554,1.6382 -0.44312,3.2775 -0.66601,4.916 -0.39796,2.9255 -0.79584,5.8513 -1.1856,8.7793 -0.25957,1.9501 -0.5137,3.9009 -0.76953,5.8516 -0.33472,2.5523 -0.66961,5.104 -0.99805,7.6582 -0.2616,2.0342 -0.51786,4.0688 -0.77539,6.1035 -0.33756,2.6672 -0.67516,5.3347 -1.0059,8.0039 -0.23896,1.9286 -0.47172,3.8581 -0.70703,5.7871 -0.31088,2.5488 -0.62116,5.0979 -0.92578,7.6484 -0.2613,2.1877 -0.5188,4.3762 -0.77539,6.5645 -0.28277,2.4115 -0.56464,4.8232 -0.8418,7.2363 -0.24225,2.1092 -0.48087,4.2184 -0.71875,6.3281 -0.2904,2.5753 -0.57733,5.1515 -0.86133,7.7285 -0.0633,0.57442 -0.13038,1.1482 -0.19336,1.7227 h -19.057 z"
           color="#000000"
           color-rendering="auto"
           dominant-baseline="auto"
           image-rendering="auto"
           solid-color="#000000"
           stop-color="#000000"
           style="font-variant-ligatures:normal;font-variant-position:normal;font-variant-caps:normal;font-variant-numeric:normal;font-variant-alternates:normal;font-variant-east-asian:normal;font-feature-settings:normal;font-variation-settings:normal;text-indent:0;text-decoration:none;text-decoration-line:none;text-decoration-style:solid;text-decoration-color:#000000;text-transform:none;text-orientation:mixed;white-space:normal;shape-padding:0;shape-margin:0;inline-size:0;isolation:auto;mix-blend-mode:normal"
           id="path540" />
        <path
           transform="matrix(0,-0.52917,-0.52917,0,292.94,265.9)"
           d="m 282.72,-678.19 0.0137,0.002 H 282.72 Z"
           color="#000000"
           color-rendering="auto"
           dominant-baseline="auto"
           image-rendering="auto"
           solid-color="#000000"
           stop-color="#000000"
           style="font-variant-ligatures:normal;font-variant-position:normal;font-variant-caps:normal;font-variant-numeric:normal;font-variant-alternates:normal;font-variant-east-asian:normal;font-feature-settings:normal;font-variation-settings:normal;text-indent:0;text-decoration:none;text-decoration-line:none;text-decoration-style:solid;text-decoration-color:#000000;text-transform:none;text-orientation:mixed;white-space:normal;shape-padding:0;shape-margin:0;inline-size:0;isolation:auto;mix-blend-mode:normal"
           id="path542" />
        <path
           transform="matrix(0,-0.52917,-0.52917,0,292.94,265.9)"
           d="m 481.41,-715.51 h 42.42 c -0.72448,4.8878 -1.5228,9.7569 -2.4551,14.59 -1.0435,5.4011 -2.2283,10.758 -3.6641,16.045 v 0.004 c -0.71088,2.6384 -1.5045,5.256 -2.3809,7.8574 -0.88001,2.5895 -1.857,5.159 -2.9902,7.6328 v 0.004 c -0.55834,1.2257 -1.1687,2.4256 -1.8301,3.5977 l -0.004,0.004 c -0.66113,1.1624 -1.3759,2.2757 -2.1816,3.3144 -0.80676,1.0401 -1.6808,1.9722 -2.6641,2.6719 h -0.004 v 0.004 c -0.49174,0.35074 -0.99571,0.63562 -1.5059,0.82422 -0.51015,0.18858 -1.0468,0.28509 -1.5547,0.2832 -0.50516,-0.003 -1.0378,-0.10775 -1.5469,-0.30273 l -0.002,-0.004 c -0.50875,-0.19343 -1.0144,-0.48062 -1.5039,-0.83398 h -0.002 c -0.97789,-0.7043 -1.847,-1.6352 -2.6504,-2.6758 -0.80167,-1.0366 -1.5183,-2.1535 -2.1777,-3.3164 v -0.004 c -0.65931,-1.1707 -1.2697,-2.3691 -1.8242,-3.5879 v -0.004 c -1.1237,-2.455 -2.0958,-5.018 -2.9785,-7.6152 -0.87721,-2.6032 -1.6742,-5.2229 -2.3848,-7.8613 v -0.004 c -1.4358,-5.2891 -2.6211,-10.646 -3.6641,-16.045 -0.93169,-4.8292 -1.7277,-9.694 -2.4512,-14.578 z"
           color="#000000"
           color-rendering="auto"
           dominant-baseline="auto"
           image-rendering="auto"
           solid-color="#000000"
           stop-color="#000000"
           style="font-variant-ligatures:normal;font-variant-position:normal;font-variant-caps:normal;font-variant-numeric:normal;font-variant-alternates:normal;font-variant-east-asian:normal;font-feature-settings:normal;font-variation-settings:normal;text-indent:0;text-decoration:none;text-decoration-line:none;text-decoration-style:solid;text-decoration-color:#000000;text-transform:none;text-orientation:mixed;white-space:normal;shape-padding:0;shape-margin:0;inline-size:0;isolation:auto;mix-blend-mode:normal"
           id="path544" />
        <path
           transform="matrix(0,-0.52917,-0.52917,0,292.94,265.9)"
           d="m 525.58,-717.02 0.002,0.006 h -0.002 z"
           color="#000000"
           color-rendering="auto"
           dominant-baseline="auto"
           image-rendering="auto"
           solid-color="#000000"
           stop-color="#000000"
           style="font-variant-ligatures:normal;font-variant-position:normal;font-variant-caps:normal;font-variant-numeric:normal;font-variant-alternates:normal;font-variant-east-asian:normal;font-feature-settings:normal;font-variation-settings:normal;text-indent:0;text-decoration:none;text-decoration-line:none;text-decoration-style:solid;text-decoration-color:#000000;text-transform:none;text-orientation:mixed;white-space:normal;shape-padding:0;shape-margin:0;inline-size:0;isolation:auto;mix-blend-mode:normal"
           id="path546" />
        <path
           transform="matrix(0,-0.52917,-0.52917,0,292.94,265.9)"
           d="m 459.68,-727.01 h 85.893 c -6.3968,3.5384 -13.094,6.4374 -20.201,8.4922 h -45.49 c -7.1072,-2.0548 -13.804,-4.9538 -20.201,-8.4922 z"
           color="#000000"
           color-rendering="auto"
           dominant-baseline="auto"
           image-rendering="auto"
           solid-color="#000000"
           stop-color="#000000"
           style="font-variant-ligatures:normal;font-variant-position:normal;font-variant-caps:normal;font-variant-numeric:normal;font-variant-alternates:normal;font-variant-east-asian:normal;font-feature-settings:normal;font-variation-settings:normal;text-indent:0;text-decoration:none;text-decoration-line:none;text-decoration-style:solid;text-decoration-color:#000000;text-transform:none;text-orientation:mixed;white-space:normal;shape-padding:0;shape-margin:0;inline-size:0;isolation:auto;mix-blend-mode:normal"
           id="path548" />
        <path
           transform="matrix(0,-0.52917,-0.52917,0,292.94,265.9)"
           d="m 608.26,-728.59 h 104.87 l 10.496,67.23 h -101.04 c -4.9174,-22.39 -9.6955,-44.8 -14.332,-67.23 z"
           color="#000000"
           color-rendering="auto"
           dominant-baseline="auto"
           image-rendering="auto"
           solid-color="#000000"
           stop-color="#000000"
           style="font-variant-ligatures:normal;font-variant-position:normal;font-variant-caps:normal;font-variant-numeric:normal;font-variant-alternates:normal;font-variant-east-asian:normal;font-feature-settings:normal;font-variation-settings:normal;text-indent:0;text-decoration:none;text-decoration-line:none;text-decoration-style:solid;text-decoration-color:#000000;text-transform:none;text-orientation:mixed;white-space:normal;shape-padding:0;shape-margin:0;inline-size:0;isolation:auto;mix-blend-mode:normal"
           id="path550" />
        <path
           transform="matrix(0,-0.52917,-0.52917,0,292.94,265.9)"
           d="m 292.11,-728.59 h 104.87 c -4.6366,22.431 -9.4166,44.84 -14.334,67.23 h -101 l 2.5605,-16.395 -1.4805,-0.23242 h 1.3418 l 0.13867,0.0215 0.004,-0.0215 h 0.0137 v -0.0918 z"
           color="#000000"
           color-rendering="auto"
           dominant-baseline="auto"
           image-rendering="auto"
           solid-color="#000000"
           stop-color="#000000"
           style="font-variant-ligatures:normal;font-variant-position:normal;font-variant-caps:normal;font-variant-numeric:normal;font-variant-alternates:normal;font-variant-east-asian:normal;font-feature-settings:normal;font-variation-settings:normal;text-indent:0;text-decoration:none;text-decoration-line:none;text-decoration-style:solid;text-decoration-color:#000000;text-transform:none;text-orientation:mixed;white-space:normal;shape-padding:0;shape-margin:0;inline-size:0;isolation:auto;mix-blend-mode:normal"
           id="path552" />
        <path
           transform="matrix(0,-0.52917,-0.52917,0,292.94,265.9)"
           d="m 402.65,-730.95 h 49.838 l 0.13281,2.5234 1.4941,-0.0781 v 0.006 l -0.78515,1.2734 c 7.8016,4.8078 16.08,8.7154 24.994,11.371 0.75766,5.1837 1.6004,10.352 2.5918,15.49 1.0531,5.4518 2.2562,10.883 3.7168,16.264 l -0.004,-0.004 c 0.72669,2.6983 1.5386,5.3813 2.4355,8.043 v 0.002 h 0.004 c 0.90602,2.6661 1.9138,5.3244 3.0938,7.9024 0.58983,1.2963 1.2354,2.5681 1.9375,3.8144 v 0.002 h 0.004 c 0.71103,1.2546 1.5006,2.5005 2.4141,3.6816 0.91201,1.181 1.9654,2.3342 3.2695,3.2734 0.65102,0.46995 1.3774,0.89789 2.1894,1.207 0.81304,0.31145 1.6907,0.49629 2.6016,0.50196 0.9082,0.005 1.7906,-0.16994 2.6094,-0.47266 0.81873,-0.3027 1.5528,-0.7259 2.2109,-1.1953 1.3165,-0.93685 2.3779,-2.0931 3.2949,-3.2754 0.91704,-1.1823 1.7083,-2.4209 2.4219,-3.6758 l 0.004,-0.004 c 0.70453,-1.2482 1.355,-2.526 1.9492,-3.8301 1.1897,-2.5969 2.2001,-5.2631 3.1035,-7.9219 v -0.004 h 0.004 c 0.89562,-2.6586 1.7049,-5.338 2.4316,-8.0352 1.4606,-5.3787 2.6592,-10.808 3.7129,-16.262 0.99204,-5.1428 1.8406,-10.316 2.5996,-15.504 8.9125,-2.6557 17.189,-6.5618 24.99,-11.369 l -0.78516,-1.2754 v -0.004 l 1.498,0.0781 0.13281,-2.5234 h 49.834 c 0.83024,0.57952 1.6562,1.1636 2.4805,1.75 4.7992,23.244 9.749,46.465 14.85,69.666 l 1.4648,-0.32226 v 0.006 l -0.49415,1.4121 c 2.4894,0.87025 4.966,1.7588 7.4297,2.668 l 0.51758,-1.4043 v 1.498 h 66.268 c 2.653,37.577 4.902,75.183 6.7539,112.81 h -398.48 c 1.852,-37.63 4.1027,-75.235 6.7559,-112.81 h 66.264 v -1.5039 l 0.52149,1.4102 c 2.4636,-0.90913 4.9364,-1.7977 7.4258,-2.668 l -0.49414,-1.4121 v -0.006 l 1.4648,0.32226 c 5.1006,-23.201 10.05,-46.422 14.85,-69.666 0.82427,-0.58642 1.6503,-1.1705 2.4805,-1.75 z"
           color="#000000"
           color-rendering="auto"
           dominant-baseline="auto"
           image-rendering="auto"
           solid-color="#000000"
           stop-color="#000000"
           style="font-variant-ligatures:normal;font-variant-position:normal;font-variant-caps:normal;font-variant-numeric:normal;font-variant-alternates:normal;font-variant-east-asian:normal;font-feature-settings:normal;font-variation-settings:normal;text-indent:0;text-decoration:none;text-decoration-line:none;text-decoration-style:solid;text-decoration-color:#000000;text-transform:none;text-orientation:mixed;white-space:normal;shape-padding:0;shape-margin:0;inline-size:0;isolation:auto;mix-blend-mode:normal"
           id="path554" />
        <path
           transform="matrix(0,-0.52917,-0.52917,0,292.94,265.9)"
           d="m 551.09,-762.57 h 147 l 14.002,30.982 h -105.2 c -0.98762,-0.70334 -1.9764,-1.4043 -2.9727,-2.0976 l -0.85547,1.2305 v -1.5 h -20.941 c -5.1802,-5.7215 -10.56,-11.242 -16.238,-16.453 -4.6868,-4.2993 -9.5842,-8.3894 -14.791,-12.162 z"
           color="#000000"
           color-rendering="auto"
           dominant-baseline="auto"
           image-rendering="auto"
           solid-color="#000000"
           stop-color="#000000"
           style="font-variant-ligatures:normal;font-variant-position:normal;font-variant-caps:normal;font-variant-numeric:normal;font-variant-alternates:normal;font-variant-east-asian:normal;font-feature-settings:normal;font-variation-settings:normal;text-indent:0;text-decoration:none;text-decoration-line:none;text-decoration-style:solid;text-decoration-color:#000000;text-transform:none;text-orientation:mixed;white-space:normal;shape-padding:0;shape-margin:0;inline-size:0;isolation:auto;mix-blend-mode:normal"
           id="path556" />
        <path
           transform="matrix(0,-0.52917,-0.52917,0,292.94,265.9)"
           d="m 307.15,-762.57 h 147 c -5.2077,3.7727 -10.108,7.8628 -14.795,12.162 -5.6786,5.2109 -11.058,10.732 -16.238,16.453 h -20.939 v 1.502 l -0.85742,-1.2324 c -0.99617,0.69337 -1.985,1.3943 -2.9726,2.0976 h -105.2 z"
           color="#000000"
           color-rendering="auto"
           dominant-baseline="auto"
           image-rendering="auto"
           solid-color="#000000"
           stop-color="#000000"
           style="font-variant-ligatures:normal;font-variant-position:normal;font-variant-caps:normal;font-variant-numeric:normal;font-variant-alternates:normal;font-variant-east-asian:normal;font-feature-settings:normal;font-variation-settings:normal;text-indent:0;text-decoration:none;text-decoration-line:none;text-decoration-style:solid;text-decoration-color:#000000;text-transform:none;text-orientation:mixed;white-space:normal;shape-padding:0;shape-margin:0;inline-size:0;isolation:auto;mix-blend-mode:normal"
           id="path558" />
        <path
           transform="matrix(0,-0.52917,-0.52917,0,292.94,265.9)"
           d="m 502.62,-763.42 c 14.41,0 28.82,0.2805 43.23,0.83985 6.4071,4.3338 12.349,9.198 18.008,14.389 4.929,4.5231 9.6296,9.2997 14.188,14.242 h -26.715 v 1.5039 l -1.498,-0.0781 -0.13281,2.5215 h -94.162 l -0.13086,-2.5215 -1.4961,0.0762 v -1.502 h -26.719 c 4.5587,-4.9425 9.2624,-9.7191 14.191,-14.242 5.6587,-5.1907 11.597,-10.055 18.004,-14.389 14.411,-0.55939 28.822,-0.83985 43.232,-0.83985 z"
           color="#000000"
           color-rendering="auto"
           dominant-baseline="auto"
           image-rendering="auto"
           solid-color="#000000"
           stop-color="#000000"
           style="font-variant-ligatures:normal;font-variant-position:normal;font-variant-caps:normal;font-variant-numeric:normal;font-variant-alternates:normal;font-variant-east-asian:normal;font-feature-settings:normal;font-variation-settings:normal;text-indent:0;text-decoration:none;text-decoration-line:none;text-decoration-style:solid;text-decoration-color:#000000;text-transform:none;text-orientation:mixed;white-space:normal;shape-padding:0;shape-margin:0;inline-size:0;isolation:auto;mix-blend-mode:normal"
           id="path560" />
        <path
           transform="matrix(0,-0.52917,-0.52917,0,292.94,265.9)"
           d="m 233.69,-780.95 h 6.709 v 102.76 h -0.60937 v 134.11 h 0.60937 v 85.609 h -6.709 z"
           color="#000000"
           color-rendering="auto"
           dominant-baseline="auto"
           image-rendering="auto"
           solid-color="#000000"
           stop-color="#000000"
           style="font-variant-ligatures:normal;font-variant-position:normal;font-variant-caps:normal;font-variant-numeric:normal;font-variant-alternates:normal;font-variant-east-asian:normal;font-feature-settings:normal;font-variation-settings:normal;text-indent:0;text-decoration:none;text-decoration-line:none;text-decoration-style:solid;text-decoration-color:#000000;text-transform:none;text-orientation:mixed;white-space:normal;shape-padding:0;shape-margin:0;inline-size:0;isolation:auto;mix-blend-mode:normal"
           id="path562" />
        <path
           transform="matrix(0,-0.52917,-0.52917,0,292.94,265.9)"
           d="m 113.49,-780.95 h 117.2 v 322.48 h -117.2 z"
           color="#000000"
           color-rendering="auto"
           dominant-baseline="auto"
           image-rendering="auto"
           solid-color="#000000"
           stop-color="#000000"
           style="font-variant-ligatures:normal;font-variant-position:normal;font-variant-caps:normal;font-variant-numeric:normal;font-variant-alternates:normal;font-variant-east-asian:normal;font-feature-settings:normal;font-variation-settings:normal;text-indent:0;text-decoration:none;text-decoration-line:none;text-decoration-style:solid;text-decoration-color:#000000;text-transform:none;text-orientation:mixed;white-space:normal;shape-padding:0;shape-margin:0;inline-size:0;isolation:auto;mix-blend-mode:normal"
           id="path564" />
        <path
           transform="matrix(0,-0.52917,-0.52917,0,292.94,265.9)"
           d="m 104.38,-780.95 h 6.1113 v 322.48 H 104.38 Z"
           color="#000000"
           color-rendering="auto"
           dominant-baseline="auto"
           image-rendering="auto"
           solid-color="#000000"
           stop-color="#000000"
           style="font-variant-ligatures:normal;font-variant-position:normal;font-variant-caps:normal;font-variant-numeric:normal;font-variant-alternates:normal;font-variant-east-asian:normal;font-feature-settings:normal;font-variation-settings:normal;text-indent:0;text-decoration:none;text-decoration-line:none;text-decoration-style:solid;text-decoration-color:#000000;text-transform:none;text-orientation:mixed;white-space:normal;shape-padding:0;shape-margin:0;inline-size:0;isolation:auto;mix-blend-mode:normal"
           id="path566" />
        <path
           transform="matrix(0,-0.52917,-0.52917,0,292.94,265.9)"
           d="m 316.68,-796.9 h 177.94 c 5.3324,0.30659 10.666,0.30674 15.998,0 h 177.94 l 3.5137,30.418 h -378.9 z"
           color="#000000"
           color-rendering="auto"
           dominant-baseline="auto"
           image-rendering="auto"
           solid-color="#000000"
           stop-color="#000000"
           style="font-variant-ligatures:normal;font-variant-position:normal;font-variant-caps:normal;font-variant-numeric:normal;font-variant-alternates:normal;font-variant-east-asian:normal;font-feature-settings:normal;font-variation-settings:normal;text-indent:0;text-decoration:none;text-decoration-line:none;text-decoration-style:solid;text-decoration-color:#000000;text-transform:none;text-orientation:mixed;white-space:normal;shape-padding:0;shape-margin:0;inline-size:0;isolation:auto;mix-blend-mode:normal"
           id="path568" />
        <path
           transform="matrix(0,-0.52917,-0.52917,0,292.94,265.9)"
           d="m 502.62,-806.11 h 0.002 c 0.0771,2e-4 0.17528,0.0168 0.28125,0.0469 0.0439,0.0127 0.0922,0.0386 0.13867,0.0566 0.0677,0.0261 0.13567,0.0502 0.20508,0.0879 0.21178,0.1159 0.43669,0.28924 0.67578,0.51954 0.0572,0.055 0.10822,0.12542 0.16406,0.18359 0.18348,0.19191 0.36442,0.38971 0.53516,0.61328 0.0797,0.10373 0.15311,0.22227 0.23047,0.33203 0.15433,0.21986 0.31012,0.43612 0.45703,0.67578 0.53592,0.87824 0.99329,1.8224 1.4258,2.791 h -8.2324 c 0.43515,-0.97609 0.89606,-1.9281 1.4375,-2.8125 h -0.004 c 0.42697,-0.6954 0.87694,-1.3062 1.3828,-1.7891 v -0.004 h 0.004 c 0.25113,-0.24117 0.49219,-0.42341 0.7168,-0.53906 0.22045,-0.11335 0.43629,-0.16296 0.58008,-0.16211 z"
           color="#000000"
           color-rendering="auto"
           dominant-baseline="auto"
           image-rendering="auto"
           solid-color="#000000"
           stop-color="#000000"
           style="font-variant-ligatures:normal;font-variant-position:normal;font-variant-caps:normal;font-variant-numeric:normal;font-variant-alternates:normal;font-variant-east-asian:normal;font-feature-settings:normal;font-variation-settings:normal;text-indent:0;text-decoration:none;text-decoration-line:none;text-decoration-style:solid;text-decoration-color:#000000;text-transform:none;text-orientation:mixed;white-space:normal;shape-padding:0;shape-margin:0;inline-size:0;isolation:auto;mix-blend-mode:normal"
           id="path570" />
        <path
           transform="matrix(0,-0.52917,-0.52917,0,292.94,265.9)"
           d="m 319.91,-815.49 h 156.22 l 3.6621,0.4375 3.7871,0.38086 3.7988,0.31054 3.8047,0.24415 3.8105,0.17187 3.8164,0.10742 3.8164,0.0332 3.8164,-0.0332 3.8125,-0.10742 3.8125,-0.17187 3.8047,-0.24415 3.7949,-0.31054 3.7871,-0.38086 3.6621,-0.4375 h 156.22 l 1.9629,14.357 h -177.43 c -0.11164,-0.26548 -0.21586,-0.53375 -0.33203,-0.79687 l -0.0176,0.008 c -0.48237,-1.0933 -1.0021,-2.1824 -1.6465,-3.2383 v -0.004 c -0.0435,-0.071 -0.0997,-0.14168 -0.14453,-0.21289 l 0.008,-0.004 c -0.11398,-0.18056 -0.25063,-0.36054 -0.375,-0.54101 -0.12336,-0.17919 -0.23535,-0.3584 -0.37109,-0.53516 -0.0736,-0.0958 -0.15277,-0.18867 -0.23047,-0.2832 -0.0774,-0.0942 -0.15255,-0.18862 -0.23438,-0.28125 -0.0617,-0.0698 -0.13089,-0.13636 -0.19531,-0.20508 -0.10153,-0.10843 -0.19802,-0.21906 -0.30664,-0.32422 -0.33997,-0.32913 -0.75293,-0.65729 -1.2363,-0.9375 l 0.008,-0.0117 c -0.0409,-0.0237 -0.087,-0.0417 -0.12891,-0.0644 -0.0193,-0.0105 -0.0332,-0.0249 -0.0527,-0.0352 -0.0515,-0.0271 -0.10716,-0.0506 -0.16015,-0.0762 -0.0671,-0.0324 -0.13369,-0.0641 -0.20313,-0.0937 -0.10697,-0.0457 -0.21772,-0.085 -0.33007,-0.12304 -0.0561,-0.019 -0.11057,-0.0398 -0.16797,-0.0566 -0.14072,-0.0413 -0.28702,-0.0729 -0.43555,-0.0996 -0.0357,-0.006 -0.0693,-0.016 -0.10547,-0.0215 -0.18181,-0.0276 -0.36768,-0.0454 -0.56055,-0.0469 -0.005,-5e-5 -0.0103,0.002 -0.0156,0.002 -0.005,-2e-5 -0.009,-0.002 -0.0137,-0.002 v 0.002 c -0.72949,-6e-4 -1.389,0.20185 -1.9531,0.49219 -0.56758,0.2921 -1.028,0.66674 -1.418,1.041 -0.77716,0.74175 -1.3659,1.5762 -1.8672,2.3926 v 0.004 c -0.80698,1.3182 -1.4313,2.6865 -2.002,4.0527 h -177.44 z"
           color="#000000"
           color-rendering="auto"
           dominant-baseline="auto"
           image-rendering="auto"
           solid-color="#000000"
           stop-color="#000000"
           style="font-variant-ligatures:normal;font-variant-position:normal;font-variant-caps:normal;font-variant-numeric:normal;font-variant-alternates:normal;font-variant-east-asian:normal;font-feature-settings:normal;font-variation-settings:normal;text-indent:0;text-decoration:none;text-decoration-line:none;text-decoration-style:solid;text-decoration-color:#000000;text-transform:none;text-orientation:mixed;white-space:normal;shape-padding:0;shape-margin:0;inline-size:0;isolation:auto;mix-blend-mode:normal"
           id="path572" />
        <path
           transform="matrix(0,-0.52917,-0.52917,0,292.94,265.9)"
           d="m 318.6,-818.49 v 1.5 l -1.4883,-0.20312 -2.3223,16.992 -0.66406,0.92969 1.2227,0.86914 -1.4883,-0.17187 -3.7344,32.301 -4.2012,0.72265 0.25586,1.4805 -1.3672,-0.61718 -15.357,33.979 1.3652,0.61914 -1.4805,-0.23047 -7.9043,50.625 h -38.031 v -102.76 h -1.5039 v -1.498 h -139.02 v 1.498 h -1.498 v 325.48 h 1.498 v 1.498 h 139.02 v -1.498 h 1.5039 v -85.604 h 18.125 c -3.5637,32.802 -6.6154,65.738 -9.1309,98.787 -1.6779,22.04 -3.1183,44.111 -4.3223,66.213 l -8.6699,5.2988 0.78125,1.2812 h -1.502 v 119.24 h -4.4102 v 1.502 h -1.502 v 41.574 h 1.502 v 1.498 h 4.4102 v 292.36 c 0.002,2.5826 0.13016,5.1258 0.38086,7.6289 0.12691,1.2517 0.2816,2.4802 0.46093,3.6895 v 0.0039 c 0.17915,1.2001 0.38178,2.3681 0.60547,3.5039 0.44895,2.2718 0.98243,4.4393 1.5645,6.4629 0.58393,2.0255 1.2163,3.9056 1.8828,5.6836 1.3315,3.5533 2.8106,6.704 4.3418,9.541 1.5303,2.839 3.1192,5.3615 4.7461,7.6777 5.1559,7.3339 11.533,13.669 18.791,18.754 v 0.002 l 5.5762,3.9023 c 8.0013,5.6038 16.006,11.21 24.014,16.816 2.6383,1.8483 5.291,3.7063 7.957,5.5723 l 0.002,-0.002 30.906,21.643 0.83789,-1.1973 -0.8125,1.2148 1.5625,1.0449 1.6309,0.99023 1.6758,0.91797 1.7129,0.8457 1.75,0.76758 1.7774,0.69336 1.8086,0.61328 1.8359,0.53516 1.8555,0.45312 1.8711,0.37305 1.8867,0.29297 1.9004,0.20508 1.9043,0.12695 1.8789,0.0391 0.0293,-1.4062 v 1.4062 h 275.2 v -1.5 l 0.0332,1.5 1.875,-0.0391 1.9043,-0.12695 1.9004,-0.20508 1.8867,-0.29297 1.875,-0.37305 1.8535,-0.45312 1.834,-0.53516 1.8086,-0.61328 1.7832,-0.69336 1.7441,-0.76758 1.7129,-0.8457 1.6758,-0.91797 1.6328,-0.99023 1.5606,-1.0449 -0.85351,-1.2773 0.88281,1.2598 30.908,-21.645 c 2.6647,-1.8659 5.3149,-3.7201 7.9531,-5.5684 8.0076,-5.6063 16.011,-11.213 24.014,-16.816 l 5.5801,-3.9023 v -0.002 c 7.2586,-5.0845 13.631,-11.42 18.787,-18.754 1.6295,-2.3171 3.2183,-4.8397 4.75,-7.6777 1.5314,-2.8374 3.0087,-5.9886 4.3418,-9.541 0.66648,-1.778 1.3006,-3.6612 1.8828,-5.6875 l -0.004,0.004 c 0.5839,-2.0234 1.1174,-4.1916 1.5644,-6.4629 0.22369,-1.1358 0.42632,-2.3038 0.60547,-3.5039 l 0.004,-0.0039 c 0.17913,-1.2077 0.33174,-2.4347 0.45703,-3.6895 0.2526,-2.5038 0.38086,-5.0455 0.38086,-7.6289 v -292.36 h 4.4141 v -1.498 h 1.498 v -41.574 h -1.498 v -1.502 h -4.4141 v -119.24 h -1.5039 l 0.7832,-1.2812 -8.6699,-5.2988 c -1.204,-22.102 -2.6444,-44.173 -4.3223,-66.213 -5.466,-71.812 -13.43,-143.1 -23.787,-213.61 l -1.4707,0.2168 h -0.0137 v -0.002 l 1.4844,-0.21484 -0.0254,-0.16992 -1.459,0.21484 v -0.0195 l 1.1113,-0.95508 -1.8828,-2.1836 -10.896,-69.809 -1.4805,0.23047 1.3672,-0.61914 -15.357,-33.979 -1.3691,0.61718 v -0.0117 l 0.25391,-1.4688 -4.2012,-0.72265 -3.7344,-32.301 -1.4883,0.17187 v -0.002 l 1.2226,-0.86719 -0.66406,-0.93554 -2.3223,-16.986 -1.4883,0.20312 v -1.5 h -367.09 z"
           color="#000000"
           color-rendering="auto"
           dominant-baseline="auto"
           image-rendering="auto"
           solid-color="#000000"
           stop-color="#000000"
           style="font-variant-ligatures:normal;font-variant-position:normal;font-variant-caps:normal;font-variant-numeric:normal;font-variant-alternates:normal;font-variant-east-asian:normal;font-feature-settings:normal;font-variation-settings:normal;text-indent:0;text-decoration:none;text-decoration-line:none;text-decoration-style:solid;text-decoration-color:#000000;text-transform:none;text-orientation:mixed;white-space:normal;shape-padding:0;shape-margin:0;inline-size:0;isolation:auto;mix-blend-mode:normal"
           id="path574" />
      </g>
    </g>
    <g
       transform="matrix(0,-0.5,0.5,0,-341.93,598.67)"
       fill="none"
       stroke="#000000"
       stroke-width="1.5875"
       id="g888">
      <g
         transform="scale(1,-1)"
         fill="none"
         stroke="#000000"
         stroke-width="1.5875"
         id="g886">
        <path
           d="m 642.11,-117.94 -1.328,-1.144"
           id="path580" />
        <path
           d="m 697.74,101.08 -0.484,2.809"
           id="path582" />
        <path
           d="m 697.74,-101.21 -0.484,-2.809"
           id="path584" />
        <path
           d="m 697.25,-104.02 -17.982,-8.127"
           id="path586" />
        <path
           d="m 697.25,103.88 -17.982,8.126"
           id="path588" />
        <path
           d="m 679.27,-112.14 -37.163,-5.801"
           id="path590" />
        <path
           d="m 679.27,112.01 -27.461,4.287"
           id="path592" />
        <path
           d="m 715.42,99.032 -17.683,2.0443"
           id="path594" />
        <path
           d="m 715.42,-99.163 -17.683,-2.0439"
           id="path596" />
        <path
           d="m 716.07,-98.7 -0.652,-0.4633"
           id="path598" />
        <path
           d="m 716.07,98.568 -0.652,0.4633"
           id="path600" />
        <path
           d="m 725.26,97.312 -9.185,1.2561"
           id="path602" />
        <path
           d="m 725.26,-97.444 -9.185,-1.2561"
           id="path604" />
        <path
           d="m 403.36,-138.94 v -3.13"
           id="path606" />
        <path
           d="m 403.36,141.93 v -3.129"
           id="path608" />
        <path
           d="m 425.36,141.93 v -3.129"
           id="path610" />
        <path
           d="M 489.25,138.8 H 472.094 454.913 437.709 420.487 403.248 385.996 368.734 316.914 282.37 265.108 247.856"
           id="path612" />
        <path
           d="m 189.83,85.578 11.452,16.356"
           id="path614" />
        <path
           d="m 201.29,101.93 q 1.481,2.116 2.948,4.21"
           id="path616" />
        <path
           d="m 213.13,118.85 q -4.448,-6.351 -8.898,-12.707"
           id="path618" />
        <path
           d="m 215.2,121.8 -2.066,-2.952"
           id="path620" />
        <path
           d="m 224.93,131.55 c -3.805,-2.675 -7.093,-5.983 -9.731,-9.749"
           id="path622" />
        <path
           d="m 247.86,138.8 c -1.341,-0.001 -2.66,-0.067 -3.958,-0.197 -0.651,-0.066 -1.29,-0.145 -1.917,-0.238 -0.623,-0.093 -1.228,-0.198 -1.817,-0.314 -1.179,-0.233 -2.304,-0.51 -3.354,-0.812 -1.051,-0.303 -2.027,-0.631 -2.95,-0.977 -1.844,-0.691 -3.477,-1.457 -4.95,-2.252 -1.473,-0.794 -2.78,-1.618 -3.983,-2.463"
           id="path624" />
        <path
           d="m 492.27,133.86 -3.021,4.944"
           id="path626" />
        <path
           d="m 640.76,118.96 a 1627.3,1627.3 0 0 1 -0.005,0.001"
           id="path628" />
        <path
           d="m 640.69,118.97 a 1627.3,1627.3 0 0 1 -59.851,7.66"
           id="path630" />
        <path
           d="m 527.71,131.55 q -17.694,1.347 -35.438,2.309"
           id="path632" />
        <path
           d="m 640.69,118.97 c -37.293,5.478 -74.999,9.691 -112.98,12.582"
           id="path634" />
        <path
           d="m 640.76,118.96 q -0.022,0.004 -0.065,0.01"
           id="path636" />
        <path
           d="m 247.86,-138.94 h 17.252 34.532 69.094 17.262 17.252 17.239 17.222 17.204 17.181 17.156"
           id="path638" />
        <path
           d="m 215.2,-121.94 -2.066,2.952"
           id="path640" />
        <path
           d="m 213.13,-118.98 q -4.448,6.352 -8.898,12.708"
           id="path642" />
        <path
           d="m 204.23,-106.28 q -1.467,2.094 -2.948,4.209"
           id="path644" />
        <path
           d="m 189.83,-85.71 11.452,-16.356"
           id="path646" />
        <path
           d="M 350.04,109.55 V -109.67"
           id="path648" />
        <path
           d="m 350.04,109.55 c -24.319,0.286 -48.631,0.143 -72.935,-0.43 -24.304,-0.571 -48.603,-1.571 -72.872,-2.972"
           id="path650" />
        <path
           d="m 206.98,41.192 -0.245,4.4993 -0.271,4.4814 -0.297,4.4619 -0.321,4.4405 -0.346,4.4176 -0.372,4.3927 -0.396,4.3664 -0.42,4.3382 -0.445,4.3083 -0.469,4.2768 -0.494,4.2437 -0.517,4.2088 -0.541,4.1723 -0.564,4.1338"
           id="path652" />
        <path
           d="m 214.57,40.684 q -3.769,0.254 -7.586,0.5078"
           id="path654" />
        <path
           d="m 214.19,98.849 q 0.266,-27.874 0.376,-58.164"
           id="path656" />
        <path
           d="m 214.19,98.849 h 61.249"
           id="path658" />
        <path
           d="m 275.44,-98.98 c -0.082,15.471 -0.143,31.508 -0.185,48.09 -0.011,4.1443 -0.02,8.3258 -0.028,12.545 -0.008,4.2199 -0.015,8.4804 -0.02,12.735 -0.011,8.5089 -0.016,17 -0.016,25.474 0,8.4766 0.005,16.936 0.016,25.378 0.005,4.2193 0.012,8.437 0.019,12.653 0.008,4.2173 0.018,8.4365 0.028,12.619 0.042,16.734 0.104,32.846 0.186,48.335"
           id="path660" />
        <path
           d="m 214.19,-98.98 h 61.249"
           id="path662" />
        <path
           d="m 214.57,-40.816 c -0.018,-5.0325 -0.04,-10.061 -0.065,-15.025 -0.025,-4.9629 -0.053,-9.8672 -0.084,-14.713 -0.063,-9.6964 -0.139,-19.172 -0.227,-28.426"
           id="path664" />
        <path
           d="m 206.98,-41.324 q 3.817,0.2539 7.586,0.5078"
           id="path666" />
        <path
           d="m 201.29,-102.07 0.564,4.1344 0.541,4.1723 0.517,4.2088 0.494,4.2436 0.469,4.2769 0.445,4.3083 0.42,4.3382 0.396,4.3663 0.372,4.3928 0.346,4.4176 0.321,4.4405 0.297,4.4619 0.271,4.4814 0.245,4.4992"
           id="path668" />
        <path
           d="m 350.04,-109.68 c -24.319,-0.286 -48.631,-0.142 -72.935,0.43 -24.304,0.572 -48.603,1.571 -72.872,2.973"
           id="path670" />
        <path
           d="m 640.69,-118.98 q 0,8.157 0,16.321"
           id="path672" />
        <path
           d="m 640.69,-119.1 v 0.118"
           id="path674" />
        <path
           d="m 640.69,-102.66 v 35.806"
           id="path676" />
        <path
           d="m 492.27,-133.99 -3.021,-4.944"
           id="path678" />
        <path
           d="m 247.86,-138.94 c -1.341,0 -2.66,0.066 -3.958,0.197 -0.651,0.065 -1.29,0.145 -1.917,0.238 -0.623,0.093 -1.228,0.198 -1.817,0.314 -1.179,0.232 -2.304,0.509 -3.354,0.812 -1.051,0.302 -2.027,0.63 -2.95,0.976 -1.844,0.692 -3.477,1.457 -4.95,2.252 -1.473,0.795 -2.78,1.618 -3.983,2.464"
           id="path680" />
        <path
           d="m 224.93,-131.68 c -3.805,2.675 -7.093,5.982 -9.731,9.748"
           id="path682" />
        <path
           d="m 640.69,-119.1 q 0.089,0.013 0.089,0.013"
           id="path684" />
        <path
           d="m 640.69,-119.1 c -37.293,-5.478 -74.999,-9.691 -112.98,-12.582"
           id="path686" />
        <path
           d="m 527.71,-131.68 q -17.694,-1.347 -35.438,-2.309"
           id="path688" />
        <path
           d="m 534.17,-106.07 c -61.282,-2.661 -122.68,-3.876 -184.13,-3.61"
           id="path690" />
        <path
           d="m 534.17,105.94 c -61.282,2.661 -122.68,3.876 -184.13,3.609"
           id="path692" />
        <path
           d="M 579.41,106.2 V -106.33"
           id="path694" />
        <path
           d="m 579.41,106.2 q -1.676,-1.157 -3.386,-2.304"
           id="path696" />
        <path
           d="M 576.02,103.9 V -104.02"
           id="path698" />
        <path
           d="m 579.41,-106.33 q -1.676,1.156 -3.386,2.304"
           id="path700" />
        <path
           d="m 640.69,66.725 q 0.724,-1.9619 1.417,-3.9443"
           id="path702" />
        <path
           d="m 642.11,62.781 q 18.564,-4.0812 37.163,-7.9193"
           id="path704" />
        <path
           d="m 679.27,54.861 q 0.631,-0.8837 1.252,-1.7759"
           id="path706" />
        <path
           d="m 678.44,25.601 2.088,0.109"
           id="path708" />
        <path
           d="m 672.36,12.084 c 1.383,4.8254 3.48,9.2959 6.081,13.516"
           id="path710" />
        <path
           d="m 672.36,-12.216 c -2.903,0.4179 -5.793,0.8915 -8.665,1.4455 -2.872,0.5549 -5.726,1.1862 -8.548,1.9526 -1.412,0.38044 -2.814,0.80512 -4.206,1.2741 -1.389,0.47197 -2.775,0.99832 -4.117,1.6131 -0.67,0.30522 -1.326,0.63872 -1.967,1.0005 -0.64,0.3639 -1.263,0.76242 -1.851,1.2185 -0.588,0.45608 -1.141,0.96976 -1.574,1.5782 -0.217,0.30424 -0.404,0.63219 -0.534,0.98379 -0.13,0.3516 -0.203,0.72686 -0.201,1.1015 0.002,0.37466 0.08,0.74872 0.214,1.0985 0.133,0.3498 0.322,0.67532 0.54,0.97731 0.435,0.60398 0.987,1.1138 1.575,1.5678 0.587,0.45397 1.212,0.85208 1.852,1.2148 0.64,0.3605 1.294,0.69225 1.96,0.99523 1.332,0.60968 2.713,1.1342 4.106,1.6076 1.393,0.46941 2.796,0.89425 4.208,1.2745 2.823,0.76632 5.677,1.3975 8.548,1.9521 2.87,0.5537 5.759,1.027 8.66,1.4445"
           id="path712" />
        <path
           d="m 678.44,-25.732 c -2.601,4.2206 -4.698,8.6911 -6.081,13.516"
           id="path714" />
        <path
           d="m 680.52,-25.841 -2.088,0.1091"
           id="path716" />
        <path
           d="m 680.52,-53.217 q -0.621,-0.8923 -1.252,-1.776"
           id="path718" />
        <path
           d="m 679.27,-54.993 q -18.599,-3.838 -37.163,-7.9192"
           id="path720" />
        <path
           d="m 642.11,-62.912 q -0.693,-1.9824 -1.417,-3.9444"
           id="path722" />
        <path
           d="m 640.69,-102.66 q -30.62,-2.17 -61.284,-3.67"
           id="path724" />
        <path
           d="m 640.69,102.53 q -30.62,2.17 -61.284,3.67"
           id="path726" />
        <path
           d="m 640.69,66.725 v 35.806"
           id="path728" />
        <path
           d="m 576.02,-104.03 q -20.916,-1.131 -41.854,-2.04"
           id="path730" />
        <path
           d="m 576.02,103.9 q -20.916,1.13 -41.854,2.04"
           id="path732" />
        <path
           d="m 214.57,-40.816 q 1.689,40.75 0,81.5"
           id="path734" />
        <path
           d="M 206.98,41.192 V -41.324"
           id="path736" />
        <path
           d="m 189.83,85.578 -0.543,-0.8116 -0.506,-0.8344 -0.469,-0.8557 -0.432,-0.8754 -0.393,-0.8933 -0.354,-0.9097 -0.314,-0.9242 -0.273,-0.937 -0.232,-0.9481 -0.19,-0.9573 -0.149,-0.9646 -0.106,-0.9702 -0.064,-0.974 -0.021,-0.9758"
           id="path738" />
        <path
           d="M 185.79,72.747 V -72.883"
           id="path740" />
        <path
           d="m 189.83,-85.71 -0.543,0.8116 -0.506,0.8344 -0.469,0.8557 -0.432,0.8753 -0.393,0.8934 -0.354,0.9097 -0.314,0.9242 -0.273,0.937 -0.232,0.9481 -0.19,0.9572 -0.149,0.9647 -0.106,0.9702 -0.064,0.974 -0.021,0.9757"
           id="path742" />
        <path
           d="m 640.69,118.97 v -0.119"
           id="path744" />
        <path
           d="m 640.69,118.85 q 0,-8.156 0,-16.32"
           id="path746" />
        <path
           d="m 640.69,118.85 q 0,0.075 0,0.119"
           id="path748" />
        <path
           d="M 678.44,25.601 V -25.732"
           id="path750" />
        <path
           d="m 672.36,12.084 v -24.3"
           id="path752" />
        <path
           d="m 680.52,-41.789 v 15.948"
           id="path754" />
        <path
           d="m 697.25,-23.201 c -2.352,-3.5022 -4.996,-6.7344 -7.813,-9.8053 -2.818,-3.0709 -5.809,-5.9807 -8.917,-8.7824"
           id="path756" />
        <path
           d="m 697.25,23.07 q 0.907,-23.136 0,-46.271"
           id="path758" />
        <path
           d="m 680.52,41.658 c 3.108,-2.8018 6.099,-5.7115 8.917,-8.7824 2.817,-3.071 5.461,-6.3031 7.813,-9.8053"
           id="path760" />
        <path
           d="M 680.52,25.71 V 41.658"
           id="path762" />
        <path
           d="m 642.11,-117.94 v 55.032"
           id="path764" />
        <path
           d="m 642.11,62.781 v 55.015"
           id="path766" />
        <path
           d="m 642.11,117.8 -1.352,1.164"
           id="path768" />
        <path
           d="m 697.25,23.07 v 80.815"
           id="path770" />
        <path
           d="m 697.25,-104.02 v 80.815"
           id="path772" />
        <path
           d="M 697.74,-101.21 V 101.07"
           id="path774" />
        <path
           d="M 680.52,-41.789 V -53.217"
           id="path776" />
        <path
           d="m 679.27,-112.14 v 57.15"
           id="path778" />
        <path
           d="m 679.27,54.861 v 57.15"
           id="path780" />
        <path
           d="M 680.52,53.085 V 41.657"
           id="path782" />
        <path
           d="m 651.7,116.3 -9.592,1.498"
           id="path784" />
        <path
           d="M 715.42,-99.163 V -4.298"
           id="path786" />
        <path
           d="m 715.42,4.1665 q -0.246,-4.2322 0,-8.4644"
           id="path788" />
        <path
           d="m 715.42,4.1665 v 94.865"
           id="path790" />
        <path
           d="M 716.07,-98.7 V -3.374"
           id="path792" />
        <path
           d="m 716.07,-3.3739 q -0.064,-1.126 -0.172,-2.2487"
           id="path794" />
        <path
           d="m 715.42,-4.2979 q 0.208,-0.66487 0.48,-1.3247"
           id="path796" />
        <path
           d="M 715.9,5.4912 Q 715.628,4.83136 715.42,4.1665"
           id="path798" />
        <path
           d="m 715.9,5.4912 q 0.108,-1.1227 0.172,-2.2487"
           id="path800" />
        <path
           d="m 716.07,3.2425 v 95.326"
           id="path802" />
        <path
           d="m 716.07,3.2425 c 0.869,-0.34424 1.725,-0.72366 2.525,-1.2134 0.4,-0.2456 0.784,-0.52049 1.108,-0.85996 0.163,-0.16974 0.31,-0.35563 0.418,-0.56548 0.108,-0.20985 0.176,-0.44368 0.174,-0.67789 -0.002,-0.23421 -0.073,-0.46881 -0.183,-0.67823 -0.11,-0.20942 -0.259,-0.39368 -0.422,-0.56206 -0.326,-0.33676 -0.71,-0.60999 -1.108,-0.85378 -0.796,-0.48574 -1.646,-0.86231 -2.512,-1.2055"
           id="path804" />
        <path
           d="m 725.26,-14.044 v -83.4"
           id="path806" />
        <path
           d="m 725.26,13.912 -0.236,-1.9832 -0.2,-1.9895 -0.164,-1.9947 -0.128,-1.999 -0.091,-2.0021 -0.055,-2.0042 -0.018,-2.0053 0.018,-2.0053 0.055,-2.0042 0.091,-2.0021 0.128,-1.9989 0.164,-1.9948 0.2,-1.9894 0.236,-1.9832"
           id="path808" />
        <path
           d="m 725.26,97.312 v -83.4"
           id="path810" />
        <path
           d="m 716.07,-3.3739 q 0.452,0.17719 0.895,0.37277"
           id="path812" />
        <path
           d="m 718.69,-2.102 c 0.363,0.22914 0.71,0.48512 1.008,0.79499"
           id="path814" />
        <path
           d="m 720.08,-0.81831 c 0.132,0.22788 0.219,0.4896 0.219,0.75236"
           id="path816" />
        <path
           d="M 715.9,5.4912 V -5.6228"
           id="path818" />
        <path
           d="M 725.26,13.912 V -14.044"
           id="path820" />
        <path
           d="m 216.49,-94.083 -2.297,-4.897"
           id="path822" />
        <path
           d="M 216.49,93.952 V -94.088"
           id="path824" />
        <path
           d="m 216.49,93.952 -2.297,4.8971"
           id="path826" />
        <path
           d="m 275.44,-98.98 -1.271,4.897"
           id="path828" />
        <path
           d="m 275.44,98.849 -1.271,-4.8971"
           id="path830" />
        <path
           d="M 274.17,93.952 V -94.088"
           id="path832" />
        <path
           d="M 274.17,93.952 H 216.489"
           id="path834" />
        <path
           d="M 274.17,-94.083 H 216.489"
           id="path836" />
        <path
           d="m 224.93,-131.68 q 10.82,0 21.64,0 10.831,0 21.661,0 10.838,0 21.676,0 21.684,0 43.375,0 21.689,0 43.366,0 10.833,0 21.666,0 10.824,0 21.647,0 10.811,0 21.622,0 10.796,0 21.592,0 10.778,0 21.556,0 10.757,0 21.514,0 10.734,0 21.467,0"
           id="path838" />
        <path
           d="m 213.13,-118.98 q 15.339,0 30.679,0 15.361,0 30.723,0 15.374,0 30.749,0 30.762,0 61.515,0 15.367,0 30.733,0 15.348,0 30.696,0 15.321,0 30.642,0 15.285,0 30.571,0 15.243,0 30.486,0 15.192,0 30.384,0 15.134,0 30.267,0 15.066,0 30.132,0 14.992,0 29.983,0"
           id="path840" />
        <path
           d="m 527.71,131.55 q -10.733,0 -21.467,0 -10.757,0 -21.514,0 -10.778,0 -21.556,0 -10.796,0 -21.592,0 -10.811,0 -21.622,0 -10.823,0 -21.647,0 -10.833,0 -21.666,0 -10.84,0 -21.679,0 -21.687,0 -43.376,0 -10.843,0 -21.686,0 -10.838,0 -21.676,0 -10.83,0 -21.661,0 -10.82,0 -21.64,0"
           id="path842" />
        <path
           d="M 640.69,118.85 H 213.13"
           id="path844" />
        <path
           d="m 414.36,-142.07 h -11"
           id="path846" />
        <path
           d="m 425.36,-142.07 h -11"
           id="path848" />
        <path
           d="m 425.36,-138.94 v -3.13"
           id="path850" />
        <path
           d="m 414.36,141.93 h -11"
           id="path852" />
        <path
           d="m 425.36,141.93 h -11"
           id="path854" />
        <path
           d="m 651.7,116.3 h 0.11"
           id="path856" />
        <path
           d="M 580.84,138.22 V 126.63"
           id="path858" />
        <path
           d="m 651.81,116.3 v 21.922"
           id="path860" />
        <path
           d="m 580.84,138.22 h 70.97"
           id="path862" />
        <path
           d="m 651.81,137.9 h 55.169"
           id="path864" />
        <path
           d="m 706.98,137.9 v 5.138"
           id="path866" />
        <path
           d="M 534.75,143.04 H 706.98"
           id="path868" />
        <path
           d="m 534.75,137.9 v 5.138"
           id="path870" />
        <path
           d="m 534.75,137.9 h 46.093"
           id="path872" />
        <path
           d="m 706.98,143.04 v 63.606"
           id="path874" />
        <path
           d="M 534.75,206.64 H 706.98"
           id="path876" />
        <path
           d="m 534.75,143.04 v 63.606"
           id="path878" />
        <path
           d="m 706.98,206.64 v 4.821"
           id="path880" />
        <path
           d="M 534.75,211.46 H 706.98"
           id="path882" />
        <path
           d="m 534.75,206.64 v 4.821"
           id="path884" />
      </g>
    </g>
    <g
       transform="matrix(0,-0.5,0.5,0,-322.46,471.58)"
       fill="#c8c8c8"
       id="g892" />
  </g>
</svg>
