<?xml version="1.0" encoding="UTF-8" standalone="no"?>
<svg
   id="svg2"
   version="1.1"
   viewBox="0 0 1485.2599 1077.5516"
   height="285.10217mm"
   width="392.97504mm"
   sodipodi:docname="spiider.svg"
   inkscape:version="1.1.1 (3bf5ae0d25, 2021-09-20)"
   xmlns:inkscape="http://www.inkscape.org/namespaces/inkscape"
   xmlns:sodipodi="http://sodipodi.sourceforge.net/DTD/sodipodi-0.dtd"
   xmlns:xlink="http://www.w3.org/1999/xlink"
   xmlns="http://www.w3.org/2000/svg"
   xmlns:svg="http://www.w3.org/2000/svg"
   xmlns:rdf="http://www.w3.org/1999/02/22-rdf-syntax-ns#"
   xmlns:cc="http://creativecommons.org/ns#"
   xmlns:dc="http://purl.org/dc/elements/1.1/">
  <path
     id="path22815"
     style="color:#000000;font-style:normal;font-variant:normal;font-weight:normal;font-stretch:normal;font-size:medium;line-height:normal;font-family:sans-serif;font-variant-ligatures:normal;font-variant-position:normal;font-variant-caps:normal;font-variant-numeric:normal;font-variant-alternates:normal;font-variant-east-asian:normal;font-feature-settings:normal;font-variation-settings:normal;text-indent:0;text-align:start;text-decoration:none;text-decoration-line:none;text-decoration-style:solid;text-decoration-color:#000000;letter-spacing:normal;word-spacing:normal;text-transform:none;writing-mode:lr-tb;direction:ltr;text-orientation:mixed;dominant-baseline:auto;baseline-shift:baseline;text-anchor:start;white-space:normal;shape-padding:0;shape-margin:0;inline-size:0;clip-rule:nonzero;display:inline;overflow:visible;visibility:visible;opacity:1;isolation:auto;mix-blend-mode:normal;color-interpolation:sRGB;color-interpolation-filters:linearRGB;solid-color:#000000;solid-opacity:1;vector-effect:none;fill:#c8c8c8;fill-opacity:1;fill-rule:nonzero;stroke:none;stroke-width:0.999996;stroke-linecap:butt;stroke-linejoin:miter;stroke-miterlimit:4;stroke-dasharray:none;stroke-dashoffset:0;stroke-opacity:1;color-rendering:auto;image-rendering:auto;shape-rendering:auto;text-rendering:auto;enable-background:accumulate;stop-color:#000000;stop-opacity:1"
     d="m 404.8928,104.30076 v 1.30797 l -0.94094,-0.92649 -10.71273,10.82993 -193.67207,23.67241 0.16322,1.32366 -1.08877,-0.75103 -2.99802,4.3833 -2.96688,4.40281 -2.92408,4.42624 -2.89689,4.45727 -2.86584,4.47287 -2.823,4.50406 -2.79193,4.51574 -2.76079,4.53126 -2.73353,4.56244 -2.69088,4.57404 -2.65965,4.6053 -2.61691,4.62082 -2.58584,4.63634 -2.54309,4.66369 h -0.0143 c -3.33213,6.13845 -6.42798,12.08426 -9.27401,17.70083 -1.4204,2.81045 -2.77778,5.51711 -4.06728,8.14768 -1.28928,2.6265 -2.50427,5.15235 -3.61625,7.48989 -1.11525,2.34755 -2.11532,4.48026 -2.99803,6.38817 -0.8782,1.89496 -1.63541,3.54283 -2.20472,4.79597 -0.39805,0.87504 -0.70506,1.5644 -0.91379,2.02821 -0.10537,0.23357 -0.19565,0.41064 -0.24907,0.52959 -0.0302,0.0607 -0.0452,0.10264 -0.0602,0.13298 -0.007,0.0144 -0.0151,0.0231 -0.0151,0.0303 v 0.0144 c -0.002,0.004 0.002,0.008 0,0.0144 h -0.0151 c -82.408696,183.4038 -82.389282,393.35915 0.0151,576.75374 v 0.0152 c 0.002,0.004 -0.002,0.008 0,0.0152 0.004,0.008 0.008,0.0151 0.0151,0.0303 l 0.0302,0.0606 c 0.002,0.004 -0.002,0.008 0,0.0151 l 0.0151,0.0303 c 0.005,0.0151 0.005,0.0151 0.0151,0.0303 0.006,0.0151 0.0151,0.0447 0.0302,0.075 0.005,0.008 0.008,0.0303 0.0151,0.0447 0.007,0.0152 0.007,0.004 0.0151,0.0303 h 0.0151 l 0.0302,0.078 c 0.0452,0.097 0.0677,0.17239 0.13241,0.30726 0.0677,0.15041 0.20694,0.46555 0.2957,0.66214 0.18511,0.40902 0.36041,0.77603 0.62981,1.37024 0.55306,1.21903 1.14314,2.51875 2.08808,4.55852 0.0446,0.0909 0.0604,0.14548 0.10077,0.23716 0.81528,1.75634 1.76799,3.76446 2.78027,5.89769 0.0777,0.16329 0.12667,0.29097 0.20611,0.45574 1.31936,2.77384 3.00955,6.15103 4.58444,9.34287 0.99304,2.01438 1.78416,3.7018 2.86582,5.84317 0.0533,0.10571 0.12089,0.23262 0.17458,0.33909 0.023,0.0447 0.0374,0.075 0.0605,0.11706 2.84024,5.60597 5.93488,11.53514 9.30501,17.74364 h 0.0143 l 2.53918,4.64809 2.58967,4.65191 2.61307,4.61694 2.66357,4.5936 2.68696,4.58966 2.73354,4.54681 2.7647,4.54689 2.79194,4.51571 2.823,4.48847 2.86574,4.47289 2.89307,4.45733 2.92407,4.43001 2.97078,4.41065 2.99805,4.38723 1.08487,-0.73598 -0.15948,1.29246 193.66818,23.67243 10.71655,10.82991 0.94109,-0.92651 v 1.32356 h 675.47822 v -1.32356 l 0.9411,0.92651 10.701,-10.82991 193.6838,-23.67243 -0.1631,-1.29246 1.0887,0.73598 2.998,-4.38723 2.9552,-4.41065 2.9241,-4.43001 2.9086,-4.45733 2.8503,-4.47289 2.8385,-4.48847 2.7919,-4.51571 2.7647,-4.54689 2.718,-4.54681 2.7025,-4.58966 2.6481,-4.5936 2.6285,-4.61694 2.5859,-4.65191 2.543,-4.64809 c 3.332,-6.13845 6.4435,-12.08429 9.2895,-17.70082 1.4204,-2.81041 2.7818,-5.53273 4.0712,-8.16329 1.2893,-2.62651 2.5042,-5.15235 3.6163,-7.48982 1.1131,-2.34324 2.1165,-4.46752 2.998,-6.37263 v -0.0152 c 0.8753,-1.8889 1.6213,-3.53047 2.1892,-4.78042 0.401,-0.88271 0.7148,-1.56163 0.9255,-2.02824 0.105,-0.23376 0.1797,-0.41425 0.2333,-0.53333 0.03,-0.0606 0.045,-0.11404 0.06,-0.14472 0.01,-0.0152 0.015,-0.0227 0.015,-0.0303 h 0.015 c 0,-0.004 0,-0.008 0,-0.0152 82.4127,-183.40906 82.3995,-393.36998 -0.015,-576.76911 10e-5,-7e-5 0.015,0 0.015,0 v -0.0144 c 0,-0.008 0,-0.0303 -0.015,-0.0448 -0.015,-0.0303 -0.03,-0.0752 -0.061,-0.13298 -0.01,-0.0231 -0.044,-0.0752 -0.06,-0.10116 -0.053,-0.11419 -0.111,-0.24255 -0.194,-0.42784 -0.068,-0.14843 -0.2047,-0.45428 -0.2919,-0.64637 -0.1857,-0.41049 -0.347,-0.78311 -0.6185,-1.38194 -0.3236,-0.71185 -0.817,-1.78303 -1.2481,-2.72113 -0.2888,-0.62903 -0.5101,-1.1141 -0.8399,-1.82573 -0.03,-0.0679 -0.083,-0.16276 -0.1167,-0.23357 -0.8145,-1.7547 -1.7497,-3.77078 -2.7608,-5.9016 -0.061,-0.13154 -0.1575,-0.32158 -0.2213,-0.45573 -2.1426,-4.50451 -4.6902,-9.72519 -7.4503,-15.18596 -0.015,-0.0375 -0.038,-0.0809 -0.06,-0.11707 -0.068,-0.12719 -0.111,-0.22607 -0.1752,-0.35413 -2.861,-5.64916 -5.9651,-11.58579 -9.3011,-17.72808 l -2.543,-4.66369 -2.5898,-4.63634 -2.6285,-4.62082 -2.6442,-4.60132 -2.7064,-4.57803 -2.718,-4.56244 -2.7646,-4.53125 -2.792,-4.51574 -2.8347,-4.50406 -2.8502,-4.46895 -2.9125,-4.46119 -2.924,-4.42616 -2.9553,-4.39897 -2.998,-4.38723 -1.0849,0.75102 0.1597,-1.32357 -193.6837,-23.67241 -10.7011,-10.82994 -0.9371,0.92651 v -1.30737 z M 169.30711,321.87623 h 30.42322 33.55346 v 1.32354 l 0.99938,-0.8681 11.91808,13.81568 -1.00715,0.8681 h 1.31432 v 403.50982 h -1.29877 l 0.99146,0.85642 -11.91809,13.81573 -0.99937,-0.86028 v 1.31575 h -33.55346 -30.42322 v -1.31185 l -1.14706,0.61922 c -2.91284,-5.42453 -5.7114,-10.90986 -8.40288,-16.4474 -3.32814,-6.84348 -6.39201,-13.55285 -9.17287,-20.05599 -2.78096,-6.50296 -5.28153,-12.7908 -7.48142,-18.62727 -1.09783,-2.91739 -2.11932,-5.72379 -3.02521,-8.28009 -0.53651,-1.50761 -0.92545,-2.66079 -1.36872,-3.94737 l -0.0151,0.004 c -0.40934,-1.19273 -0.77421,-2.24737 -1.08873,-3.18051 h 0.004 c -0.5207,-1.54463 -0.96186,-2.86876 -1.15095,-3.44126 v -0.008 c -0.0302,-0.0852 -0.0677,-0.19663 -0.0895,-0.25687 -0.006,-0.0227 -0.005,-0.0303 -0.008,-0.0447 -30.09886,-92.1255 -30.11143,-191.44649 -0.06,-283.57892 l 0.0151,-0.0781 c 0,0 0.005,-0.0152 0.008,-0.0152 h -0.008 c 0,0 0.006,-0.0152 0.0151,-0.0447 0.008,-0.0303 0.0226,-0.075 0.0452,-0.13298 0.0302,-0.0981 0.0918,-0.25459 0.15201,-0.43243 v -0.004 l -0.004,-0.004 c 0.20241,-0.61471 0.60423,-1.85541 1.17429,-3.54639 0.57037,-1.69564 1.31718,-3.8494 2.17756,-6.28306 0.0446,-0.13298 0.11085,-0.30499 0.15948,-0.43998 0.0144,-0.0379 0.023,-0.0519 0.0302,-0.0898 0.0677,-0.18678 0.15431,-0.41728 0.22197,-0.6072 0.7659,-2.15388 1.57362,-4.41448 2.49637,-6.88254 h 0.0143 c 0.008,-0.0152 0.0144,-0.0379 0.023,-0.0606 0.0921,-0.2455 0.16321,-0.45267 0.25666,-0.70056 0.8812,-2.34056 1.85038,-4.80556 2.83075,-7.2835 0.15344,-0.38794 0.2837,-0.7383 0.43945,-1.12899 1.3313,-3.3386 2.72857,-6.76278 4.22282,-10.26155 1.20506,-2.82312 2.48732,-5.6891 3.79511,-8.5721 0.17084,-0.37667 0.32587,-0.73903 0.49731,-1.11729 1.56406,-3.42275 3.19351,-6.88716 4.89558,-10.39391 2.69148,-5.53753 5.49388,-11.0111 8.40679,-16.43564 l 1.14318,0.61473 z M 1252.579,324.5233 h 32.9585 29.6144 c 2.762,5.16531 5.4346,10.38993 7.9947,15.65709 1.6548,3.40957 3.2378,6.77838 4.7556,10.10583 0,0.006 0,0.0144 0.01,0.0231 0.9752,2.13828 1.8793,4.22911 2.7997,6.33371 0.5365,1.22655 1.1082,2.47923 1.6253,3.6904 0.7495,1.75643 1.4323,3.45236 2.1426,5.17361 0.6275,1.52282 1.2907,3.07946 1.8819,4.55852 0.5666,1.41417 1.0673,2.74424 1.6021,4.11866 0.6584,1.69458 1.3478,3.43737 1.9481,5.03735 1.0143,2.70478 1.97,5.31852 2.8113,7.68842 0.5509,1.55114 0.9596,2.7529 1.4115,4.06804 0.3017,0.88556 0.681,1.97418 0.9256,2.70168 0.5523,1.6382 0.9383,2.82219 1.147,3.45678 30.1341,91.83215 30.1979,190.89373 0.1752,282.7574 -0.03,0.0883 -0.06,0.17617 -0.087,0.26445 -0.2159,0.65535 -0.6606,2.01331 -1.2793,3.8422 -0.6192,1.83199 -1.4024,4.12574 -2.3058,6.66462 -0.9001,2.5399 -1.9218,5.32443 -3.0136,8.22557 -2.1869,5.80218 -4.6739,12.05702 -7.4386,18.52217 -0.015,0.0303 -0.03,0.0606 -0.038,0.0898 v 0 c -2.7498,6.42484 -5.7667,13.07328 -9.0678,19.86129 -2.5622,5.27135 -5.2382,10.48516 -8.0025,15.65327 h -29.6067 v 0.004 h -32.9581 l -11.2027,-12.99879 V 337.50891 Z" />
  <path
     id="path16586-1"
     style="fill:none;stroke:#000000;stroke-width:0.793751;stroke-linecap:butt;stroke-linejoin:miter;stroke-miterlimit:4;stroke-dasharray:none"
     d="m 160.93206,339.60539 c -3.43122,7.05666 -6.5577,13.94984 -9.39072,20.6016 -2.83301,6.65175 -5.37258,13.0617 -7.52086,18.79818 -1.07221,2.86788 -2.05045,5.56774 -2.90825,7.99417 -0.85774,2.42643 -1.59522,4.57977 -2.16333,6.26943 -0.5681,1.68594 -0.97443,2.92588 -1.1776,3.54286 m 23.16076,-193.06136 c -3.32589,6.12707 -6.42602,12.05414 -9.26657,17.65992 -1.41838,2.80646 -2.77282,5.52178 -4.05953,8.1467 -1.28668,2.62115 -2.50192,5.14137 -3.6118,7.47437 -1.11367,2.34432 -2.11065,4.4679 -2.99104,6.37078 -0.87659,1.89156 -1.62532,3.52851 -2.19343,4.77901 -0.80137,1.76238 -1.24155,2.74695 -1.23779,2.73829 m 0,146.50169 c 0,7.6e-4 0.0452,-0.14321 0.1392,-0.4294 0.21445,-0.64941 0.66593,-2.03545 1.28671,-3.86827 0.61701,-1.83245 1.39957,-4.11158 2.29877,-6.64386 0.89919,-2.53263 1.91125,-5.31875 3.00608,-8.22728 2.18967,-5.81635 4.70665,-12.12045 7.48322,-18.62192 2.78035,-6.51315 5.82783,-13.18826 9.14618,-20.02532 m -23.13442,57.12262 q -0.22574,0.69233 -0.22574,0.69377 M 1347.5635,250.63986 a 700.83116,701.62449 0 0 1 0.1279,575.99081 m -0.2295,-429.90304 a 454.61829,455.13294 0 0 1 0.083,283.84572 M 137.69605,826.91164 a 700.83116,701.62449 0 0 1 -0.12796,-575.9908 m 0.14672,429.65251 a 454.61829,455.13294 0 0 1 0.0828,-283.84572 m 23.13442,-192.97736 2.54708,-4.65021 2.58095,-4.63099 2.61856,-4.61139 2.64867,-4.59145 2.68629,-4.57111 2.7239,-4.55076 2.75401,-4.52968 2.78788,-4.50896 2.82548,-4.48785 2.85559,-4.46489 2.89323,-4.44454 2.92331,-4.42195 2.95716,-4.40311 2.99103,-4.37675 m -30.4107,182.70327 h 30.41072 m -38.79309,16.39549 q 4.02567,-8.2823 8.38241,-16.39549 m -31.68618,503.54883 q 0,-3.8e-4 0.0865,0.19738 m 23.21719,46.84518 c -3.45001,-6.35565 -6.62915,-12.44467 -9.52238,-18.16493 -2.88944,-5.7203 -5.49296,-11.07144 -7.64876,-15.60492 -1.07984,-2.27576 -2.0354,-4.3195 -2.8744,-6.13122 -1.22652,-2.64749 -2.16709,-4.72287 -2.7051,-5.91311 m 13.64965,-109.96723 c 2.75777,6.44348 5.79019,13.11822 9.10102,19.92627 m -22.07722,-53.94033 q 0.4703,1.39508 1.08354,3.18161 m -2.37026,139.4421 c -0.004,-0.008 0.43642,0.97334 1.23404,2.73115 0.5681,1.24968 1.3168,2.8863 2.19343,4.77447 0.8766,1.88856 1.87738,4.02872 2.97975,6.34668 2.2047,4.63513 4.81575,9.98066 7.67133,15.61883 2.8556,5.63854 5.95574,11.5701 9.28538,17.7006 m -23.19085,-46.79055 q -0.17307,-0.38114 -0.17307,-0.38114 m 0.004,-146.49199 q 0,-10e-4 0.22574,0.68628 m 23.13442,57.12222 c -3.31835,-6.82352 -6.36205,-13.52121 -9.13487,-20.00538 -2.77282,-6.48413 -5.27476,-12.75469 -7.46819,-18.57403 -1.09481,-2.90929 -2.11441,-5.70598 -3.01736,-8.25406 -0.90668,-2.54809 -1.69305,-4.84756 -2.31383,-6.68304 -0.62078,-1.83544 -1.06849,-3.20647 -1.28294,-3.85618 -0.094,-0.29097 -0.14294,-0.43622 -0.14294,-0.43622 m 62.15325,256.90771 -2.99103,-4.37674 -2.95717,-4.40315 -2.92331,-4.42193 -2.89322,-4.44452 -2.85559,-4.46491 -2.82548,-4.48786 -2.78788,-4.50896 -2.75401,-4.52965 -2.72391,-4.55075 -2.68628,-4.57114 -2.64867,-4.59144 -2.61856,-4.61141 -2.58095,-4.63096 -2.54708,-4.6502 m 8.38241,-119.45965 q -4.35673,-8.11328 -8.38241,-16.39557 m 38.79314,16.39557 H 169.31443 M 1324.3274,873.80126 c 3.3259,-6.12709 6.426,-12.05418 9.2666,-17.65995 1.4183,-2.80647 2.7728,-5.52178 4.0595,-8.1467 1.2867,-2.62112 2.5019,-5.14136 3.6118,-7.47436 1.1137,-2.34433 2.1107,-4.4679 2.991,-6.37077 0.8766,-1.89159 1.6254,-3.52851 2.1935,-4.77902 0.8013,-1.7624 1.2416,-2.74695 1.2377,-2.73831 m 0,-146.4946 q 0,-10e-4 -0.2258,0.68627 m -23.1344,57.12222 c 3.3184,-6.82351 6.3621,-13.52121 9.1349,-20.00534 2.7728,-6.48416 5.2747,-12.75473 7.4682,-18.57407 1.0948,-2.90929 2.1144,-5.70598 3.0174,-8.25402 0.9066,-2.54812 1.693,-4.8476 2.3138,-6.68304 0.6208,-1.83544 1.0684,-3.20647 1.2829,-3.85622 0.094,-0.29096 0.1423,-0.43622 0.1423,-0.43622 m 0,-429.21519 c 0,0.008 -0.4364,-0.97332 -1.234,-2.73115 -0.5681,-1.24968 -1.3167,-2.8863 -2.1934,-4.77449 -0.8766,-1.88855 -1.8774,-4.02871 -2.9798,-6.34667 -2.2042,-4.63508 -4.8153,-9.98059 -7.6708,-15.61877 -2.8556,-5.63855 -5.9558,-11.57013 -9.2854,-17.70059 m 23.1908,46.79054 q 0.173,0.38042 0.173,0.38115 m 0,146.49907 c 0,7.6e-4 -0.045,-0.14321 -0.1397,-0.42944 -0.2145,-0.64941 -0.6659,-2.03544 -1.2867,-3.86827 -0.6171,-1.83241 -1.3995,-4.11158 -2.2988,-6.64382 -0.8992,-2.53266 -1.9112,-5.31878 -3.0061,-8.22732 -2.1896,-5.81634 -4.7066,-12.12044 -7.4832,-18.62191 -2.7803,-6.51315 -5.8278,-13.18826 -9.1462,-20.02532 m 23.1344,57.12261 q 0.2258,0.69233 0.2258,0.69377 m -14.2591,320.59837 c -2.7578,6.44347 -5.7902,13.11821 -9.101,19.92627 m 22.0772,-53.94023 q -0.4703,1.39509 -1.0836,3.18162 m 2.3101,-436.39465 q 0,3.8e-4 -0.086,-0.19815 m -23.2172,-46.84441 c 3.4501,6.3557 6.6292,12.44473 9.5224,18.16501 2.8895,5.72028 5.493,11.07144 7.6488,15.60489 1.0798,2.27576 2.0354,4.31949 2.8744,6.13122 1.2265,2.64751 2.1671,4.72289 2.7051,5.91312 m -22.7503,90.041 c 3.4312,7.05666 6.5577,13.94984 9.3907,20.6016 2.833,6.65175 5.3726,13.0617 7.5208,18.79818 1.0723,2.86788 2.0505,5.56774 2.9083,7.99417 0.8578,2.42643 1.5953,4.57977 2.1634,6.26943 0.5681,1.68594 0.9744,2.92588 1.1775,3.54286 m -256.0817,563.96638 194.1278,-23.73313 m -205.1608,34.88595 11.033,-11.15282 m -11.033,11.15282 H 404.88601 m -11.03297,-11.15282 11.03297,11.15282 M 199.72519,937.04488 393.85304,960.77801 M 233.28121,754.34161 h -33.55602 m 45.47125,-13.81244 -11.91523,13.81244 M 245.19644,337.02228 V 740.52917 M 233.28121,323.2099 245.19644,337.02228 M 199.72519,323.2099 h 33.55602 M 393.85304,116.77351 199.72519,140.50663 m 205.16082,-34.88592 -11.03297,11.1528 m 686.52046,-11.1528 H 404.88601 m 686.52039,11.1528 -11.0329,-11.1528 m 205.1608,34.88592 -194.1279,-23.73312 m 194.1279,206.43639 h -33.556 m 0,0 -11.9152,13.81238 m 0,0 v 403.50689 m 0,0 11.9152,13.81244 m 0,0 h 33.556 M 1315.945,323.2099 h -30.4107 m 0,-182.70327 2.991,4.37675 2.9572,4.40311 2.9233,4.42195 2.8932,4.44454 2.8556,4.46489 2.8255,4.48785 2.7879,4.50896 2.754,4.52968 2.7239,4.55076 2.6863,4.57111 2.6486,4.59145 2.6186,4.61139 2.581,4.63099 2.547,4.65021 m -8.3824,119.45963 q 4.3568,8.11319 8.3824,16.39549 m 0,398.34065 q -4.0256,8.28229 -8.3824,16.39557 m 8.3824,119.45965 -2.547,4.6502 -2.581,4.63096 -2.6186,4.61141 -2.6486,4.59144 -2.6863,4.57114 -2.7239,4.55075 -2.754,4.52965 -2.7879,4.50896 -2.8255,4.48786 -2.8556,4.46491 -2.8932,4.44452 -2.9233,4.42193 -2.9572,4.40315 -2.991,4.37674 m 0,-182.70327 h 30.4107" />
  <path
     style="color:#000000;font-style:normal;font-variant:normal;font-weight:normal;font-stretch:normal;font-size:medium;line-height:normal;font-family:sans-serif;font-variant-ligatures:normal;font-variant-position:normal;font-variant-caps:normal;font-variant-numeric:normal;font-variant-alternates:normal;font-variant-east-asian:normal;font-feature-settings:normal;font-variation-settings:normal;text-indent:0;text-align:start;text-decoration:none;text-decoration-line:none;text-decoration-style:solid;text-decoration-color:#000000;letter-spacing:normal;word-spacing:normal;text-transform:none;writing-mode:lr-tb;direction:ltr;text-orientation:mixed;dominant-baseline:auto;baseline-shift:baseline;text-anchor:start;white-space:normal;shape-padding:0;shape-margin:0;inline-size:0;clip-rule:nonzero;display:inline;overflow:visible;visibility:visible;opacity:1;isolation:auto;mix-blend-mode:normal;color-interpolation:sRGB;color-interpolation-filters:linearRGB;solid-color:#000000;solid-opacity:1;vector-effect:none;fill:#c8c8c8;fill-opacity:1;fill-rule:nonzero;stroke:none;stroke-width:0.999996;stroke-linecap:butt;stroke-linejoin:miter;stroke-miterlimit:4;stroke-dasharray:none;stroke-dashoffset:0;stroke-opacity:1;color-rendering:auto;image-rendering:auto;shape-rendering:auto;text-rendering:auto;enable-background:accumulate;stop-color:#000000;stop-opacity:1"
     d="M 1.3219996,340.33946 V 341.663 H 0 v 394.2254 h 1.3219996 v 1.32356 h 0.2370249 0.6885017 1.1626275 1.6331422 2.084318 2.558594 3.0135321 3.480135 3.95456 4.393998 4.879937 5.335026 5.789889 6.244829 148.083846 240.21296 615.11028 240.2129 148.0838 6.2605 5.7898 5.335 4.8646 4.4094 3.9508 3.4685 3.0291 2.543 2.0998 1.6176 1.163 0.7039 0.2216 v -1.32356 h 1.3214 V 341.66303 h -1.3214 v -1.32354 h -0.2216 -0.7039 -1.163 -1.6176 -2.0998 -2.543 -3.0291 -3.4803 -3.939 -4.4094 -4.8646 -5.335 -5.7898 -6.2605 H 1290.3981 1050.1852 435.07492 194.86196 46.778039 40.53321 34.743321 29.408296 24.528359 20.134362 16.1798 12.699667 9.6861339 7.1275396 5.0432971 3.4101548 2.2474517 1.5589495 Z"
     id="1-5-9" />
  <sodipodi:namedview
     pagecolor="#ffffff"
     bordercolor="#666666"
     borderopacity="1"
     objecttolerance="10"
     gridtolerance="10"
     guidetolerance="10"
     inkscape:pageopacity="0"
     inkscape:pageshadow="2"
     inkscape:window-width="1920"
     inkscape:window-height="1035"
     id="namedview20326"
     showgrid="false"
     inkscape:zoom="0.65477696"
     inkscape:cx="371.88236"
     inkscape:cy="558.20535"
     inkscape:window-x="0"
     inkscape:window-y="45"
     inkscape:window-maximized="1"
     inkscape:current-layer="svg2"
     inkscape:document-rotation="0"
     inkscape:pagecheckerboard="0"
     inkscape:document-units="mm" />
  <!-- Working space 10 10 410 287 -->
  <!-- Title block 220 227 410 287 -->
  <metadata
     id="metadata849">
    <rdf:RDF>
      <cc:Work
         rdf:about="">
        <dc:format>image/svg+xml</dc:format>
        <dc:type
           rdf:resource="http://purl.org/dc/dcmitype/StillImage" />
        <dc:title />
      </cc:Work>
    </rdf:RDF>
  </metadata>
  <defs
     id="defs847">
    <linearGradient
       gradientUnits="userSpaceOnUse"
       id="defitem29"
       y2="485.909"
       x2="655.35199"
       y1="807.466"
       x1="649.42902">
      <stop
         id="stop92"
         offset="0.0000000"
         style="stop-color:#ffffff;stop-opacity:1.0000000;" />
      <stop
         id="stop93"
         offset="1.0000000"
         style="stop-color:#ffffff;stop-opacity:0.13756600;" />
    </linearGradient>
    <linearGradient
       xlink:href="#defitem29"
       id="linearGradient3448"
       gradientUnits="userSpaceOnUse"
       x1="649.42902"
       y1="807.466"
       x2="655.35199"
       y2="485.909" />
    <radialGradient
       gradientUnits="userSpaceOnUse"
       id="defitem28"
       fy="345.56"
       fx="1049.72"
       r="1202.15"
       cy="345.56"
       cx="1049.72">
      <stop
         id="stop89"
         offset="0.0000000"
         style="stop-color:#ffffff;stop-opacity:1.0000000;" />
      <stop
         id="stop90"
         offset="1.0000000"
         style="stop-color:#a8a8a8;stop-opacity:1.0000000;" />
    </radialGradient>
    <radialGradient
       xlink:href="#defitem28"
       id="radialGradient3446"
       gradientUnits="userSpaceOnUse"
       cx="1092.7045"
       cy="64.845284"
       fx="1089.4004"
       fy="64.844765"
       r="1202.15" />
    <linearGradient
       gradientUnits="userSpaceOnUse"
       id="defitem30"
       y2="636.70697"
       x2="980"
       y1="636.70697"
       x1="287.5">
      <stop
         id="stop95"
         offset="0.0000000"
         style="stop-color:#464646;stop-opacity:1.0000000;" />
      <stop
         id="stop96"
         offset="1.0000000"
         style="stop-color:#c2c2c2;stop-opacity:1.0000000;" />
    </linearGradient>
    <linearGradient
       xlink:href="#defitem30"
       id="linearGradient3444"
       gradientUnits="userSpaceOnUse"
       gradientTransform="matrix(1,0,0,1.016038,0,-11.73855)"
       x1="287.5"
       y1="636.70697"
       x2="980"
       y2="636.70697" />
    <linearGradient
       gradientUnits="userSpaceOnUse"
       id="defitem27"
       y2="317.44699"
       x2="985.98199"
       y1="403.18799"
       x1="921.091">
      <stop
         id="stop86"
         offset="0.0000000"
         style="stop-color:#7e7e7e;stop-opacity:1.0000000;" />
      <stop
         id="stop87"
         offset="1.0000000"
         style="stop-color:#e5e5e5;stop-opacity:1.0000000;" />
    </linearGradient>
    <linearGradient
       xlink:href="#defitem27"
       id="linearGradient3442"
       gradientUnits="userSpaceOnUse"
       x1="921.091"
       y1="403.18799"
       x2="985.98199"
       y2="317.44699" />
    <linearGradient
       gradientUnits="userSpaceOnUse"
       id="defitem26"
       y2="360.27499"
       x2="293.37"
       y1="346.30399"
       x1="530.76099">
      <stop
         id="stop83"
         offset="0.0000000"
         style="stop-color:#5f5f5f;stop-opacity:1.0000000;" />
      <stop
         id="stop84"
         offset="1.0000000"
         style="stop-color:#e5e5e5;stop-opacity:1.0000000;" />
    </linearGradient>
    <linearGradient
       xlink:href="#defitem26"
       id="linearGradient3440"
       gradientUnits="userSpaceOnUse"
       x1="530.76099"
       y1="346.30399"
       x2="293.37"
       y2="360.27499" />
    <linearGradient
       gradientUnits="userSpaceOnUse"
       id="defitem25"
       y2="337.60999"
       x2="308.75"
       y1="412.91901"
       x1="164.013">
      <stop
         id="stop80"
         offset="0.0000000"
         style="stop-color:#ffffff;stop-opacity:1.0000000;" />
      <stop
         id="stop81"
         offset="1.0000000"
         style="stop-color:#bfbfbf;stop-opacity:1.0000000;" />
    </linearGradient>
    <linearGradient
       xlink:href="#defitem25"
       id="linearGradient3438"
       gradientUnits="userSpaceOnUse"
       x1="164.013"
       y1="412.91901"
       x2="308.75"
       y2="337.60999" />
    <linearGradient
       gradientUnits="userSpaceOnUse"
       id="defitem24"
       y2="380.47198"
       x2="992.48901"
       y1="270.854"
       x1="1094.25">
      <stop
         id="stop77"
         offset="0.0000000"
         style="stop-color:#6a6a6a;stop-opacity:1.0000000;" />
      <stop
         id="stop78"
         offset="1.0000000"
         style="stop-color:#e6e6e6;stop-opacity:1.0000000;" />
    </linearGradient>
    <linearGradient
       xlink:href="#defitem24"
       id="linearGradient3436"
       gradientUnits="userSpaceOnUse"
       x1="1094.25"
       y1="270.854"
       x2="992.48901"
       y2="380.47198" />
    <linearGradient
       gradientUnits="userSpaceOnUse"
       id="defitem23"
       y2="549.37799"
       x2="1049.84"
       y1="476.465"
       x1="1170.91">
      <stop
         id="stop74"
         offset="0.0000000"
         style="stop-color:#5f5f5f;stop-opacity:1.0000000;" />
      <stop
         id="stop75"
         offset="1.0000000"
         style="stop-color:#ebebeb;stop-opacity:1.0000000;" />
    </linearGradient>
    <linearGradient
       xlink:href="#defitem23"
       id="linearGradient3434"
       gradientUnits="userSpaceOnUse"
       x1="1170.91"
       y1="476.465"
       x2="1049.84"
       y2="549.37799" />
    <linearGradient
       gradientUnits="userSpaceOnUse"
       id="defitem22"
       y2="313.276"
       x2="576.14899"
       y1="105.486"
       x1="783.716">
      <stop
         id="stop71"
         offset="0.0000000"
         style="stop-color:#5a5a5a;stop-opacity:1.0000000;" />
      <stop
         id="stop72"
         offset="1.0000000"
         style="stop-color:#c7c7c7;stop-opacity:1.0000000;" />
    </linearGradient>
    <linearGradient
       xlink:href="#defitem22"
       id="linearGradient3432"
       gradientUnits="userSpaceOnUse"
       x1="783.716"
       y1="105.486"
       x2="576.14899"
       y2="313.276" />
    <linearGradient
       gradientUnits="userSpaceOnUse"
       id="defitem21"
       y2="484.716"
       x2="128.05499"
       y1="418.698"
       x1="280.04401">
      <stop
         id="stop68"
         offset="0.0000000"
         style="stop-color:#666666;stop-opacity:1.0000000;" />
      <stop
         id="stop69"
         offset="1.0000000"
         style="stop-color:#d8d8d8;stop-opacity:1.0000000;" />
    </linearGradient>
    <linearGradient
       xlink:href="#defitem21"
       id="linearGradient3430"
       gradientUnits="userSpaceOnUse"
       x1="280.04401"
       y1="418.698"
       x2="128.05499"
       y2="484.716" />
    <linearGradient
       gradientUnits="userSpaceOnUse"
       id="defitem20"
       y2="584.40997"
       x2="220"
       y1="636.95398"
       x1="129.687">
      <stop
         id="stop65"
         offset="0.0000000"
         style="stop-color:#ffffff;stop-opacity:1.0000000;" />
      <stop
         id="stop66"
         offset="1.0000000"
         style="stop-color:#bbbbbb;stop-opacity:1.0000000;" />
    </linearGradient>
    <linearGradient
       xlink:href="#defitem20"
       id="linearGradient3428"
       gradientUnits="userSpaceOnUse"
       x1="129.687"
       y1="636.95398"
       x2="220"
       y2="584.40997" />
    <linearGradient
       gradientUnits="userSpaceOnUse"
       id="defitem19"
       y2="583.75299"
       x2="1127.98"
       y1="629.02802"
       x1="1048.72">
      <stop
         id="stop62"
         offset="0.0000000"
         style="stop-color:#5e5e5e;stop-opacity:1.0000000;" />
      <stop
         id="stop63"
         offset="1.0000000"
         style="stop-color:#ededed;stop-opacity:1.0000000;" />
    </linearGradient>
    <linearGradient
       xlink:href="#defitem19"
       id="linearGradient3426"
       gradientUnits="userSpaceOnUse"
       x1="1048.72"
       y1="629.02802"
       x2="1127.98"
       y2="583.75299" />
    <linearGradient
       gradientUnits="userSpaceOnUse"
       id="defitem18"
       y2="291.97699"
       x2="581.32397"
       y1="387.27301"
       x1="370.022">
      <stop
         id="stop59"
         offset="0.0000000"
         style="stop-color:#636363;stop-opacity:1.0000000;" />
      <stop
         id="stop60"
         offset="1.0000000"
         style="stop-color:#d6d6d6;stop-opacity:1.0000000;" />
    </linearGradient>
    <linearGradient
       xlink:href="#defitem18"
       id="linearGradient3424"
       gradientUnits="userSpaceOnUse"
       x1="370.022"
       y1="387.27301"
       x2="581.32397"
       y2="291.97699" />
    <linearGradient
       gradientUnits="userSpaceOnUse"
       id="defitem17"
       y2="351.939"
       x2="909.59399"
       y1="351.939"
       x1="732.15601">
      <stop
         id="stop56"
         offset="0.0000000"
         style="stop-color:#676767;stop-opacity:1.0000000;" />
      <stop
         id="stop57"
         offset="1.0000000"
         style="stop-color:#d3d3d3;stop-opacity:1.0000000;" />
    </linearGradient>
    <linearGradient
       xlink:href="#defitem17"
       id="linearGradient3422"
       gradientUnits="userSpaceOnUse"
       x1="732.15601"
       y1="351.939"
       x2="909.59399"
       y2="351.939" />
    <linearGradient
       gradientUnits="userSpaceOnUse"
       id="defitem16"
       y2="494.71301"
       x2="1073.01"
       y1="494.71301"
       x1="1014.43">
      <stop
         id="stop53"
         offset="0.0000000"
         style="stop-color:#666666;stop-opacity:1.0000000;" />
      <stop
         id="stop54"
         offset="1.0000000"
         style="stop-color:#dcdcdc;stop-opacity:1.0000000;" />
    </linearGradient>
    <linearGradient
       xlink:href="#defitem16"
       id="linearGradient3420"
       gradientUnits="userSpaceOnUse"
       x1="1014.43"
       y1="494.71301"
       x2="1073.01"
       y2="494.71301" />
    <linearGradient
       gradientUnits="userSpaceOnUse"
       id="defitem15"
       y2="516.37"
       x2="193.27699"
       y1="452.388"
       x1="272.59201">
      <stop
         id="stop50"
         offset="0.0000000"
         style="stop-color:#6e6e6e;stop-opacity:1.0000000;" />
      <stop
         id="stop51"
         offset="1.0000000"
         style="stop-color:#d8d8d8;stop-opacity:1.0000000;" />
    </linearGradient>
    <linearGradient
       xlink:href="#defitem15"
       id="linearGradient3418"
       gradientUnits="userSpaceOnUse"
       x1="272.59201"
       y1="452.388"
       x2="193.27699"
       y2="516.37" />
    <radialGradient
       gradientUnits="userSpaceOnUse"
       id="defitem14"
       fy="211.088"
       fx="1037.22"
       r="1164.28"
       cy="211.088"
       cx="1037.22">
      <stop
         id="stop47"
         offset="0.0000000"
         style="stop-color:#ffffff;stop-opacity:1.0000000;" />
      <stop
         id="stop48"
         offset="1.0000000"
         style="stop-color:#aaaaaa;stop-opacity:1.0000000;" />
    </radialGradient>
    <radialGradient
       xlink:href="#defitem14"
       id="radialGradient3416"
       gradientUnits="userSpaceOnUse"
       cx="1037.22"
       cy="211.088"
       fx="1037.22"
       fy="211.088"
       r="1164.28" />
    <linearGradient
       gradientUnits="userSpaceOnUse"
       id="defitem13"
       y2="686.83002"
       x2="379.241"
       y1="732.12903"
       x1="342.64999">
      <stop
         id="stop44"
         offset="0.0000000"
         style="stop-color:#ffffff;stop-opacity:1.0000000;" />
      <stop
         id="stop45"
         offset="1.0000000"
         style="stop-color:#989898;stop-opacity:1.0000000;" />
    </linearGradient>
    <linearGradient
       xlink:href="#defitem13"
       id="linearGradient3414"
       gradientUnits="userSpaceOnUse"
       x1="342.64999"
       y1="732.12903"
       x2="379.241"
       y2="686.83002" />
    <radialGradient
       gradientUnits="userSpaceOnUse"
       id="defitem12"
       fy="484.409"
       fx="632.78101"
       r="540.27899"
       cy="484.409"
       cx="632.78101">
      <stop
         id="stop41"
         offset="0.0000000"
         style="stop-color:#ffffff;stop-opacity:1.0000000;" />
      <stop
         id="stop42"
         offset="1.0000000"
         style="stop-color:#ededed;stop-opacity:1.0000000;" />
    </radialGradient>
    <radialGradient
       xlink:href="#defitem12"
       id="radialGradient3412"
       gradientUnits="userSpaceOnUse"
       cx="632.78101"
       cy="484.409"
       fx="632.78101"
       fy="484.409"
       r="540.27899" />
    <radialGradient
       xlink:href="#linearGradient3682"
       id="radialGradient3817"
       gradientUnits="userSpaceOnUse"
       gradientTransform="matrix(1.1149219,0.2722306,-0.7507171,3.0745639,-471.08629,-148.32863)"
       cx="270.58316"
       cy="33.899986"
       fx="270.58316"
       fy="33.899986"
       r="19.571428" />
    <linearGradient
       id="linearGradient3682">
      <stop
         style="stop-color:#ff6d0f;stop-opacity:1;"
         offset="0"
         id="stop3684" />
      <stop
         style="stop-color:#ff1000;stop-opacity:1;"
         offset="1"
         id="stop3686" />
    </linearGradient>
    <radialGradient
       xlink:href="#linearGradient3864"
       id="radialGradient3661"
       gradientUnits="userSpaceOnUse"
       gradientTransform="matrix(0.6186598,0.9666542,-1.0332462,0.6612786,-327.27568,-255.84136)"
       cx="282.64584"
       cy="29.149046"
       fx="282.64584"
       fy="29.149046"
       r="19.571428" />
    <linearGradient
       id="linearGradient3864">
      <stop
         id="stop3866"
         offset="0"
         style="stop-color:#71b2f8;stop-opacity:1;" />
      <stop
         id="stop3868"
         offset="1"
         style="stop-color:#002795;stop-opacity:1;" />
    </linearGradient>
  </defs>
  <path
     style="color:#000000;font-style:normal;font-variant:normal;font-weight:normal;font-stretch:normal;font-size:medium;line-height:normal;font-family:sans-serif;font-variant-ligatures:normal;font-variant-position:normal;font-variant-caps:normal;font-variant-numeric:normal;font-variant-alternates:normal;font-variant-east-asian:normal;font-feature-settings:normal;font-variation-settings:normal;text-indent:0;text-align:start;text-decoration:none;text-decoration-line:none;text-decoration-style:solid;text-decoration-color:#000000;letter-spacing:normal;word-spacing:normal;text-transform:none;writing-mode:lr-tb;direction:ltr;text-orientation:mixed;dominant-baseline:auto;baseline-shift:baseline;text-anchor:start;white-space:normal;shape-padding:0;shape-margin:0;inline-size:0;clip-rule:nonzero;display:inline;overflow:visible;visibility:visible;isolation:auto;mix-blend-mode:normal;color-interpolation:sRGB;color-interpolation-filters:linearRGB;solid-color:#000000;solid-opacity:1;vector-effect:none;fill:#000000;fill-opacity:1;fill-rule:nonzero;stroke:none;stroke-width:0.999996;stroke-linecap:butt;stroke-linejoin:miter;stroke-miterlimit:4;stroke-dasharray:none;stroke-dashoffset:0;stroke-opacity:1;color-rendering:auto;image-rendering:auto;shape-rendering:auto;text-rendering:auto;enable-background:accumulate;stop-color:#000000"
     d="m 743.7909,538.15039 -2.41027,1.05931 c 0.0604,0.13298 0.088,0.19132 0.088,0.19132 l 2.41031,-1.0593 c 0,0 -0.0302,-0.0606 -0.088,-0.19133 z"
     id="path22875" />
  <path
     style="color:#000000;font-style:normal;font-variant:normal;font-weight:normal;font-stretch:normal;font-size:medium;line-height:normal;font-family:sans-serif;font-variant-ligatures:normal;font-variant-position:normal;font-variant-caps:normal;font-variant-numeric:normal;font-variant-alternates:normal;font-variant-east-asian:normal;font-feature-settings:normal;font-variation-settings:normal;text-indent:0;text-align:start;text-decoration:none;text-decoration-line:none;text-decoration-style:solid;text-decoration-color:#000000;letter-spacing:normal;word-spacing:normal;text-transform:none;writing-mode:lr-tb;direction:ltr;text-orientation:mixed;dominant-baseline:auto;baseline-shift:baseline;text-anchor:start;white-space:normal;shape-padding:0;shape-margin:0;inline-size:0;clip-rule:nonzero;display:inline;overflow:visible;visibility:visible;isolation:auto;mix-blend-mode:normal;color-interpolation:sRGB;color-interpolation-filters:linearRGB;solid-color:#000000;solid-opacity:1;vector-effect:none;fill:#000000;fill-opacity:1;fill-rule:nonzero;stroke:none;stroke-width:0.999996;stroke-linecap:butt;stroke-linejoin:miter;stroke-miterlimit:4;stroke-dasharray:none;stroke-dashoffset:0;stroke-opacity:1;color-rendering:auto;image-rendering:auto;shape-rendering:auto;text-rendering:auto;enable-background:accumulate;stop-color:#000000"
     d="m 743.67997,538.03999 -2.3955,1.08882 c 0.0604,0.1273 0.10345,0.21709 0.13252,0.2796 0.0302,0.0606 0.0446,0.10267 0.0446,0.10267 l 2.51308,-0.54461 c 0,0 -0.13252,-0.58307 -0.16197,-0.64714 -0.0302,-0.0678 -0.0748,-0.15306 -0.13252,-0.27922 z"
     id="path22865" />
  <path
     id="34-9"
     style="fill:none;stroke:#000000;stroke-width:0.793751;stroke-linecap:butt;stroke-linejoin:miter;stroke-miterlimit:4;stroke-dasharray:none"
     d="M 61.599646,674.75708 V 402.79441 M 99.741907,612.74548 V 464.80601 M 1423.6599,674.75708 V 402.79441 m -38.1423,209.95107 V 464.80601 M 194.86054,735.89181 h 240.21838 m 0,0 h 615.10168 m 0,0 h 240.2184 m 193.5406,0 h -0.2288 -0.6967 -1.1631 -1.6252 -2.0918 -2.5547 -3.0173 -3.4802 -3.9467 -4.4055 -4.8723 -5.3311 -5.794 -6.2529 m -1391.699736,0 H 40.526965 34.733014 29.401824 24.529638 20.123976 16.177317 12.697184 9.6798132 7.125207 5.0333647 3.4080481 2.2454953 1.5494687 1.3199679 M 1423.6599,402.79441 c 2.1181,-14.96798 4.4696,-27.61798 6.9941,-37.97378 1.2603,-5.1696 2.5621,-9.74636 3.8714,-13.62141 1.3093,-3.87126 2.6299,-7.05138 3.9542,-9.53957 m -14.8197,61.13476 -3.4426,3.93491 -3.3371,4.02273 -3.2356,4.10703 -3.1265,4.18882 -3.0211,4.2679 -2.9083,4.34434 -2.7954,4.41781 -2.6825,4.48824 -2.5659,4.55564 -2.4455,4.62009 -2.3289,4.68146 -2.2084,4.74022 -2.0844,4.79523 -1.9601,4.84718 m 0,147.93947 -19.1953,-10.17463 -16.3322,-10.35505 -13.4239,-10.50569 -10.4817,-10.62707 -7.5096,-10.71831 -4.5148,-10.77922 -1.5049,-10.8098 1.5049,-10.80976 4.5148,-10.77923 7.5096,-10.7183 10.4817,-10.62704 13.4239,-10.50568 16.3322,-10.35498 19.1953,-10.17463 m 38.1423,209.95107 -3.4426,-3.93495 -3.3371,-4.02269 -3.2356,-4.10707 -3.1265,-4.18879 -3.0211,-4.26789 -2.9083,-4.34435 -2.7954,-4.41781 -2.6825,-4.48824 -2.5659,-4.55564 -2.4455,-4.62008 -2.3289,-4.68146 -2.2084,-4.74022 -2.0844,-4.79524 -1.9601,-4.84725 m 38.1423,62.01168 c 2.1181,14.96794 4.4696,27.61795 6.9941,37.97376 1.2603,5.16959 2.5621,9.74633 3.8714,13.62138 1.3093,3.8713 2.6299,7.05132 3.9542,9.53951 m -148.0806,0 h 148.0806 M 1290.399,341.65965 v 12.96225 19.49048 25.32829 30.26772 34.13413 36.79031 38.14288 38.14296 36.7903 34.13409 30.26783 25.32822 19.49046 12.96224 m -1243.619081,0 H 194.86054 m -148.080621,0 c 2.652429,-4.99512 5.259706,-12.67335 7.784212,-22.98658 1.260371,-5.16284 2.498172,-10.99764 3.679536,-17.37103 1.177603,-6.36656 2.295009,-13.29222 3.355979,-20.77712 m 38.142261,-62.0116 -1.96016,4.84718 -2.08432,4.79523 -2.20847,4.74022 -2.328869,4.68146 -2.445499,4.62016 -2.565893,4.55564 -2.682524,4.48817 -2.795394,4.41788 -2.908263,4.34428 -3.021134,4.26796 -3.126475,4.18879 -3.235584,4.10699 -3.337166,4.0227 -3.44251,3.93494 m 38.142261,-209.95107 19.195283,10.17464 16.33218,10.35505 13.4239,10.50568 10.4818,10.62704 7.50955,10.7183 4.51477,10.77923 1.50493,10.80976 -1.50493,10.8098 -4.51477,10.77922 -7.50955,10.71831 -10.4818,10.62707 -13.4239,10.50569 -16.33218,10.35505 -19.195283,10.17463 m 0,-147.93947 -1.96016,-4.84718 -2.08432,-4.79523 -2.20847,-4.74022 -2.328869,-4.68146 -2.445499,-4.62009 -2.565893,-4.55564 -2.682524,-4.48824 -2.795394,-4.41781 -2.908263,-4.34434 -3.021134,-4.2679 -3.126475,-4.18882 -3.235584,-4.10703 -3.337166,-4.02273 -3.44251,-3.93491 M 46.779919,341.65965 c 2.652429,4.99522 5.259706,12.67336 7.784212,22.9866 1.260371,5.16282 2.498172,10.9976 3.679536,17.37104 1.177603,6.3666 2.295009,13.29218 3.355979,20.77712 m 133.260894,333.0974 v -12.96224 -19.49046 -25.32829 -30.26776 -34.13409 -36.7903 -38.14296 -38.14288 -36.79031 -34.13413 -30.26772 -25.32829 -19.49048 -12.96225 m -193.5405721,0 h 0.229501 0.6960269 1.162553 1.6253163 2.0918427 2.5546062 3.01737 3.480133 3.946659 4.405662 4.872186 5.33119 5.793951 6.252954 m 1391.699681,0 h 6.2529 5.7941 5.3311 4.8722 4.4056 3.9467 3.4802 3.0172 2.5547 2.0919 1.6252 1.163 0.6967 0.2288 m -193.5406,0 H 1438.48 m -388.2991,0 h 240.2184 m -855.32004,0 h 615.10164 m -855.32001,0 h 240.21837 m -388.298982,0 H 194.86046 M 1.3199679,735.89181 V 341.65965 M 1483.9396,735.89181 V 341.65965" />
  <path
     style="color:#000000;font-style:normal;font-variant:normal;font-weight:normal;font-stretch:normal;font-size:medium;line-height:normal;font-family:sans-serif;font-variant-ligatures:normal;font-variant-position:normal;font-variant-caps:normal;font-variant-numeric:normal;font-variant-alternates:normal;font-variant-east-asian:normal;font-feature-settings:normal;font-variation-settings:normal;text-indent:0;text-align:start;text-decoration:none;text-decoration-line:none;text-decoration-style:solid;text-decoration-color:#000000;letter-spacing:normal;word-spacing:normal;text-transform:none;writing-mode:lr-tb;direction:ltr;text-orientation:mixed;dominant-baseline:auto;baseline-shift:baseline;text-anchor:start;white-space:normal;shape-padding:0;shape-margin:0;inline-size:0;clip-rule:nonzero;display:inline;overflow:visible;visibility:visible;isolation:auto;mix-blend-mode:normal;color-interpolation:sRGB;color-interpolation-filters:linearRGB;solid-color:#000000;solid-opacity:1;vector-effect:none;fill:#c8c8c8;fill-opacity:1;fill-rule:nonzero;stroke:none;stroke-width:0.350001;stroke-linecap:butt;stroke-linejoin:miter;stroke-miterlimit:4;stroke-dasharray:none;stroke-dashoffset:0;stroke-opacity:1;color-rendering:auto;image-rendering:auto;shape-rendering:auto;text-rendering:auto;enable-background:accumulate;stop-color:#000000"
     d="M 733.35243,8.5060089 C 610.32248,10.467071 488.61515,56.200873 395.2566,135.46489 c -59.89827,50.56864 -108.27376,114.39323 -140.61532,185.425 -3.67908,-0.4949 -5.99522,2.26527 -5.67355,5.7968 0.88911,5.78359 -7.07585,2.18653 -10.59376,3.30109 -9.38063,0.1678 -18.76156,0.32506 -28.14198,0.50169 1.28639,3.73815 -1.40198,7.08756 -0.48911,11.03239 0,33.51954 0,67.03911 0,100.55869 -3.83266,0.52109 -9.73581,-1.00596 -12.34075,0.72965 0.0907,3.31539 -2.08589,6.1868 -1.29604,9.71625 0,60.64811 0,121.29603 0,181.94411 4.04583,-1.80915 7.45456,2.30121 11.62079,0.61285 4.30815,0.2921 0.95721,8.16109 2.016,11.66762 0,33.15594 0,66.31185 0,99.46791 3.98759,-1.78528 7.33296,2.18217 11.44794,0.64046 9.16318,0.16102 18.32636,0.32355 27.48945,0.48389 0.52308,5.84927 1.0466,11.6985 1.56956,17.54746 2.32496,-2.93876 5.00877,-11.52119 6.6532,-3.76416 49.1357,105.71647 134.70492,194.32176 239.16576,247.82051 102.89995,53.1509 223.50521,71.8099 337.89648,52.2101 117.09577,-19.7092 226.95853,-79.148 306.49993,-166.45713 37.8222,-41.25699 69.0079,-88.45644 92.0611,-139.26643 3.5935,2.35449 6.187,-3.27477 5.5728,-6.33864 0.6885,-3.89657 8.321,-0.87923 11.8377,-1.95971 8.9181,-0.15874 17.8363,-0.31029 26.7541,-0.47642 -1.437,-3.66929 1.335,-6.9352 0.4033,-10.81029 0,-33.58887 0,-67.17778 0,-100.76673 4.3441,0 8.688,0 13.0321,0 -1.3109,-3.74874 1.5609,-7.02045 0.59,-10.98101 0,-60.4647 0,-120.92956 0,-181.39433 -3.7927,1.2274 -7.0895,-1.58134 -11.088,-0.62717 -5.1473,0.61023 -1.391,-7.58761 -2.5344,-10.93828 0,-33.40379 0,-66.80754 0,-100.21131 -3.734,1.30432 -6.9845,-1.48639 -10.9146,-0.63293 -9.389,-0.16333 -18.7779,-0.32738 -28.1668,-0.49129 -0.9018,-1.86062 -4.7681,-2.87699 -5.2497,-7.63687 C 1185.757,217.69545 1103.4897,129.22896 1002.1153,74.242053 920.359,29.644138 826.7109,6.6449137 733.35296,8.506232 Z"
     id="path20295-8" />
  <g
     id="Ortho_0_0"
     transform="matrix(0,3.7665653,-3.7623065,0,741.10229,538.77575)"
     style="stroke-width:0.210855;stroke-miterlimit:4;stroke-dasharray:none">
    <g
       fill="none"
       stroke="#000000"
       stroke-linecap="butt"
       stroke-linejoin="miter"
       stroke-width="0.7"
       transform="scale(1,-1)"
       id="g20159"
       style="stroke-width:0.210855;stroke-miterlimit:4;stroke-dasharray:none">
      <path
         id="1"
         d="m -54.6463,-141.896 -0.1797,10.298"
         style="stroke-width:0.210855;stroke-miterlimit:4;stroke-dasharray:none" />
      <path
         id="2"
         d="M -54.6463,142.708 -54.826,132.411"
         style="stroke-width:0.210855;stroke-miterlimit:4;stroke-dasharray:none" />
      <path
         id="3"
         d="m 24,142.708 v 3.698"
         style="stroke-width:0.210855;stroke-miterlimit:4;stroke-dasharray:none" />
      <path
         id="4"
         d="m -24,142.708 v 3.698"
         style="stroke-width:0.210855;stroke-miterlimit:4;stroke-dasharray:none" />
      <path
         id="5"
         d="m 24,-145.594 v 3.698"
         style="stroke-width:0.210855;stroke-miterlimit:4;stroke-dasharray:none" />
      <path
         id="6"
         d="m -24,-145.594 v 3.698"
         style="stroke-width:0.210855;stroke-miterlimit:4;stroke-dasharray:none" />
    </g>
    <g
       fill="none"
       stroke="#000000"
       stroke-linecap="butt"
       stroke-linejoin="miter"
       stroke-width="0.7"
       transform="scale(1,-1)"
       id="g20297"
       style="stroke-width:0.210855;stroke-miterlimit:4;stroke-dasharray:none">
      <path
         d="m 1.55567,-141.896 q -1.55567,-0.014 -3.11134,0"
         id="path20161"
         style="stroke-width:0.210855;stroke-miterlimit:4;stroke-dasharray:none" />
      <path
         d="m -1.55567,142.708 q 1.55567,0.015 3.11134,0"
         id="path20163"
         style="stroke-width:0.210855;stroke-miterlimit:4;stroke-dasharray:none" />
      <path
         d="M -53.9422,130.283 A 140.633,140.633 0 0 1 0,-140.227"
         id="path20165"
         style="stroke-width:0.210855;stroke-miterlimit:4;stroke-dasharray:none" />
      <path
         d="m -54.826,132.411 q -3e-4,-0.016 0.0115,-0.028"
         id="path20167"
         style="stroke-width:0.210855;stroke-miterlimit:4;stroke-dasharray:none" />
      <path
         d="m -54.826,132.411 a 142.938,142.938 0 0 1 0,-264.009"
         id="path20169"
         style="stroke-width:0.210855;stroke-miterlimit:4;stroke-dasharray:none" />
      <path
         d="m -54.826,-131.598 c -0.0027,0.102 0.3526,0.057 1.0657,-0.134 0.7165,-0.191 1.7813,-0.521 3.1586,-0.953 0.6898,-0.217 1.461,-0.458 2.3134,-0.722 0.8554,-0.265 1.7836,-0.547 2.7844,-0.845 1.9957,-0.593 4.2467,-1.231 6.7757,-1.88 1.2645,-0.324 2.5984,-0.651 3.9798,-0.969 1.3815,-0.32 2.8097,-0.629 4.2847,-0.928 1.4739,-0.299 2.9964,-0.583 4.5674,-0.854 1.5738,-0.271 3.1928,-0.522 4.8569,-0.755 1.6622,-0.231 3.3636,-0.44 5.0812,-0.621 1.7169,-0.182 3.4523,-0.335 5.2064,-0.46 1.75412,-0.125 3.53137,-0.219 5.33173,-0.284 1.80107,-0.064 3.6274,-0.097 5.4393297,-0.097 3.6238603,0 7.1901103,0.13 10.7275403,0.381 1.7687,0.126 3.5301,0.282 5.2572,0.464 1.7284,0.184 3.4186,0.391 5.0706,0.622 1.6497,0.231 3.2606,0.481 4.8326,0.752 1.5753,0.271 3.1082,0.558 4.5988,0.861 1.4907,0.302 2.925,0.613 4.303,0.933 1.3746,0.318 2.6883,0.638 3.9412,0.961 1.2542,0.323 2.4495,0.643 3.5857,0.961 1.1359,0.317 2.2118,0.629 3.2096,0.925 1.9957,0.593 3.6793,1.124 5.0572,1.555 1.3779,0.432 2.4501,0.764 3.1619,0.954 0.7106,0.191 1.0644,0.235 1.0614,0.133"
         id="path20171"
         style="stroke-width:0.210855;stroke-miterlimit:4;stroke-dasharray:none" />
      <path
         d="m 54.826,-131.598 a 142.938,142.938 0 0 1 0,264.009"
         id="path20173"
         style="stroke-width:0.210855;stroke-miterlimit:4;stroke-dasharray:none" />
      <path
         d="m -54.8145,132.383 c 0.0656,-0.063 0.417,-0.009 1.0542,0.162 0.7165,0.191 1.7813,0.521 3.1586,0.953 0.6898,0.217 1.461,0.457 2.3134,0.722 0.8554,0.265 1.7836,0.547 2.7844,0.845 1.9957,0.593 4.2467,1.231 6.7757,1.879 1.2645,0.325 2.5984,0.651 3.9798,0.97 1.3815,0.319 2.8097,0.629 4.2847,0.928 1.4739,0.298 2.9964,0.583 4.5674,0.853 1.5738,0.271 3.1928,0.523 4.8569,0.756 1.6622,0.231 3.3636,0.44 5.0812,0.621 1.7169,0.182 3.4523,0.335 5.2064,0.459 1.75412,0.125 3.53137,0.22 5.33173,0.285 1.80107,0.064 3.6274,0.096 5.4393297,0.097 3.6238603,0 7.1901103,-0.13 10.7275403,-0.381 1.7687,-0.126 3.5301,-0.282 5.2572,-0.465 1.7284,-0.183 3.4186,-0.39 5.0706,-0.621 1.6497,-0.231 3.2606,-0.482 4.8326,-0.752 1.5753,-0.272 3.1082,-0.559 4.5988,-0.861 1.4907,-0.303 2.925,-0.614 4.303,-0.933 1.3746,-0.318 2.6883,-0.639 3.9412,-0.961 1.2542,-0.323 2.4495,-0.643 3.5857,-0.961 1.1359,-0.317 2.2118,-0.629 3.2096,-0.926 1.9957,-0.593 3.6793,-1.123 5.0572,-1.555 1.3779,-0.431 2.4501,-0.764 3.1619,-0.953 0.7106,-0.191 1.0644,-0.235 1.0614,-0.133"
         id="path20175"
         style="stroke-width:0.210855;stroke-miterlimit:4;stroke-dasharray:none" />
      <path
         d="m 0,-140.227 a 140.633,140.633 0 1 1 -53.9422,270.51"
         id="path20177"
         style="stroke-width:0.210855;stroke-miterlimit:4;stroke-dasharray:none" />
      <circle
         cx="0"
         cy="0.40636301"
         r="136"
         id="circle20179"
         style="stroke-width:0.210855;stroke-miterlimit:4;stroke-dasharray:none" />
      <path
         d="M 0,135.358 A 134.952,134.952 0 0 0 0,-134.545"
         id="path20181"
         style="stroke-width:0.210855;stroke-miterlimit:4;stroke-dasharray:none" />
      <path
         d="M 0,-134.545 A 134.952,134.952 0 0 0 0,135.358"
         id="path20183"
         style="stroke-width:0.210855;stroke-miterlimit:4;stroke-dasharray:none" />
      <path
         id="13"
         d="M 82.4207,-0.27228 71.7178,-40.2163"
         style="stroke-width:0.210855;stroke-miterlimit:4;stroke-dasharray:none" />
      <path
         id="14"
         d="M 131.707,-0.27228 H 82.4207"
         style="stroke-width:0.210855;stroke-miterlimit:4;stroke-dasharray:none" />
      <path
         d="m 114.401,-64.8596 a 131.709,131.709 0 0 1 17.306,64.58732"
         id="path20187"
         style="stroke-width:0.210855;stroke-miterlimit:4;stroke-dasharray:none" />
      <path
         id="16"
         d="M 71.7178,-40.2163 114.401,-64.8596"
         style="stroke-width:0.210855;stroke-miterlimit:4;stroke-dasharray:none" />
      <path
         id="17"
         d="M 17.5586,-28.6488 41.0955,-69.4159"
         style="stroke-width:0.210855;stroke-miterlimit:4;stroke-dasharray:none" />
      <path
         id="18"
         d="M 33.9418,-0.27228 17.5586,-28.6488"
         style="stroke-width:0.210855;stroke-miterlimit:4;stroke-dasharray:none" />
      <path
         id="19"
         d="M 81.0156,-0.27228 H 33.9418"
         style="stroke-width:0.210855;stroke-miterlimit:4;stroke-dasharray:none" />
      <path
         id="20"
         d="M 70.319,-40.1923 81.0156,-0.27228"
         style="stroke-width:0.210855;stroke-miterlimit:4;stroke-dasharray:none" />
      <path
         id="21"
         d="M 41.0955,-69.4159 70.319,-40.1923"
         style="stroke-width:0.210855;stroke-miterlimit:4;stroke-dasharray:none" />
      <path
         id="22"
         d="M 41.7981,-70.6328 66.4414,-113.316"
         style="stroke-width:0.210855;stroke-miterlimit:4;stroke-dasharray:none" />
      <path
         id="23"
         d="M 71.0391,-41.3917 41.7981,-70.6328"
         style="stroke-width:0.210855;stroke-miterlimit:4;stroke-dasharray:none" />
      <path
         id="24"
         d="M 113.723,-66.0351 71.0391,-41.3917"
         style="stroke-width:0.210855;stroke-miterlimit:4;stroke-dasharray:none" />
      <path
         d="m 66.4414,-113.316 a 131.709,131.709 0 0 1 47.2816,47.2809"
         id="path20198"
         style="stroke-width:0.210855;stroke-miterlimit:4;stroke-dasharray:none" />
      <path
         id="26"
         d="M 0.678659,-82.0144 0.680253,-131.301"
         style="stroke-width:0.210855;stroke-miterlimit:4;stroke-dasharray:none" />
      <path
         id="27"
         d="M 40.6226,-71.3114 0.678659,-82.0144"
         style="stroke-width:0.210855;stroke-miterlimit:4;stroke-dasharray:none" />
      <path
         id="28"
         d="M 65.266,-113.995 40.6226,-71.3114"
         style="stroke-width:0.210855;stroke-miterlimit:4;stroke-dasharray:none" />
      <path
         d="M 0.680253,-131.301 A 131.709,131.709 0 0 1 65.266,-113.995"
         id="path20203"
         style="stroke-width:0.210855;stroke-miterlimit:4;stroke-dasharray:none" />
      <path
         id="30"
         d="M -39.9201,-70.0945 0,-80.7911"
         style="stroke-width:0.210855;stroke-miterlimit:4;stroke-dasharray:none" />
      <path
         id="31"
         d="M -16.3832,-29.3274 -39.9201,-70.0945"
         style="stroke-width:0.210855;stroke-miterlimit:4;stroke-dasharray:none" />
      <path
         id="32"
         d="M 16.3832,-29.3274 H -16.3832"
         style="stroke-width:0.210855;stroke-miterlimit:4;stroke-dasharray:none" />
      <path
         id="33"
         d="M 39.9201,-70.0945 16.3832,-29.3274"
         style="stroke-width:0.210855;stroke-miterlimit:4;stroke-dasharray:none" />
      <path
         id="34"
         d="m 0,-80.7911 39.9201,10.6966"
         style="stroke-width:0.210855;stroke-miterlimit:4;stroke-dasharray:none" />
      <path
         id="35"
         d="M -40.6226,-71.3114 -65.266,-113.995"
         style="stroke-width:0.210855;stroke-miterlimit:4;stroke-dasharray:none" />
      <path
         id="36"
         d="M -0.678625,-82.0144 -40.6226,-71.3114"
         style="stroke-width:0.210855;stroke-miterlimit:4;stroke-dasharray:none" />
      <path
         id="37"
         d="m -0.677032,-131.301 -0.001593,49.2866"
         style="stroke-width:0.210855;stroke-miterlimit:4;stroke-dasharray:none" />
      <path
         d="m -65.266,-113.995 a 131.709,131.709 0 0 1 64.588968,-17.306"
         id="path20213"
         style="stroke-width:0.210855;stroke-miterlimit:4;stroke-dasharray:none" />
      <path
         id="39"
         d="M -71.0391,-41.3917 -113.723,-66.0351"
         style="stroke-width:0.210855;stroke-miterlimit:4;stroke-dasharray:none" />
      <path
         id="40"
         d="m -41.7981,-70.6328 -29.241,29.2411"
         style="stroke-width:0.210855;stroke-miterlimit:4;stroke-dasharray:none" />
      <path
         id="41"
         d="m -66.4414,-113.316 24.6433,42.6832"
         style="stroke-width:0.210855;stroke-miterlimit:4;stroke-dasharray:none" />
      <path
         d="m -113.723,-66.0351 a 131.709,131.709 0 0 1 47.2816,-47.2809"
         id="path20218"
         style="stroke-width:0.210855;stroke-miterlimit:4;stroke-dasharray:none" />
      <path
         id="43"
         d="M -71.7178,-40.2163 -82.4207,-0.27228"
         style="stroke-width:0.210855;stroke-miterlimit:4;stroke-dasharray:none" />
      <path
         id="44"
         d="m -114.401,-64.8596 42.6832,24.6433"
         style="stroke-width:0.210855;stroke-miterlimit:4;stroke-dasharray:none" />
      <path
         d="m -131.707,-0.27228 a 131.709,131.709 0 0 1 17.306,-64.58732"
         id="path20222"
         style="stroke-width:0.210855;stroke-miterlimit:4;stroke-dasharray:none" />
      <path
         id="46"
         d="M -82.4207,-0.27228 H -131.707"
         style="stroke-width:0.210855;stroke-miterlimit:4;stroke-dasharray:none" />
      <path
         id="47"
         d="M -81.0156,-0.27228 -70.319,-40.1923"
         style="stroke-width:0.210855;stroke-miterlimit:4;stroke-dasharray:none" />
      <path
         id="48"
         d="M -33.9418,-0.27228 H -81.0156"
         style="stroke-width:0.210855;stroke-miterlimit:4;stroke-dasharray:none" />
      <path
         id="49"
         d="M -17.5586,-28.6488 -33.9418,-0.27228"
         style="stroke-width:0.210855;stroke-miterlimit:4;stroke-dasharray:none" />
      <path
         id="50"
         d="m -41.0955,-69.4159 23.5369,40.7671"
         style="stroke-width:0.210855;stroke-miterlimit:4;stroke-dasharray:none" />
      <path
         id="51"
         d="m -70.319,-40.1923 29.2235,-29.2236"
         style="stroke-width:0.210855;stroke-miterlimit:4;stroke-dasharray:none" />
      <path
         id="52"
         d="M 16.3832,28.7829 H -16.3832"
         style="stroke-width:0.210855;stroke-miterlimit:4;stroke-dasharray:none" />
      <path
         id="53"
         d="M 32.7664,0.406363 16.3832,28.7829"
         style="stroke-width:0.210855;stroke-miterlimit:4;stroke-dasharray:none" />
      <path
         id="54"
         d="M 16.3832,-27.9701 32.7664,0.406363"
         style="stroke-width:0.210855;stroke-miterlimit:4;stroke-dasharray:none" />
      <path
         id="55"
         d="M -16.3832,-27.9701 H 16.3832"
         style="stroke-width:0.210855;stroke-miterlimit:4;stroke-dasharray:none" />
      <path
         id="56"
         d="M -32.7664,0.406363 -16.3832,-27.9701"
         style="stroke-width:0.210855;stroke-miterlimit:4;stroke-dasharray:none" />
      <path
         id="57"
         d="M -16.3832,28.7829 -32.7664,0.406363"
         style="stroke-width:0.210855;stroke-miterlimit:4;stroke-dasharray:none" />
      <path
         id="58"
         d="M -17.5586,29.4615 -41.0955,70.2286"
         style="stroke-width:0.210855;stroke-miterlimit:4;stroke-dasharray:none" />
      <path
         id="59"
         d="m -33.9418,1.085 16.3832,28.3765"
         style="stroke-width:0.210855;stroke-miterlimit:4;stroke-dasharray:none" />
      <path
         id="60"
         d="m -81.0156,1.085 h 47.0738"
         style="stroke-width:0.210855;stroke-miterlimit:4;stroke-dasharray:none" />
      <path
         id="61"
         d="M -70.319,41.0051 -81.0156,1.085"
         style="stroke-width:0.210855;stroke-miterlimit:4;stroke-dasharray:none" />
      <path
         id="62"
         d="M -41.0955,70.2286 -70.319,41.0051"
         style="stroke-width:0.210855;stroke-miterlimit:4;stroke-dasharray:none" />
      <path
         id="63"
         d="M -71.7178,41.029 -114.4,65.6737"
         style="stroke-width:0.210855;stroke-miterlimit:4;stroke-dasharray:none" />
      <path
         id="64"
         d="m -82.4207,1.085 10.7029,39.944"
         style="stroke-width:0.210855;stroke-miterlimit:4;stroke-dasharray:none" />
      <path
         id="65"
         d="m -131.707,1.085 h 49.2863"
         style="stroke-width:0.210855;stroke-miterlimit:4;stroke-dasharray:none" />
      <path
         d="M -114.4,65.6737 A 131.709,131.709 0 0 1 -131.707,1.085"
         id="path20244"
         style="stroke-width:0.210855;stroke-miterlimit:4;stroke-dasharray:none" />
      <path
         id="67"
         d="M -41.7981,71.4455 -66.4414,114.129"
         style="stroke-width:0.210855;stroke-miterlimit:4;stroke-dasharray:none" />
      <path
         id="68"
         d="m -71.0391,42.2045 29.241,29.241"
         style="stroke-width:0.210855;stroke-miterlimit:4;stroke-dasharray:none" />
      <path
         id="69"
         d="M -113.722,66.8492 -71.0391,42.2045"
         style="stroke-width:0.210855;stroke-miterlimit:4;stroke-dasharray:none" />
      <path
         d="M -66.4414,114.129 A 131.709,131.709 0 0 1 -113.722,66.8492"
         id="path20249"
         style="stroke-width:0.210855;stroke-miterlimit:4;stroke-dasharray:none" />
      <path
         id="71"
         d="M -0.678642,82.8271 V 132.114"
         style="stroke-width:0.210855;stroke-miterlimit:4;stroke-dasharray:none" />
      <path
         id="72"
         d="m -40.6226,72.1241 39.943958,10.703"
         style="stroke-width:0.210855;stroke-miterlimit:4;stroke-dasharray:none" />
      <path
         id="73"
         d="M -65.266,114.808 -40.6226,72.1241"
         style="stroke-width:0.210855;stroke-miterlimit:4;stroke-dasharray:none" />
      <path
         d="M -0.678642,132.114 A 131.709,131.709 0 0 1 -65.266,114.808"
         id="path20254"
         style="stroke-width:0.210855;stroke-miterlimit:4;stroke-dasharray:none" />
      <path
         id="75"
         d="M 40.6226,72.1241 65.266,114.808"
         style="stroke-width:0.210855;stroke-miterlimit:4;stroke-dasharray:none" />
      <path
         id="76"
         d="M 0.678642,82.8271 40.6226,72.1241"
         style="stroke-width:0.210855;stroke-miterlimit:4;stroke-dasharray:none" />
      <path
         id="77"
         d="M 0.678642,132.114 V 82.8271"
         style="stroke-width:0.210855;stroke-miterlimit:4;stroke-dasharray:none" />
      <path
         d="M 65.266,114.808 A 131.709,131.709 0 0 1 0.678642,132.114"
         id="path20259"
         style="stroke-width:0.210855;stroke-miterlimit:4;stroke-dasharray:none" />
      <path
         id="79"
         d="M 70.319,41.0051 41.0955,70.2286"
         style="stroke-width:0.210855;stroke-miterlimit:4;stroke-dasharray:none" />
      <path
         id="80"
         d="M 81.0156,1.085 70.319,41.0051"
         style="stroke-width:0.210855;stroke-miterlimit:4;stroke-dasharray:none" />
      <path
         id="81"
         d="M 33.9418,1.085 H 81.0156"
         style="stroke-width:0.210855;stroke-miterlimit:4;stroke-dasharray:none" />
      <path
         id="82"
         d="M 17.5586,29.4615 33.9418,1.085"
         style="stroke-width:0.210855;stroke-miterlimit:4;stroke-dasharray:none" />
      <path
         id="83"
         d="M 41.0955,70.2286 17.5586,29.4615"
         style="stroke-width:0.210855;stroke-miterlimit:4;stroke-dasharray:none" />
      <path
         id="84"
         d="M 39.9201,70.9072 0,81.6038"
         style="stroke-width:0.210855;stroke-miterlimit:4;stroke-dasharray:none" />
      <path
         id="85"
         d="m 16.3832,30.1402 23.5369,40.767"
         style="stroke-width:0.210855;stroke-miterlimit:4;stroke-dasharray:none" />
      <path
         id="86"
         d="M -16.3832,30.1402 H 16.3832"
         style="stroke-width:0.210855;stroke-miterlimit:4;stroke-dasharray:none" />
      <path
         id="87"
         d="m -39.9201,70.9072 23.5369,-40.767"
         style="stroke-width:0.210855;stroke-miterlimit:4;stroke-dasharray:none" />
      <path
         id="88"
         d="M 0,81.6038 -39.9201,70.9072"
         style="stroke-width:0.210855;stroke-miterlimit:4;stroke-dasharray:none" />
      <path
         id="89"
         d="M 114.401,65.6723 71.7178,41.029"
         style="stroke-width:0.210855;stroke-miterlimit:4;stroke-dasharray:none" />
      <path
         d="M 131.707,1.085 A 131.709,131.709 0 0 1 114.401,65.6723"
         id="path20272"
         style="stroke-width:0.210855;stroke-miterlimit:4;stroke-dasharray:none" />
      <path
         id="91"
         d="M 82.4207,1.085 H 131.707"
         style="stroke-width:0.210855;stroke-miterlimit:4;stroke-dasharray:none" />
      <path
         id="92"
         d="M 71.7178,41.029 82.4207,1.085"
         style="stroke-width:0.210855;stroke-miterlimit:4;stroke-dasharray:none" />
      <path
         id="93"
         d="M 71.0391,42.2045 113.723,66.8478"
         style="stroke-width:0.210855;stroke-miterlimit:4;stroke-dasharray:none" />
      <path
         id="94"
         d="m 41.7981,71.4455 29.241,-29.241"
         style="stroke-width:0.210855;stroke-miterlimit:4;stroke-dasharray:none" />
      <path
         id="95"
         d="M 66.4414,114.129 41.7981,71.4455"
         style="stroke-width:0.210855;stroke-miterlimit:4;stroke-dasharray:none" />
      <path
         d="M 113.723,66.8478 A 131.709,131.709 0 0 1 66.4414,114.129"
         id="path20279"
         style="stroke-width:0.210855;stroke-miterlimit:4;stroke-dasharray:none" />
      <path
         d="m -54.6463,-141.896 h 1.3701 4.0416 6.5104 8.6528 10.3613 11.5502 H 0 h 12.1599 11.5502 10.3613 8.6528 6.5104 4.0416 1.3701"
         id="path20281"
         style="stroke-width:0.210855;stroke-miterlimit:4;stroke-dasharray:none" />
      <path
         d="m 54.6463,-141.896 0.1797,10.298"
         id="path20283"
         style="stroke-width:0.210855;stroke-miterlimit:4;stroke-dasharray:none" />
      <path
         d="m -54.6463,142.708 h 1.3701 4.0416 6.5104 8.6528 10.3613 11.5502 H 0 h 12.1599 11.5502 10.3613 8.6528 6.5104 4.0416 1.3701"
         id="path20285"
         style="stroke-width:0.210855;stroke-miterlimit:4;stroke-dasharray:none" />
      <path
         d="M 54.6463,142.708 54.826,132.411"
         id="path20287"
         style="stroke-width:0.210855;stroke-miterlimit:4;stroke-dasharray:none" />
      <path
         d="M 24,146.406 H 23.8613 23.4468 22.7612 21.8125 20.6117 19.1726 17.5119 15.6488 13.6048 11.4035 9.07043 6.63249 4.11788 1.55567"
         id="path20289"
         style="stroke-width:0.210855;stroke-miterlimit:4;stroke-dasharray:none" />
      <path
         d="m 1.55567,146.406 h -2.80234 -2.78534 -2.73037 -2.63816 -2.50996 -2.3476 -2.1532 -1.9295 -1.6794 -1.4064 -1.1142 -0.807 -0.4886 H -24"
         id="path20291"
         style="stroke-width:0.210855;stroke-miterlimit:4;stroke-dasharray:none" />
      <path
         d="m 1.55567,-145.594 h -2.80234 -2.78534 -2.73037 -2.63816 -2.50996 -2.3476 -2.1532 -1.9295 -1.6794 -1.4064 -1.1142 -0.807 -0.4886 H -24"
         id="path20293"
         style="stroke-width:0.210855;stroke-miterlimit:4;stroke-dasharray:none" />
      <path
         d="M 24,-145.594 H 23.8613 23.4468 22.7612 21.8125 20.6117 19.1726 17.5119 15.6488 13.6048 11.4035 9.07043 6.63249 4.11788 1.55567"
         id="path20295"
         style="stroke-width:0.210855;stroke-miterlimit:4;stroke-dasharray:none" />
    </g>
  </g>
  <circle
     style="fill:#ff0000;fill-opacity:0.958427;stroke:#000000;stroke-width:0.999991;paint-order:fill markers stroke;stop-color:#000000"
     id="path3104"
     sodipodi:type="arc"
     sodipodi:cx="742.62976"
     sodipodi:cy="538.77576"
     sodipodi:rx="9.5015583"
     sodipodi:ry="9.5015879"
     sodipodi:start="0.57990659"
     sodipodi:end="0.57946851"
     sodipodi:arc-type="slice"
     d="m 750.57795,543.98211 a 9.5015583,9.5015879 0 0 1 -13.15366,2.74243 9.5015583,9.5015879 0 0 1 -2.74385,-13.1534 9.5015583,9.5015879 0 0 1 13.15305,-2.7453 9.5015583,9.5015879 0 0 1 2.74674,13.15279 l -7.95047,-5.20287 z" />
</svg>
