<?xml version="1.0" encoding="UTF-8" standalone="no"?>
<svg
   width="393.99997mm"
   height="445.28345mm"
   viewBox="0 0 393.99997 445.28344"
   version="1.1"
   id="svg4309"
   inkscape:version="1.1.1 (3bf5ae0d25, 2021-09-20)"
   sodipodi:docname="spiider.svg"
   xmlns:inkscape="http://www.inkscape.org/namespaces/inkscape"
   xmlns:sodipodi="http://sodipodi.sourceforge.net/DTD/sodipodi-0.dtd"
   xmlns="http://www.w3.org/2000/svg"
   xmlns:svg="http://www.w3.org/2000/svg"
   xmlns:rdf="http://www.w3.org/1999/02/22-rdf-syntax-ns#"
   xmlns:cc="http://creativecommons.org/ns#"
   xmlns:dc="http://purl.org/dc/elements/1.1/">
  <defs
     id="defs4303">
    <inkscape:path-effect
       effect="simplify"
       id="path-effect1595"
       is_visible="true"
       lpeversion="1"
       steps="1"
       threshold="0.00108696"
       smooth_angles="360"
       helper_size="0"
       simplify_individual_paths="false"
       simplify_just_coalesce="false" />
  </defs>
  <sodipodi:namedview
     id="base"
     pagecolor="#ffffff"
     bordercolor="#666666"
     borderopacity="1.0"
     inkscape:pageopacity="0.0"
     inkscape:pageshadow="2"
     inkscape:zoom="0.45254834"
     inkscape:cx="131.47767"
     inkscape:cy="604.35533"
     inkscape:document-units="mm"
     inkscape:current-layer="layer1"
     inkscape:document-rotation="0"
     showgrid="false"
     inkscape:window-width="1920"
     inkscape:window-height="1035"
     inkscape:window-x="0"
     inkscape:window-y="45"
     inkscape:window-maximized="1"
     inkscape:pagecheckerboard="0" />
  <metadata
     id="metadata4306">
    <rdf:RDF>
      <cc:Work
         rdf:about="">
        <dc:format>image/svg+xml</dc:format>
        <dc:type
           rdf:resource="http://purl.org/dc/dcmitype/StillImage" />
      </cc:Work>
    </rdf:RDF>
  </metadata>
  <g
     inkscape:label="Layer 1"
     inkscape:groupmode="layer"
     id="layer1"
     transform="translate(433.38948,-15.219666)">
    <g
       id="g1491"
       transform="matrix(0.98606511,0,0,-1,-413.38765,113.21983)"
       style="stroke-width:1.00704">
      <path
         style="color:#000000;font-style:normal;font-variant:normal;font-weight:normal;font-stretch:normal;font-size:medium;line-height:normal;font-family:sans-serif;font-variant-ligatures:normal;font-variant-position:normal;font-variant-caps:normal;font-variant-numeric:normal;font-variant-alternates:normal;font-variant-east-asian:normal;font-feature-settings:normal;font-variation-settings:normal;text-indent:0;text-align:start;text-decoration:none;text-decoration-line:none;text-decoration-style:solid;text-decoration-color:#000000;letter-spacing:normal;word-spacing:normal;text-transform:none;writing-mode:lr-tb;direction:ltr;text-orientation:mixed;dominant-baseline:auto;baseline-shift:baseline;text-anchor:start;white-space:normal;shape-padding:0;shape-margin:0;inline-size:0;clip-rule:nonzero;display:inline;overflow:visible;visibility:visible;opacity:1;isolation:auto;mix-blend-mode:normal;color-interpolation:sRGB;color-interpolation-filters:linearRGB;solid-color:#000000;solid-opacity:1;vector-effect:none;fill:#c8c8c8;fill-opacity:1;fill-rule:nonzero;stroke:#000004;stroke-width:0.266448;stroke-linecap:butt;stroke-linejoin:miter;stroke-miterlimit:4;stroke-dasharray:none;stroke-dashoffset:0;stroke-opacity:1;color-rendering:auto;image-rendering:auto;shape-rendering:auto;text-rendering:auto;enable-background:accumulate;stop-color:#000000;stop-opacity:1"
         d="m 156.69325,0.13251038 v 0.17440701 h -0.17576 V 3.8878948 H 88.732155 85.765981 33.595455 v 0.1743957 l -0.09474,-0.14727 -0.803746,0.4980112 -0.793878,0.4941223 -0.78597,0.4863838 -0.778084,0.4825043 -0.766224,0.4766902 -0.760299,0.4708765 -0.748458,0.4650627 -0.740552,0.4592487 -0.732655,0.4534349 -0.720805,0.4476209 -0.712909,0.4418067 -0.703029,0.4359935 -0.693162,0.4321233 -0.685255,0.4243755 0.09474,0.147262 -0.142181,-0.10464 c -0.889568,1.183933 -1.70664,2.442752 -2.452722,3.801895 l 0.0081,0.004 c -0.0081,0.0142 -0.01789,0.02463 -0.02567,0.03878 l -0.004,-0.002 c -0.0051,0.0089 -0.0091,0.02015 -0.01386,0.02906 -0.0071,0.01251 -0.01487,0.02231 -0.02176,0.03494 -0.147187,0.271049 -0.252864,0.61428 -0.394957,0.895242 -0.556531,1.09898 -1.107228,2.201012 -1.567997,3.486054 l 0.02365,0.0079 c -0.03933,0.109334 -0.09585,0.191629 -0.134284,0.302292 h 0.002 c -0.299093,0.856894 -0.567977,1.759537 -0.805727,2.707074 -0.239075,0.951932 -0.435977,1.949562 -0.592446,2.993832 -0.153524,1.043586 -0.259318,2.129327 -0.306092,3.220565 -0.04418,1.030658 -0.02749,2.064977 0.03155,3.102352 H 14.690594 12.585448 10.644212 8.8649037 7.2495152 5.7999985 4.5183549 3.4045545 2.4605992 1.6884504 1.0861365 0.65561915 0.39691841 0.31006469 v 0.174396 h -0.1777722 v 27.004678 h 0.17773155 v 0.172447 h 0.0868538 0.25870081 0.43050725 0.6023139 0.772149 0.9439654 1.1137904 1.2816533 1.4495069 1.6153982 1.779298 1.941237 2.105146 2.083428 c -0.04004,0.962472 -0.05389,1.920513 -0.03155,2.873695 h 0.02176 c 0.0051,0.219657 -0.0103,0.442414 -0.002,0.660784 3.34e-4,0.009 0.002,0.01647 0.002,0.0251 3e-5,6.55e-4 -2e-5,9.92e-4 0,0.002 2.83e-4,0.0071 -2.83e-4,0.01412 0,0.02117 2.33e-4,0.0059 -2.32e-4,0.01176 0,0.01764 h 0.004 c 0.04853,1.203615 0.140877,2.387025 0.2824,3.54805 0.0061,0.04701 0.01587,0.09069 0.02176,0.137589 h -0.004 c 0.11023,0.87791 0.259996,1.698543 0.41076,2.519085 0.04843,0.263728 0.07796,0.545368 0.130331,0.804176 0.001,0.0051 0.003,0.01019 0.004,0.01529 0.221077,1.083474 0.473237,2.12459 0.756355,3.129487 h -0.002 c 0.002,0.0078 0.0061,0.01372 0.0081,0.02117 h -0.002 c 2.33e-4,8.43e-4 0.002,9.92e-4 0.002,0.002 0.002,0.0051 0.002,0.01019 0.004,0.01529 0.002,0.0078 0.004,0.01568 0.0061,0.02313 0.003,0.0098 0.0071,0.01765 0.0101,0.02705 h -0.002 c 0.162212,0.575756 0.393825,1.048625 0.572699,1.598655 0.135267,0.415951 0.288234,0.806654 0.432479,1.209163 0.341117,0.951525 0.631757,1.972063 1.018999,2.862078 l 0.004,-0.002 c 0.0061,0.01372 0.0101,0.03058 0.01576,0.04454 h 0.002 c 0.004,0.0078 0.0061,0.01882 0.0101,0.02706 0.001,0.003 0.002,0.0059 0.004,0.0098 0.779358,1.779885 1.636349,3.42262 2.565279,4.978101 l 0.152061,-0.0872 -0.108612,0.137589 0.685264,0.517388 0.693152,0.525135 0.703039,0.530939 0.712899,0.538699 0.720815,0.54645 0.732645,0.552261 0.740562,0.560018 0.748449,0.565824 0.760298,0.573572 0.766234,0.581332 0.778074,0.587143 0.78597,0.594895 0.793878,0.600705 0.803745,0.606513 0.108613,-0.137589 v 0.174407 h 19.633568 v 6.757837 h 0.177736 v 0.172447 h 0.373242 1.099971 1.7714 2.35398 2.820024 3.141924 3.309784 3.309784 3.141919 2.820024 2.355952 1.771403 1.099967 0.371268 v -0.172447 h 0.177736 v -6.756974 h 2.440863 2.966169 181.534396 2.96419 2.44087 v 6.756974 h 0.17774 v 0.172447 h 0.37324 1.09997 1.7714 2.35398 2.82003 3.14192 3.30978 3.30979 3.14192 2.82002 2.35595 1.77141 1.09996 0.37325 v -0.172447 h 0.17576 v -6.756974 h 19.63356 v -0.176329 l 0.10859,0.139511 0.80375,-0.606513 0.79387,-0.600706 0.78597,-0.594895 0.77808,-0.587142 0.7682,-0.581332 0.75833,-0.573573 0.75043,-0.565824 0.73858,-0.560017 0.73266,-0.552261 0.72277,-0.546451 0.71093,-0.538698 0.70304,-0.530939 0.69513,-0.525136 0.68328,-0.517387 -0.10863,-0.137589 0.15405,0.0872 c 0.003,-0.0039 0.005,-0.009 0.008,-0.01372 7.2e-4,-9.92e-4 10e-4,-0.003 0.002,-0.0039 0.42618,-0.714655 0.78178,-1.530335 1.17699,-2.286561 0.46222,-0.885074 0.96166,-1.724488 1.37644,-2.672174 3.6e-4,-8.31e-4 0.002,-9.92e-4 0.002,-0.002 h -0.002 v -0.002 c 0.003,-0.0078 0.008,-0.01372 0.012,-0.02117 0.002,-0.0039 0.004,-0.009 0.006,-0.01372 0.77461,-1.769161 1.46298,-3.655039 2.04197,-5.71058 h 0.002 c 3.3e-4,-9.92e-4 -3.4e-4,-0.003 0,-0.0039 0.001,-0.0039 0.003,-0.009 0.004,-0.01372 1.8e-4,-5.84e-4 -1.6e-4,-9.92e-4 0,-0.002 0.006,-0.02274 0.0112,-0.0487 0.0178,-0.07171 h 0.002 c 0.0298,-0.105006 0.0501,-0.221617 0.079,-0.327485 0.22194,-0.813182 0.43395,-1.642707 0.61811,-2.517152 4.1e-4,-0.002 0.002,-0.0039 0.002,-0.0059 0.008,-0.03999 0.0116,-0.08591 0.0197,-0.125943 0.0108,-0.05278 0.0267,-0.100104 0.0376,-0.153077 l -0.0101,-0.002 c 0.20382,-0.997173 0.38346,-2.027753 0.52529,-3.11398 l -0.0256,-0.0039 c 0.007,-0.05336 0.0228,-0.09763 0.0298,-0.151156 l 0.0178,0.002 c 0.008,-0.06074 0.0124,-0.125002 0.0197,-0.186013 10e-4,-0.01098 0.005,-0.02 0.006,-0.03098 0.004,-0.03686 0.005,-0.07548 0.0101,-0.112376 0.006,-0.04972 0.0101,-0.101241 0.0159,-0.151156 h 0.006 c 0.009,-0.08066 0.0108,-0.165232 0.0197,-0.246084 0.0372,-0.339835 0.0769,-0.675197 0.10665,-1.023138 0.0364,-0.42747 0.0543,-0.86999 0.079,-1.307989 h 0.0139 c 0.0101,-0.18221 0.0139,-0.365675 0.0217,-0.548391 0.002,-0.0505 0.0101,-0.09861 0.012,-0.149195 h -0.004 c 0.001,-0.03176 0.007,-0.06301 0.008,-0.09497 7.8e-4,-0.02039 -7.6e-4,-0.04149 0,-0.06199 0.001,-0.0345 0.005,-0.06815 0.006,-0.102692 h -0.006 c 0.005,-0.155939 0.0159,-0.310702 0.0197,-0.46701 h -0.0217 c 0.0225,-0.954759 0.0267,-1.91062 -0.0139,-2.873695 h 2.08738 2.10317 1.94321 1.77931 1.61539 1.44753 1.28166 1.11378 0.94397 0.77412 0.60233 0.4305 0.25672 0.0869 v -0.171977 h 0.17774 v -27.00464 h -0.17774 V 31.04793 h -0.0869 -0.25672 -0.4305 -0.60233 -0.77412 -0.94397 -1.11378 -1.28166 -1.44753 -1.61539 -1.77931 -1.94321 -2.10317 -2.0854 c 0.0583,-1.018395 0.0752,-2.034201 0.0337,-3.046158 l -0.16984,0.006 c -0.004,-0.09693 -0.007,-0.191997 -0.012,-0.288733 l 0.16984,-0.0079 c -0.029,-0.584139 -0.17797,-1.042117 -0.23697,-1.600589 -0.0471,-0.457225 0.007,-0.948331 -0.0592,-1.393253 -0.15544,-1.04178 -0.35234,-2.039777 -0.59244,-2.993833 -3.6e-4,-9.92e-4 -0.002,-0.002 -0.002,-0.004 -0.23751,-0.947339 -0.50701,-1.849992 -0.8077,-2.708991 -0.0205,-0.05903 -0.0462,-0.109977 -0.0671,-0.168593 l 0.008,-0.002 c -0.0209,-0.05933 -0.0499,-0.101943 -0.0711,-0.160825 -0.2667,-0.736639 -0.54319,-1.457474 -0.84522,-2.133484 -0.12477,-0.279205 -0.26349,-0.528589 -0.39298,-0.79835 -0.0559,-0.116517 -0.0991,-0.255286 -0.15602,-0.370114 l -0.0217,0.0099 c -0.1739,-0.350878 -0.33944,-0.719774 -0.52135,-1.054143 -0.002,-0.003 -0.002,-0.0069 -0.004,-0.0099 -0.006,-0.0107 -0.0139,-0.01835 -0.0197,-0.02906 -0.002,-0.004 -0.004,-0.0079 -0.006,-0.01161 -0.004,-0.0069 -0.006,-0.01478 -0.0101,-0.02133 l -0.004,0.002 c -0.75651,-1.38614 -1.57865,-2.65882 -2.46332,-3.836819 l -0.14417,0.10464 0.0947,-0.147274 -0.68329,-0.4243642 -0.69315,-0.4321234 -0.70502,-0.435993 -0.71092,-0.4418072 -0.72279,-0.4476208 -0.73067,-0.4534448 -0.74056,-0.4592487 -0.75043,-0.4650627 -0.75832,-0.4708765 -0.76821,-0.4766804 -0.77807,-0.4825043 -0.784,-0.4863838 -0.79585,-0.4941219 -0.80374,-0.4980115 -0.0947,0.1472738 V 3.8881321 H 273.23128 270.2671 202.48175 V 0.30714571 H 202.304 V 0.1327485 h -0.14219 -0.42854 -0.70895 -0.97754 -1.2382 -1.47913 -1.70426 -1.90767 -2.0854 -2.23746 -2.36384 -2.45667 -2.52183 -2.55343 -2.55343 -2.51986 -2.45864 -2.36187 -2.23943 -2.0854 -1.9057 -1.70425 -1.48112 -1.23622 -0.9795 -0.70699 -0.42853 z"
         id="path372" />
      <circle
         style="fill:#ff0000;fill-opacity:0.958427;stroke:#000000;stroke-width:0.266866;stroke-miterlimit:4;stroke-dasharray:none;paint-order:fill markers stroke;stop-color:#000000"
         id="path3104-3-6"
         sodipodi:type="arc"
         sodipodi:cx="179.49947"
         sodipodi:cy="90.925522"
         sodipodi:rx="2.5141263"
         sodipodi:ry="2.5139618"
         sodipodi:start="0.57990659"
         sodipodi:end="0.57946851"
         sodipodi:arc-type="slice"
         d="m 181.60257,92.303037 a 2.5141263,2.5139618 0 0 1 -3.48048,0.7256 2.5141263,2.5139618 0 0 1 -0.72603,-3.480169 2.5141263,2.5139618 0 0 1 3.48032,-0.726362 2.5141263,2.5139618 0 0 1 0.72679,3.480009 l -2.1037,-1.376593 z" />
    </g>
    <g
       id="g1349"
       transform="matrix(0.26458333,0,0,-0.26458333,-433.38948,404.59744)">
      <path
         style="color:#000000;font-style:normal;font-variant:normal;font-weight:normal;font-stretch:normal;font-size:medium;line-height:normal;font-family:sans-serif;font-variant-ligatures:normal;font-variant-position:normal;font-variant-caps:normal;font-variant-numeric:normal;font-variant-alternates:normal;font-variant-east-asian:normal;font-feature-settings:normal;font-variation-settings:normal;text-indent:0;text-align:start;text-decoration:none;text-decoration-line:none;text-decoration-style:solid;text-decoration-color:#000000;letter-spacing:normal;word-spacing:normal;text-transform:none;writing-mode:lr-tb;direction:ltr;text-orientation:mixed;dominant-baseline:auto;baseline-shift:baseline;text-anchor:start;white-space:normal;shape-padding:0;shape-margin:0;inline-size:0;clip-rule:nonzero;display:inline;overflow:visible;visibility:visible;opacity:1;isolation:auto;mix-blend-mode:normal;color-interpolation:sRGB;color-interpolation-filters:linearRGB;solid-color:#000000;solid-opacity:1;vector-effect:none;fill:#c8c8c8;fill-opacity:1;fill-rule:nonzero;stroke:#000000;stroke-width:1;stroke-linecap:butt;stroke-linejoin:miter;stroke-miterlimit:4;stroke-dasharray:none;stroke-dashoffset:0;stroke-opacity:1;color-rendering:auto;image-rendering:auto;shape-rendering:auto;text-rendering:auto;enable-background:accumulate;stop-color:#000000;stop-opacity:1"
         d="M 173.53562,0.56155213 V 1.8398253 l -0.2503,-1.24885906 -0.36793,0.0752279 -1.1338,0.22041802 -1.88479,0.35281904 -2.63575,0.4995135 -3.38666,0.6462081 -4.13771,0.7786846 -4.87398,0.9256795 -5.62488,1.0726 -6.36114,1.2195202 -7.09743,1.3516958 -7.81892,1.4840216 -8.5404,1.6161985 -9.26192,1.763193 -9.96878,1.895368 0.2503,1.293016 -0.942392,-0.925679 -1.958365,1.954196 -2.090983,2.086372 -2.208742,2.203953 -2.341205,2.336205 -2.444339,2.438964 -2.576877,2.571291 -2.679941,2.674128 -2.797698,2.806379 -2.915538,2.909215 -3.033297,3.012049 -3.136435,3.129557 -3.239493,3.23247 -3.342553,3.33531 -3.445615,3.438139 0.942394,0.940353 -1.310529,-0.20538 c -1.063397,6.713044 -2.191855,13.919655 -3.371957,21.613293 -1.184022,7.698301 -2.418104,15.897771 -3.681208,24.419745 -2.530062,17.05131 -5.145994,35.30273 -7.80422,54.71652 C 11.086434,409.98964 -3.7932659,667.84179 1.5639719,925.67623 l 1.32523,-0.0302 -0.7804517,1.05794 215.3219998,158.91903 0.79515,-1.0725 v 1.3223 h 412.69431 v 65.0604 h 1.3105 v 1.3225 h 2.8125 8.3195 13.37024 17.78769 21.30686 23.73654 25.00283 24.98818 23.75123 21.29221 17.78762 13.38489 8.30485 2.82715 v -1.3224 h 1.31054 v -65.0604 h 412.69436 v -1.3223 l 0.7804,1.0725 215.3367,-158.91902 -0.7804,-1.04317 1.3252,0.0151 c 5.3572,-257.83445 -9.5224,-515.6866 -44.4987,-771.20402 -1.3271,-9.70343 -2.6487,-19.14402 -3.9608,-28.32799 -1.3122,-9.19526 -2.6243,-18.14957 -3.8874,-26.667704 v -0.0151 c -2.5301,-17.028371 -4.8863,-32.292498 -7.0091,-45.739116 l -1.3106,0.205378 0.9425,-0.940349 -3.4457,-3.438142 -3.3425,-3.335306 -3.2542,-3.23247 -3.1217,-3.129556 -3.0333,-3.012051 -2.9155,-2.909215 -2.7978,-2.80638 -2.6946,-2.674128 -2.562,-2.571291 -2.4592,-2.438965 -2.3266,-2.336203 -2.2087,-2.203954 -2.0909,-2.086371 -1.9584,-1.954196 -0.9424,0.940349 0.2504,-1.307688 -9.9688,-1.895368 -9.2619,-1.763192 -8.5405,-1.6161977 -7.8188,-1.4840217 -7.0974,-1.3516959 -6.3612,-1.2195202 -5.6249,-1.0726 -4.874,-0.9256799 -4.1377,-0.7786845 -3.3867,-0.6462079 -2.6357,-0.4995136 -1.8849,-0.35281906 -1.1337,-0.22041801 -0.368,-0.0752279 -0.2503,1.24885917 V 0.56155213 h -22.2052 V 1.8839089 h -1.3252 v 0.8962659 2.7035419 4.4813285 6.2004388 7.890132 9.476916 11.019766 12.444881 13.752648 14.957422 16.000611 16.94103 17.6903 18.3074 490.03958 l -239.78,166.75035 H 436.83164 L 197.0517,644.6714 V 154.64659 136.33919 118.64889 101.70786 85.707249 70.749827 56.997179 44.552298 33.532532 24.055616 16.165484 9.9650452 5.4837167 2.7801748 1.8839089 h -1.31052 V 0.56155213 Z"
         id="path703" />
      <circle
         style="fill:#ff0000;fill-opacity:0.958427;stroke:#000000;stroke-width:0.265;stroke-miterlimit:4;stroke-dasharray:none;paint-order:fill markers stroke;stop-color:#000000"
         id="path3104-3"
         sodipodi:type="arc"
         sodipodi:cx="744.56689"
         sodipodi:cy="1152.2853"
         sodipodi:rx="9.5022106"
         sodipodi:ry="9.5015888"
         sodipodi:start="0.57990659"
         sodipodi:end="0.57946851"
         sodipodi:arc-type="slice"
         d="m 752.51563,1157.4916 a 9.5022106,9.5015888 0 0 1 -13.15456,2.7425 9.5022106,9.5015888 0 0 1 -2.74405,-13.1534 9.5022106,9.5015888 0 0 1 13.15396,-2.7453 9.5022106,9.5015888 0 0 1 2.74693,13.1528 l -7.95102,-5.2029 z" />
    </g>
    <g
       id="g1420"
       transform="matrix(0.26458333,0,0,-0.26458333,-382.38954,460.50311)">
      <path
         style="color:#000000;font-style:normal;font-variant:normal;font-weight:normal;font-stretch:normal;font-size:medium;line-height:normal;font-family:sans-serif;font-variant-ligatures:normal;font-variant-position:normal;font-variant-caps:normal;font-variant-numeric:normal;font-variant-alternates:normal;font-variant-east-asian:normal;font-feature-settings:normal;font-variation-settings:normal;text-indent:0;text-align:start;text-decoration:none;text-decoration-line:none;text-decoration-style:solid;text-decoration-color:#000000;letter-spacing:normal;word-spacing:normal;text-transform:none;writing-mode:lr-tb;direction:ltr;text-orientation:mixed;dominant-baseline:auto;baseline-shift:baseline;text-anchor:start;white-space:normal;shape-padding:0;shape-margin:0;inline-size:0;clip-rule:nonzero;display:inline;overflow:visible;visibility:visible;opacity:1;isolation:auto;mix-blend-mode:normal;color-interpolation:sRGB;color-interpolation-filters:linearRGB;solid-color:#000000;solid-opacity:1;vector-effect:none;fill:#c8c8c8;fill-opacity:1;fill-rule:nonzero;stroke:#000000;stroke-width:1;stroke-linecap:butt;stroke-linejoin:miter;stroke-miterlimit:4;stroke-dasharray:none;stroke-dashoffset:0;stroke-opacity:1;color-rendering:auto;image-rendering:auto;shape-rendering:auto;text-rendering:auto;enable-background:accumulate;stop-color:#000000;stop-opacity:1"
         d="M 43.031238,0.50020221 V 1.3811727 L 42.157435,1.3406288 38.240114,76.519246 H 34.90198 21.608507 v 0.880969 l -0.873755,-0.0201 -3.27922,125.878445 -2.150105,0.0405 0.01004,0.88097 h -0.873793 v 1.30658 3.89998 6.4538 8.91851 11.26439 13.47181 15.53064 17.36185 18.99512 18.22301 0.17837 H 14.431634 1.373767 v 0.88092 H 0.49999949 v 0.19817 3.47431 7.6911 11.53168 14.81797 17.40144 19.12378 19.95526 19.7969 18.71794 16.70856 13.91721 10.45273 6.47356 2.18757 H 1.3737545 v 0.89091 H 14.441424 v 18.40121 18.99506 17.37177 15.52077 13.48162 11.26444 8.90859 6.4538 3.89997 1.30658 h 0.873805 l -0.01004,0.88099 7.589232,0.1384 1.001436,19.37126 0.883607,-0.0508 v 0.89091 h 13.214952 17.10282 l 23.729973,9.24508 53.762981,148.90225 0.82469,-0.29691 v 0.88094 h 0.19654 0.58909 0.98178 1.37452 1.76722 2.15015 2.54285 2.92574 3.29882 3.69152 4.06466 4.42788 4.80093 5.16426 82.42152 l 2.75885,5.98857 0.79523,-0.37616 -0.25534,0.85125 c 95.57463,29.08199 194.86231,43.85985 294.69504,43.86 99.83272,-1.9e-4 199.1302,-14.77801 294.70484,-43.86 l -0.25539,-0.85125 0.79526,0.37616 2.75882,-5.98857 h 82.42153 5.16421 4.801 4.42788 4.06465 3.6817 3.30863 2.92573 2.54285 2.15015 1.76723 1.37453 0.98179 0.58908 0.19666 v -0.8809 l 0.82469,0.29691 53.75312,-148.90221 23.7398,-9.24512 h 17.1029 13.215 v -0.88094 l 0.8737,0.0406 1.0113,-19.37126 7.5892,-0.1384 -0.011,-0.88098 h 0.8738 v -1.30659 -3.89997 -6.4538 -8.90858 -11.26444 -13.48163 -15.52077 -17.37177 -18.99506 -18.4012 h 13.0579 V 503.113 h 0.8847 v -2.18757 -6.47355 -10.45274 -13.9172 -16.70856 -18.71795 -19.7969 -19.95525 -19.12379 -17.40144 -14.81797 -11.53168 -7.69109 -3.47432 -0.19817 h -0.8836 v -0.88092 h -13.0578 v -0.17841 -18.223 -18.99512 -17.36186 -15.53063 -13.47181 -11.26439 -8.91852 -6.45379 -3.89998 -1.30658 h -0.8738 l 0.011,-0.88097 -2.1501,-0.0405 -3.2792,-125.878486 -0.8738,0.0201 v -0.88092 h -13.2935 -3.3381 l -3.9173,-75.178668 -0.8738,0.040544 V 0.49999949 h -12.7535 -37.6322 -60.61587 -80.5562 H 772.56236 665.02659 551.80621 438.59565 331.05985 234.58884 154.03271 93.416826 55.784684 Z"
         id="path1123" />
      <circle
         style="fill:#ff0000;fill-opacity:0.958427;stroke:#000000;stroke-width:0.265;stroke-miterlimit:4;stroke-dasharray:none;paint-order:fill markers stroke;stop-color:#000000"
         id="path3104-3-3"
         sodipodi:type="arc"
         sodipodi:cx="551.81122"
         sodipodi:cy="-408.76028"
         sodipodi:rx="9.5022097"
         sodipodi:ry="9.5015879"
         sodipodi:start="0.57990659"
         sodipodi:end="0.57946851"
         sodipodi:arc-type="slice"
         transform="scale(1,-1)"
         d="m 559.75995,-403.55393 a 9.5022097,9.5015879 0 0 1 -13.15456,2.74243 9.5022097,9.5015879 0 0 1 -2.74404,-13.1534 9.5022097,9.5015879 0 0 1 13.15395,-2.7453 9.5022097,9.5015879 0 0 1 2.74693,13.15279 l -7.95101,-5.20287 z" />
    </g>
  </g>
</svg>
