<?xml version="1.0" encoding="UTF-8" standalone="no"?>
<svg
   id="svg2"
   version="1.1"
   viewBox="0 0 1103.6148 1682.5525"
   height="445.17535mm"
   width="291.99808mm"
   sodipodi:docname="spiider.svg"
   inkscape:version="1.1.1 (3bf5ae0d25, 2021-09-20)"
   xmlns:inkscape="http://www.inkscape.org/namespaces/inkscape"
   xmlns:sodipodi="http://sodipodi.sourceforge.net/DTD/sodipodi-0.dtd"
   xmlns:xlink="http://www.w3.org/1999/xlink"
   xmlns="http://www.w3.org/2000/svg"
   xmlns:svg="http://www.w3.org/2000/svg"
   xmlns:rdf="http://www.w3.org/1999/02/22-rdf-syntax-ns#"
   xmlns:cc="http://creativecommons.org/ns#"
   xmlns:dc="http://purl.org/dc/elements/1.1/">
  <sodipodi:namedview
     pagecolor="#ffffff"
     bordercolor="#666666"
     borderopacity="1"
     objecttolerance="10"
     gridtolerance="10"
     guidetolerance="10"
     inkscape:pageopacity="0"
     inkscape:pageshadow="2"
     inkscape:window-width="1920"
     inkscape:window-height="1035"
     id="namedview1295"
     showgrid="false"
     inkscape:zoom="0.32738847"
     inkscape:cx="340.57399"
     inkscape:cy="942.30562"
     inkscape:window-x="0"
     inkscape:window-y="45"
     inkscape:window-maximized="1"
     inkscape:current-layer="svg2"
     inkscape:pagecheckerboard="0"
     inkscape:document-units="mm" />
  <!-- Working space 10 10 410 287 -->
  <!-- Title block 220 227 410 287 -->
  <metadata
     id="metadata849">
    <rdf:RDF>
      <cc:Work
         rdf:about="">
        <dc:format>image/svg+xml</dc:format>
        <dc:type
           rdf:resource="http://purl.org/dc/dcmitype/StillImage" />
      </cc:Work>
    </rdf:RDF>
  </metadata>
  <defs
     id="defs847">
    <inkscape:path-effect
       effect="simplify"
       id="path-effect1573"
       is_visible="true"
       lpeversion="1"
       steps="1"
       threshold="0.00108696"
       smooth_angles="360"
       helper_size="0"
       simplify_individual_paths="false"
       simplify_just_coalesce="false" />
    <linearGradient
       gradientUnits="userSpaceOnUse"
       id="defitem29"
       y2="485.909"
       x2="655.35199"
       y1="807.466"
       x1="649.42902">
      <stop
         id="stop92"
         offset="0.0000000"
         style="stop-color:#ffffff;stop-opacity:1.0000000;" />
      <stop
         id="stop93"
         offset="1.0000000"
         style="stop-color:#ffffff;stop-opacity:0.13756600;" />
    </linearGradient>
    <linearGradient
       xlink:href="#defitem29"
       id="linearGradient3448"
       gradientUnits="userSpaceOnUse"
       x1="649.42902"
       y1="807.466"
       x2="655.35199"
       y2="485.909" />
    <radialGradient
       gradientUnits="userSpaceOnUse"
       id="defitem28"
       fy="345.56"
       fx="1049.72"
       r="1202.15"
       cy="345.56"
       cx="1049.72">
      <stop
         id="stop89"
         offset="0.0000000"
         style="stop-color:#ffffff;stop-opacity:1.0000000;" />
      <stop
         id="stop90"
         offset="1.0000000"
         style="stop-color:#a8a8a8;stop-opacity:1.0000000;" />
    </radialGradient>
    <radialGradient
       xlink:href="#defitem28"
       id="radialGradient3446"
       gradientUnits="userSpaceOnUse"
       cx="1092.7045"
       cy="64.845284"
       fx="1089.4004"
       fy="64.844765"
       r="1202.15" />
    <linearGradient
       gradientUnits="userSpaceOnUse"
       id="defitem30"
       y2="636.70697"
       x2="980"
       y1="636.70697"
       x1="287.5">
      <stop
         id="stop95"
         offset="0.0000000"
         style="stop-color:#464646;stop-opacity:1.0000000;" />
      <stop
         id="stop96"
         offset="1.0000000"
         style="stop-color:#c2c2c2;stop-opacity:1.0000000;" />
    </linearGradient>
    <linearGradient
       xlink:href="#defitem30"
       id="linearGradient3444"
       gradientUnits="userSpaceOnUse"
       gradientTransform="matrix(1,0,0,1.016038,0,-11.73855)"
       x1="287.5"
       y1="636.70697"
       x2="980"
       y2="636.70697" />
    <linearGradient
       gradientUnits="userSpaceOnUse"
       id="defitem27"
       y2="317.44699"
       x2="985.98199"
       y1="403.18799"
       x1="921.091">
      <stop
         id="stop86"
         offset="0.0000000"
         style="stop-color:#7e7e7e;stop-opacity:1.0000000;" />
      <stop
         id="stop87"
         offset="1.0000000"
         style="stop-color:#e5e5e5;stop-opacity:1.0000000;" />
    </linearGradient>
    <linearGradient
       xlink:href="#defitem27"
       id="linearGradient3442"
       gradientUnits="userSpaceOnUse"
       x1="921.091"
       y1="403.18799"
       x2="985.98199"
       y2="317.44699" />
    <linearGradient
       gradientUnits="userSpaceOnUse"
       id="defitem26"
       y2="360.27499"
       x2="293.37"
       y1="346.30399"
       x1="530.76099">
      <stop
         id="stop83"
         offset="0.0000000"
         style="stop-color:#5f5f5f;stop-opacity:1.0000000;" />
      <stop
         id="stop84"
         offset="1.0000000"
         style="stop-color:#e5e5e5;stop-opacity:1.0000000;" />
    </linearGradient>
    <linearGradient
       xlink:href="#defitem26"
       id="linearGradient3440"
       gradientUnits="userSpaceOnUse"
       x1="530.76099"
       y1="346.30399"
       x2="293.37"
       y2="360.27499" />
    <linearGradient
       gradientUnits="userSpaceOnUse"
       id="defitem25"
       y2="337.60999"
       x2="308.75"
       y1="412.91901"
       x1="164.013">
      <stop
         id="stop80"
         offset="0.0000000"
         style="stop-color:#ffffff;stop-opacity:1.0000000;" />
      <stop
         id="stop81"
         offset="1.0000000"
         style="stop-color:#bfbfbf;stop-opacity:1.0000000;" />
    </linearGradient>
    <linearGradient
       xlink:href="#defitem25"
       id="linearGradient3438"
       gradientUnits="userSpaceOnUse"
       x1="164.013"
       y1="412.91901"
       x2="308.75"
       y2="337.60999" />
    <linearGradient
       gradientUnits="userSpaceOnUse"
       id="defitem24"
       y2="380.47198"
       x2="992.48901"
       y1="270.854"
       x1="1094.25">
      <stop
         id="stop77"
         offset="0.0000000"
         style="stop-color:#6a6a6a;stop-opacity:1.0000000;" />
      <stop
         id="stop78"
         offset="1.0000000"
         style="stop-color:#e6e6e6;stop-opacity:1.0000000;" />
    </linearGradient>
    <linearGradient
       xlink:href="#defitem24"
       id="linearGradient3436"
       gradientUnits="userSpaceOnUse"
       x1="1094.25"
       y1="270.854"
       x2="992.48901"
       y2="380.47198" />
    <linearGradient
       gradientUnits="userSpaceOnUse"
       id="defitem23"
       y2="549.37799"
       x2="1049.84"
       y1="476.465"
       x1="1170.91">
      <stop
         id="stop74"
         offset="0.0000000"
         style="stop-color:#5f5f5f;stop-opacity:1.0000000;" />
      <stop
         id="stop75"
         offset="1.0000000"
         style="stop-color:#ebebeb;stop-opacity:1.0000000;" />
    </linearGradient>
    <linearGradient
       xlink:href="#defitem23"
       id="linearGradient3434"
       gradientUnits="userSpaceOnUse"
       x1="1170.91"
       y1="476.465"
       x2="1049.84"
       y2="549.37799" />
    <linearGradient
       gradientUnits="userSpaceOnUse"
       id="defitem22"
       y2="313.276"
       x2="576.14899"
       y1="105.486"
       x1="783.716">
      <stop
         id="stop71"
         offset="0.0000000"
         style="stop-color:#5a5a5a;stop-opacity:1.0000000;" />
      <stop
         id="stop72"
         offset="1.0000000"
         style="stop-color:#c7c7c7;stop-opacity:1.0000000;" />
    </linearGradient>
    <linearGradient
       xlink:href="#defitem22"
       id="linearGradient3432"
       gradientUnits="userSpaceOnUse"
       x1="783.716"
       y1="105.486"
       x2="576.14899"
       y2="313.276" />
    <linearGradient
       gradientUnits="userSpaceOnUse"
       id="defitem21"
       y2="484.716"
       x2="128.05499"
       y1="418.698"
       x1="280.04401">
      <stop
         id="stop68"
         offset="0.0000000"
         style="stop-color:#666666;stop-opacity:1.0000000;" />
      <stop
         id="stop69"
         offset="1.0000000"
         style="stop-color:#d8d8d8;stop-opacity:1.0000000;" />
    </linearGradient>
    <linearGradient
       xlink:href="#defitem21"
       id="linearGradient3430"
       gradientUnits="userSpaceOnUse"
       x1="280.04401"
       y1="418.698"
       x2="128.05499"
       y2="484.716" />
    <linearGradient
       gradientUnits="userSpaceOnUse"
       id="defitem20"
       y2="584.40997"
       x2="220"
       y1="636.95398"
       x1="129.687">
      <stop
         id="stop65"
         offset="0.0000000"
         style="stop-color:#ffffff;stop-opacity:1.0000000;" />
      <stop
         id="stop66"
         offset="1.0000000"
         style="stop-color:#bbbbbb;stop-opacity:1.0000000;" />
    </linearGradient>
    <linearGradient
       xlink:href="#defitem20"
       id="linearGradient3428"
       gradientUnits="userSpaceOnUse"
       x1="129.687"
       y1="636.95398"
       x2="220"
       y2="584.40997" />
    <linearGradient
       gradientUnits="userSpaceOnUse"
       id="defitem19"
       y2="583.75299"
       x2="1127.98"
       y1="629.02802"
       x1="1048.72">
      <stop
         id="stop62"
         offset="0.0000000"
         style="stop-color:#5e5e5e;stop-opacity:1.0000000;" />
      <stop
         id="stop63"
         offset="1.0000000"
         style="stop-color:#ededed;stop-opacity:1.0000000;" />
    </linearGradient>
    <linearGradient
       xlink:href="#defitem19"
       id="linearGradient3426"
       gradientUnits="userSpaceOnUse"
       x1="1048.72"
       y1="629.02802"
       x2="1127.98"
       y2="583.75299" />
    <linearGradient
       gradientUnits="userSpaceOnUse"
       id="defitem18"
       y2="291.97699"
       x2="581.32397"
       y1="387.27301"
       x1="370.022">
      <stop
         id="stop59"
         offset="0.0000000"
         style="stop-color:#636363;stop-opacity:1.0000000;" />
      <stop
         id="stop60"
         offset="1.0000000"
         style="stop-color:#d6d6d6;stop-opacity:1.0000000;" />
    </linearGradient>
    <linearGradient
       xlink:href="#defitem18"
       id="linearGradient3424"
       gradientUnits="userSpaceOnUse"
       x1="370.022"
       y1="387.27301"
       x2="581.32397"
       y2="291.97699" />
    <linearGradient
       gradientUnits="userSpaceOnUse"
       id="defitem17"
       y2="351.939"
       x2="909.59399"
       y1="351.939"
       x1="732.15601">
      <stop
         id="stop56"
         offset="0.0000000"
         style="stop-color:#676767;stop-opacity:1.0000000;" />
      <stop
         id="stop57"
         offset="1.0000000"
         style="stop-color:#d3d3d3;stop-opacity:1.0000000;" />
    </linearGradient>
    <linearGradient
       xlink:href="#defitem17"
       id="linearGradient3422"
       gradientUnits="userSpaceOnUse"
       x1="732.15601"
       y1="351.939"
       x2="909.59399"
       y2="351.939" />
    <linearGradient
       gradientUnits="userSpaceOnUse"
       id="defitem16"
       y2="494.71301"
       x2="1073.01"
       y1="494.71301"
       x1="1014.43">
      <stop
         id="stop53"
         offset="0.0000000"
         style="stop-color:#666666;stop-opacity:1.0000000;" />
      <stop
         id="stop54"
         offset="1.0000000"
         style="stop-color:#dcdcdc;stop-opacity:1.0000000;" />
    </linearGradient>
    <linearGradient
       xlink:href="#defitem16"
       id="linearGradient3420"
       gradientUnits="userSpaceOnUse"
       x1="1014.43"
       y1="494.71301"
       x2="1073.01"
       y2="494.71301" />
    <linearGradient
       gradientUnits="userSpaceOnUse"
       id="defitem15"
       y2="516.37"
       x2="193.27699"
       y1="452.388"
       x1="272.59201">
      <stop
         id="stop50"
         offset="0.0000000"
         style="stop-color:#6e6e6e;stop-opacity:1.0000000;" />
      <stop
         id="stop51"
         offset="1.0000000"
         style="stop-color:#d8d8d8;stop-opacity:1.0000000;" />
    </linearGradient>
    <linearGradient
       xlink:href="#defitem15"
       id="linearGradient3418"
       gradientUnits="userSpaceOnUse"
       x1="272.59201"
       y1="452.388"
       x2="193.27699"
       y2="516.37" />
    <radialGradient
       gradientUnits="userSpaceOnUse"
       id="defitem14"
       fy="211.088"
       fx="1037.22"
       r="1164.28"
       cy="211.088"
       cx="1037.22">
      <stop
         id="stop47"
         offset="0.0000000"
         style="stop-color:#ffffff;stop-opacity:1.0000000;" />
      <stop
         id="stop48"
         offset="1.0000000"
         style="stop-color:#aaaaaa;stop-opacity:1.0000000;" />
    </radialGradient>
    <radialGradient
       xlink:href="#defitem14"
       id="radialGradient3416"
       gradientUnits="userSpaceOnUse"
       cx="1037.22"
       cy="211.088"
       fx="1037.22"
       fy="211.088"
       r="1164.28" />
    <linearGradient
       gradientUnits="userSpaceOnUse"
       id="defitem13"
       y2="686.83002"
       x2="379.241"
       y1="732.12903"
       x1="342.64999">
      <stop
         id="stop44"
         offset="0.0000000"
         style="stop-color:#ffffff;stop-opacity:1.0000000;" />
      <stop
         id="stop45"
         offset="1.0000000"
         style="stop-color:#989898;stop-opacity:1.0000000;" />
    </linearGradient>
    <linearGradient
       xlink:href="#defitem13"
       id="linearGradient3414"
       gradientUnits="userSpaceOnUse"
       x1="342.64999"
       y1="732.12903"
       x2="379.241"
       y2="686.83002" />
    <radialGradient
       gradientUnits="userSpaceOnUse"
       id="defitem12"
       fy="484.409"
       fx="632.78101"
       r="540.27899"
       cy="484.409"
       cx="632.78101">
      <stop
         id="stop41"
         offset="0.0000000"
         style="stop-color:#ffffff;stop-opacity:1.0000000;" />
      <stop
         id="stop42"
         offset="1.0000000"
         style="stop-color:#ededed;stop-opacity:1.0000000;" />
    </radialGradient>
    <radialGradient
       xlink:href="#defitem12"
       id="radialGradient3412"
       gradientUnits="userSpaceOnUse"
       cx="632.78101"
       cy="484.409"
       fx="632.78101"
       fy="484.409"
       r="540.27899" />
    <radialGradient
       xlink:href="#linearGradient3682"
       id="radialGradient3817"
       gradientUnits="userSpaceOnUse"
       gradientTransform="matrix(1.1149219,0.2722306,-0.7507171,3.0745639,-471.08629,-148.32863)"
       cx="270.58316"
       cy="33.899986"
       fx="270.58316"
       fy="33.899986"
       r="19.571428" />
    <linearGradient
       id="linearGradient3682">
      <stop
         style="stop-color:#ff6d0f;stop-opacity:1;"
         offset="0"
         id="stop3684" />
      <stop
         style="stop-color:#ff1000;stop-opacity:1;"
         offset="1"
         id="stop3686" />
    </linearGradient>
    <radialGradient
       xlink:href="#linearGradient3864"
       id="radialGradient3661"
       gradientUnits="userSpaceOnUse"
       gradientTransform="matrix(0.6186598,0.9666542,-1.0332462,0.6612786,-327.27568,-255.84136)"
       cx="282.64584"
       cy="29.149046"
       fx="282.64584"
       fy="29.149046"
       r="19.571428" />
    <linearGradient
       id="linearGradient3864">
      <stop
         id="stop3866"
         offset="0"
         style="stop-color:#71b2f8;stop-opacity:1;" />
      <stop
         id="stop3868"
         offset="1"
         style="stop-color:#002795;stop-opacity:1;" />
    </linearGradient>
  </defs>
  <g
     id="g1621"
     transform="translate(117.1617)">
    <path
       style="color:#000000;font-style:normal;font-variant:normal;font-weight:normal;font-stretch:normal;font-size:medium;line-height:normal;font-family:sans-serif;font-variant-ligatures:normal;font-variant-position:normal;font-variant-caps:normal;font-variant-numeric:normal;font-variant-alternates:normal;font-variant-east-asian:normal;font-feature-settings:normal;font-variation-settings:normal;text-indent:0;text-align:start;text-decoration:none;text-decoration-line:none;text-decoration-style:solid;text-decoration-color:#000000;letter-spacing:normal;word-spacing:normal;text-transform:none;writing-mode:lr-tb;direction:ltr;text-orientation:mixed;dominant-baseline:auto;baseline-shift:baseline;text-anchor:start;white-space:normal;shape-padding:0;shape-margin:0;inline-size:0;clip-rule:nonzero;display:inline;overflow:visible;visibility:visible;opacity:1;isolation:auto;mix-blend-mode:normal;color-interpolation:sRGB;color-interpolation-filters:linearRGB;solid-color:#000000;solid-opacity:1;vector-effect:none;fill:#c8c8c8;fill-opacity:1;fill-rule:nonzero;stroke:#000000;stroke-width:1;stroke-linecap:butt;stroke-linejoin:miter;stroke-miterlimit:4;stroke-dasharray:none;stroke-dashoffset:0;stroke-opacity:1;color-rendering:auto;image-rendering:auto;shape-rendering:auto;text-rendering:auto;enable-background:accumulate;stop-color:#000000;stop-opacity:1"
       d="m 349.58633,369.89371 v -0.43995 h -0.44195 V 355.68324 H 232.63495 218.80664 35.871215 12.108718 0.94195288 v -0.43995 H 0.5 V 27.1611 H 0.94195288 V 26.72115 H 12.108718 35.871215 77.032061 V 0.93995 h 0.437025 V 0.5 h 1.38972 4.105274 6.60478 8.785102 10.518568 11.72166 12.34529 12.34038 11.72659 10.51364 8.7851 6.60478 4.10528 1.38972 v 0.43995 h 0.44195 v 25.7812 h 29.95972 13.82831 404.02142 13.82831 29.96463 V 0.93995 h 0.43705 V 0.5 h 1.38972 4.10527 6.60478 8.7851 10.51857 11.72163 12.34532 12.34038 11.72659 10.51364 8.7851 6.60478 4.10528 1.38972 v 0.43995 h 0.44195 v 25.7812 h 41.15592 23.76743 11.16674 v 0.43995 h 0.43705 v 328.08219 h -0.43705 v 0.43995 H 857.18754 833.42011 650.48468 636.65637 520.14698 v 13.77052 h -0.43705 v 0.43995 h -2.13612 -6.2905 -10.13063 -13.46983 -16.13138 -17.97781 -18.92553 -18.93046 -17.97779 -16.12647 -13.46984 -10.13552 -6.2905 z"
       id="path354" />
    <circle
       style="fill:#ff0000;fill-opacity:0.958427;stroke:#000000;stroke-width:0.265;stroke-miterlimit:4;stroke-dasharray:none;paint-order:fill markers stroke;stop-color:#000000"
       id="path3104-3"
       sodipodi:type="arc"
       sodipodi:cx="434.64566"
       sodipodi:cy="-26.731997"
       sodipodi:rx="9.5022097"
       sodipodi:ry="9.5015879"
       sodipodi:start="0.57990659"
       sodipodi:end="0.57946851"
       sodipodi:arc-type="slice"
       transform="scale(1,-1)"
       d="m 442.59439,-21.525641 a 9.5022097,9.5015879 0 0 1 -13.15455,2.742424 9.5022097,9.5015879 0 0 1 -2.74405,-13.153394 9.5022097,9.5015879 0 0 1 13.15395,-2.745305 9.5022097,9.5015879 0 0 1 2.74693,13.152792 l -7.95101,-5.202873 z" />
  </g>
  <path
     style="color:#000000;font-style:normal;font-variant:normal;font-weight:normal;font-stretch:normal;font-size:medium;line-height:normal;font-family:sans-serif;font-variant-ligatures:normal;font-variant-position:normal;font-variant-caps:normal;font-variant-numeric:normal;font-variant-alternates:normal;font-variant-east-asian:normal;font-feature-settings:normal;font-variation-settings:normal;text-indent:0;text-align:start;text-decoration:none;text-decoration-line:none;text-decoration-style:solid;text-decoration-color:#000000;letter-spacing:normal;word-spacing:normal;text-transform:none;writing-mode:lr-tb;direction:ltr;text-orientation:mixed;dominant-baseline:auto;baseline-shift:baseline;text-anchor:start;white-space:normal;shape-padding:0;shape-margin:0;inline-size:0;clip-rule:nonzero;display:inline;overflow:visible;visibility:visible;isolation:auto;mix-blend-mode:normal;color-interpolation:sRGB;color-interpolation-filters:linearRGB;solid-color:#000000;solid-opacity:1;vector-effect:none;fill:#c8c8c8;fill-opacity:1;fill-rule:nonzero;stroke:#000000;stroke-width:0.999999;stroke-linecap:butt;stroke-linejoin:miter;stroke-miterlimit:4;stroke-dasharray:none;stroke-dashoffset:0;stroke-opacity:1;color-rendering:auto;image-rendering:auto;shape-rendering:auto;text-rendering:auto;enable-background:accumulate;stop-color:#000000"
     d="m 32.17221,1682.0523 v -0.8908 l -0.892449,0.05 -4.00095,-75.1776 H 23.879518 13.701712 10.302418 v -0.891 l -0.9024595,0.02 -8.87422398,-334.4831 0.90245998,-0.02 -0.90245998,-0.051 12.11307848,-228.0568 0.892449,0.051 v -0.8908 h 3.389282 10.107623 16.715636 0.752084 l 35.166109,-13.4122 18.901654,-46.23492 0.832278,0.32638 -0.380945,-0.79187 130.717257,-60.93391 20.53613,-43.67129 0.8122,0.37604 -0.26081,-0.85121 c 97.61385,-29.08159 199.02981,-43.85921 300.9926,-43.85941 101.78361,-0.0253 203.54662,14.80625 300.98258,43.85941 l -0.26081,0.85121 0.82226,-0.37604 20.53613,43.67129 130.71728,60.93391 -0.3809,0.79187 0.8322,-0.32638 18.8916,46.23492 35.1662,13.4122 h 0.762 16.7057 10.1177 3.3792 v 0.8913 l 0.9024,-0.051 12.1032,228.0567 -0.8925,0.051 0.9025,0.02 -8.8843,334.4831 -0.8925,-0.02 v 0.8909 h -3.4093 -10.1678 -3.4093 l -3.9909,75.1775 -0.9025,-0.05 v 0.8908 h -3.2689 -9.7566 -16.1341 -22.301 -28.18708 -33.7121 -38.83617 -43.44874 -47.52989 -50.99936 -53.83714 -55.99303 -57.44703 -58.179 -58.179 H 436.17631 380.18328 326.34619 275.34678 227.8269 184.36815 145.54204 111.81988 83.632861 61.331913 45.207823 35.44115 Z"
     id="path1258" />
  <g
     id="g1829"
     transform="translate(353.4441,309.56873)">
    <path
       style="color:#000000;font-style:normal;font-variant:normal;font-weight:normal;font-stretch:normal;font-size:medium;line-height:normal;font-family:sans-serif;font-variant-ligatures:normal;font-variant-position:normal;font-variant-caps:normal;font-variant-numeric:normal;font-variant-alternates:normal;font-variant-east-asian:normal;font-feature-settings:normal;font-variation-settings:normal;text-indent:0;text-align:start;text-decoration:none;text-decoration-line:none;text-decoration-style:solid;text-decoration-color:#000000;letter-spacing:normal;word-spacing:normal;text-transform:none;writing-mode:lr-tb;direction:ltr;text-orientation:mixed;dominant-baseline:auto;baseline-shift:baseline;text-anchor:start;white-space:normal;shape-padding:0;shape-margin:0;inline-size:0;clip-rule:nonzero;display:inline;overflow:visible;visibility:visible;opacity:1;isolation:auto;mix-blend-mode:normal;color-interpolation:sRGB;color-interpolation-filters:linearRGB;solid-color:#000000;solid-opacity:1;vector-effect:none;fill:#c8c8c8;fill-opacity:1;fill-rule:nonzero;stroke:#000000;stroke-width:1;stroke-linecap:butt;stroke-linejoin:miter;stroke-miterlimit:4;stroke-dasharray:none;stroke-dashoffset:0;stroke-opacity:1;color-rendering:auto;image-rendering:auto;shape-rendering:auto;text-rendering:auto;enable-background:accumulate;stop-color:#000000;stop-opacity:1"
       d="m 198.40795,1161.3776 -10.84892,-0.2942 -10.81951,-0.8627 -10.75092,-1.4411 -10.66271,-2.0097 -10.54509,-2.5684 -10.38829,-3.1273 -10.19229,-3.6664 0.284,-0.7843 -0.31361,0.7744 -4.85115,-1.9704 -4.81192,-2.0979 -4.76295,-2.2156 -4.69435,-2.343 -4.63549,-2.4606 -4.576737,-2.5783 -4.498359,-2.6959 -4.429715,-2.8038 -4.361123,-2.9214 -4.282746,-3.039 -4.204319,-3.1371 -4.125891,-3.2547 -4.037729,-3.3527 -3.939733,-3.4508 v -0.01 c -7.510511,-6.7447 -14.466158,-13.9825 -20.855002,-21.7144 -6.395568,-7.7356 -12.244101,-15.984 -17.424873,-24.5476 -5.177409,-8.5631 -9.690269,-17.4377 -13.534213,-26.6063 -0.6316346,-1.5048 -1.247061,-3.0193 -1.8424667,-4.5389 l 0.2840044,-0.1079 c -3.0361874,-7.743 -5.8828045,-15.5648 -7.97741188,-23.7242 l 0.87223458,-0.2253 H 0.57903184 V 952.81122 897.93207 842.99416 787.98757 732.9222 677.8078 622.65422 235.97118 76.931556 H 1.461051 v -0.8726 h 83.91983 v -65.5549 h 0.872235 V 9.6217556 h 2.812697 8.300806 13.357791 17.7581 21.26666 23.69705 24.96133 24.95154 23.70689 21.25682 17.75811 13.36757 8.29102 2.8127 v 0.8823004 h 0.87223 v 65.5549 h 83.92962 v 0.8726 h 0.87263 v 159.039624 386.68304 55.15358 55.1144 55.06537 55.00659 54.93791 54.87915 54.79088 h -0.88201 l 0.85261,0.2158 c -7.5e-4,0 7.5e-4,0 0,0.01 -2.50481,9.757 -5.67462,19.2096 -9.52589,28.3709 -3.84389,9.1685 -8.35675,18.0432 -13.53416,26.6063 -10.41137,17.224 -23.31079,32.8112 -38.27993,46.2619 l -0.58803,-0.6568 0.57825,0.6666 -3.93973,3.4508 -4.03773,3.3527 -4.1259,3.2547 -4.19453,3.1371 -4.28269,3.039 -4.36113,2.9214 -4.43955,2.8038 -4.49836,2.6959 -4.57668,2.5783 -4.63555,2.4606 -4.69435,2.343 -4.75311,2.2156 -4.81196,2.0979 -4.85116,1.9704 -0.32364,-0.7842 0.284,0.7941 -10.18251,3.6664 -10.39807,3.1273 -10.53531,2.5684 -10.66271,2.0097 -10.7607,1.4411 -10.81952,0.8627 z"
       id="path1588" />
    <circle
       style="fill:#ff0000;fill-opacity:0.958427;stroke:#000000;stroke-width:0.265;stroke-miterlimit:4;stroke-dasharray:none;paint-order:fill markers stroke;stop-color:#000000"
       id="path3104-3-6"
       sodipodi:type="arc"
       sodipodi:cx="198.40163"
       sodipodi:cy="-9.63447"
       sodipodi:rx="9.5022097"
       sodipodi:ry="9.5015879"
       sodipodi:start="0.57990659"
       sodipodi:end="0.57946851"
       sodipodi:arc-type="slice"
       transform="scale(1,-1)"
       d="m 206.35036,-4.4281148 a 9.5022097,9.5015879 0 0 1 -13.15456,2.7424247 9.5022097,9.5015879 0 0 1 -2.74404,-13.1533939 9.5022097,9.5015879 0 0 1 13.15395,-2.745306 9.5022097,9.5015879 0 0 1 2.74693,13.1527927 L 198.40163,-9.63447 Z" />
  </g>
  <circle
     style="fill:#ff0000;fill-opacity:0.958427;stroke:#000000;stroke-width:0.265;stroke-miterlimit:4;stroke-dasharray:none;paint-order:fill markers stroke;stop-color:#000000"
     id="path3104-3-3"
     sodipodi:type="arc"
     sodipodi:cx="551.80737"
     sodipodi:cy="-1274.0253"
     sodipodi:rx="9.5022097"
     sodipodi:ry="9.5015879"
     sodipodi:start="0.57990659"
     sodipodi:end="0.57946851"
     sodipodi:arc-type="slice"
     transform="scale(1,-1)"
     d="m 559.7561,-1268.8189 a 9.5022097,9.5015879 0 0 1 -13.15455,2.7424 9.5022097,9.5015879 0 0 1 -2.74405,-13.1534 9.5022097,9.5015879 0 0 1 13.15396,-2.7453 9.5022097,9.5015879 0 0 1 2.74692,13.1528 l -7.95101,-5.2029 z" />
</svg>
